0
SECTION
2
HEADER
9
$INSUNITS
70
4
0
ENDSEC
0
SECTION
2
TABLES
0
TABLE
2
LTYPE
0
LTYPE
72
65
70
64
2
CONTINUOUS
3
______
73
0
40
0
0
ENDTAB
0
TABLE
2
LAYER
0
ENDTAB
0
ENDSEC
0
SECTION
2
ENTITIES
0
LINE
8
0
10
-11.5
20
67.5
11
-11.5
21
-10.5
0
LINE
8
0
10
-10.5
20
-11.5
11
25.5
21
-11.5
0
LINE
8
0
10
26.5
20
-12.5
11
26.5
21
-29.5
0
LINE
8
0
10
27.5
20
-30.5
11
124.5
21
-30.5
0
LINE
8
0
10
125.5
20
-29.5
11
125.5
21
67.5
0
LINE
8
0
10
124.5
20
68.5
11
-10.5
21
68.5
0
ARC
8
0
10
-10.5
20
-10.5
40
1
50
180
51
270
0
ARC
8
0
10
25.5
20
-12.5
40
1
50
0
51
90
0
ARC
8
0
10
27.5
20
-29.5
40
1
50
180
51
270
0
ARC
8
0
10
124.5
20
-29.5
40
1
50
270
51
0
0
ARC
8
0
10
124.5
20
67.5
40
1
50
0
51
90
0
ARC
8
0
10
-10.5
20
67.5
40
1
50
90
51
180
0
LINE
8
0
10
-9.25
20
-9.25
11
9.25
21
-9.25
0
LINE
8
0
10
9.25
20
-9.25
11
9.25
21
9.25
0
LINE
8
0
10
9.25
20
9.25
11
-9.25
21
9.25
0
LINE
8
0
10
-9.25
20
9.25
11
-9.25
21
-9.25
0
LINE
8
0
10
-9.25
20
9.75
11
9.25
21
9.75
0
LINE
8
0
10
9.25
20
9.75
11
9.25
21
28.25
0
LINE
8
0
10
9.25
20
28.25
11
-9.25
21
28.25
0
LINE
8
0
10
-9.25
20
28.25
11
-9.25
21
9.75
0
LINE
8
0
10
-9.25
20
28.75
11
9.25
21
28.75
0
LINE
8
0
10
9.25
20
28.75
11
9.25
21
47.25
0
LINE
8
0
10
9.25
20
47.25
11
-9.25
21
47.25
0
LINE
8
0
10
-9.25
20
47.25
11
-9.25
21
28.75
0
LINE
8
0
10
-9.25
20
47.75
11
9.25
21
47.75
0
LINE
8
0
10
9.25
20
47.75
11
9.25
21
66.25
0
LINE
8
0
10
9.25
20
66.25
11
-9.25
21
66.25
0
LINE
8
0
10
-9.25
20
66.25
11
-9.25
21
47.75
0
LINE
8
0
10
9.75
20
-9.25
11
28.25
21
-9.25
0
LINE
8
0
10
28.25
20
-9.25
11
28.25
21
9.25
0
LINE
8
0
10
28.25
20
9.25
11
9.75
21
9.25
0
LINE
8
0
10
9.75
20
9.25
11
9.75
21
-9.25
0
LINE
8
0
10
9.75
20
9.75
11
28.25
21
9.75
0
LINE
8
0
10
28.25
20
9.75
11
28.25
21
28.25
0
LINE
8
0
10
28.25
20
28.25
11
9.75
21
28.25
0
LINE
8
0
10
9.75
20
28.25
11
9.75
21
9.75
0
LINE
8
0
10
9.75
20
28.75
11
28.25
21
28.75
0
LINE
8
0
10
28.25
20
28.75
11
28.25
21
47.25
0
LINE
8
0
10
28.25
20
47.25
11
9.75
21
47.25
0
LINE
8
0
10
9.75
20
47.25
11
9.75
21
28.75
0
LINE
8
0
10
9.75
20
47.75
11
28.25
21
47.75
0
LINE
8
0
10
28.25
20
47.75
11
28.25
21
66.25
0
LINE
8
0
10
28.25
20
66.25
11
9.75
21
66.25
0
LINE
8
0
10
9.75
20
66.25
11
9.75
21
47.75
0
LINE
8
0
10
28.75
20
-9.25
11
47.25
21
-9.25
0
LINE
8
0
10
47.25
20
-9.25
11
47.25
21
9.25
0
LINE
8
0
10
47.25
20
9.25
11
28.75
21
9.25
0
LINE
8
0
10
28.75
20
9.25
11
28.75
21
-9.25
0
LINE
8
0
10
28.75
20
9.75
11
47.25
21
9.75
0
LINE
8
0
10
47.25
20
9.75
11
47.25
21
28.25
0
LINE
8
0
10
47.25
20
28.25
11
28.75
21
28.25
0
LINE
8
0
10
28.75
20
28.25
11
28.75
21
9.75
0
LINE
8
0
10
28.75
20
28.75
11
47.25
21
28.75
0
LINE
8
0
10
47.25
20
28.75
11
47.25
21
47.25
0
LINE
8
0
10
47.25
20
47.25
11
28.75
21
47.25
0
LINE
8
0
10
28.75
20
47.25
11
28.75
21
28.75
0
LINE
8
0
10
28.75
20
47.75
11
47.25
21
47.75
0
LINE
8
0
10
47.25
20
47.75
11
47.25
21
66.25
0
LINE
8
0
10
47.25
20
66.25
11
28.75
21
66.25
0
LINE
8
0
10
28.75
20
66.25
11
28.75
21
47.75
0
LINE
8
0
10
47.75
20
-9.25
11
66.25
21
-9.25
0
LINE
8
0
10
66.25
20
-9.25
11
66.25
21
9.25
0
LINE
8
0
10
66.25
20
9.25
11
47.75
21
9.25
0
LINE
8
0
10
47.75
20
9.25
11
47.75
21
-9.25
0
LINE
8
0
10
47.75
20
9.75
11
66.25
21
9.75
0
LINE
8
0
10
66.25
20
9.75
11
66.25
21
28.25
0
LINE
8
0
10
66.25
20
28.25
11
47.75
21
28.25
0
LINE
8
0
10
47.75
20
28.25
11
47.75
21
9.75
0
LINE
8
0
10
47.75
20
28.75
11
66.25
21
28.75
0
LINE
8
0
10
66.25
20
28.75
11
66.25
21
47.25
0
LINE
8
0
10
66.25
20
47.25
11
47.75
21
47.25
0
LINE
8
0
10
47.75
20
47.25
11
47.75
21
28.75
0
LINE
8
0
10
47.75
20
47.75
11
66.25
21
47.75
0
LINE
8
0
10
66.25
20
47.75
11
66.25
21
66.25
0
LINE
8
0
10
66.25
20
66.25
11
47.75
21
66.25
0
LINE
8
0
10
47.75
20
66.25
11
47.75
21
47.75
0
LINE
8
0
10
66.75
20
-9.25
11
85.25
21
-9.25
0
LINE
8
0
10
85.25
20
-9.25
11
85.25
21
9.25
0
LINE
8
0
10
85.25
20
9.25
11
66.75
21
9.25
0
LINE
8
0
10
66.75
20
9.25
11
66.75
21
-9.25
0
LINE
8
0
10
66.75
20
9.75
11
85.25
21
9.75
0
LINE
8
0
10
85.25
20
9.75
11
85.25
21
28.25
0
LINE
8
0
10
85.25
20
28.25
11
66.75
21
28.25
0
LINE
8
0
10
66.75
20
28.25
11
66.75
21
9.75
0
LINE
8
0
10
66.75
20
28.75
11
85.25
21
28.75
0
LINE
8
0
10
85.25
20
28.75
11
85.25
21
47.25
0
LINE
8
0
10
85.25
20
47.25
11
66.75
21
47.25
0
LINE
8
0
10
66.75
20
47.25
11
66.75
21
28.75
0
LINE
8
0
10
66.75
20
47.75
11
85.25
21
47.75
0
LINE
8
0
10
85.25
20
47.75
11
85.25
21
66.25
0
LINE
8
0
10
85.25
20
66.25
11
66.75
21
66.25
0
LINE
8
0
10
66.75
20
66.25
11
66.75
21
47.75
0
LINE
8
0
10
85.75
20
-9.25
11
104.25
21
-9.25
0
LINE
8
0
10
104.25
20
-9.25
11
104.25
21
9.25
0
LINE
8
0
10
104.25
20
9.25
11
85.75
21
9.25
0
LINE
8
0
10
85.75
20
9.25
11
85.75
21
-9.25
0
LINE
8
0
10
85.75
20
9.75
11
104.25
21
9.75
0
LINE
8
0
10
104.25
20
9.75
11
104.25
21
28.25
0
LINE
8
0
10
104.25
20
28.25
11
85.75
21
28.25
0
LINE
8
0
10
85.75
20
28.25
11
85.75
21
9.75
0
LINE
8
0
10
85.75
20
28.75
11
104.25
21
28.75
0
LINE
8
0
10
104.25
20
28.75
11
104.25
21
47.25
0
LINE
8
0
10
104.25
20
47.25
11
85.75
21
47.25
0
LINE
8
0
10
85.75
20
47.25
11
85.75
21
28.75
0
LINE
8
0
10
85.75
20
47.75
11
104.25
21
47.75
0
LINE
8
0
10
104.25
20
47.75
11
104.25
21
66.25
0
LINE
8
0
10
104.25
20
66.25
11
85.75
21
66.25
0
LINE
8
0
10
85.75
20
66.25
11
85.75
21
47.75
0
LINE
8
0
10
104.75
20
-9.25
11
123.25
21
-9.25
0
LINE
8
0
10
123.25
20
-9.25
11
123.25
21
9.25
0
LINE
8
0
10
123.25
20
9.25
11
104.75
21
9.25
0
LINE
8
0
10
104.75
20
9.25
11
104.75
21
-9.25
0
LINE
8
0
10
104.75
20
9.75
11
123.25
21
9.75
0
LINE
8
0
10
123.25
20
9.75
11
123.25
21
28.25
0
LINE
8
0
10
123.25
20
28.25
11
104.75
21
28.25
0
LINE
8
0
10
104.75
20
28.25
11
104.75
21
9.75
0
LINE
8
0
10
66.75
20
-28.25
11
85.25
21
-28.25
0
LINE
8
0
10
85.25
20
-28.25
11
85.25
21
-9.75
0
LINE
8
0
10
85.25
20
-9.75
11
66.75
21
-9.75
0
LINE
8
0
10
66.75
20
-9.75
11
66.75
21
-28.25
0
LINE
8
0
10
47.75
20
-28.25
11
66.25
21
-28.25
0
LINE
8
0
10
66.25
20
-28.25
11
66.25
21
-9.75
0
LINE
8
0
10
66.25
20
-9.75
11
47.75
21
-9.75
0
LINE
8
0
10
47.75
20
-9.75
11
47.75
21
-28.25
0
LINE
8
0
10
28.75
20
-28.25
11
47.25
21
-28.25
0
LINE
8
0
10
47.25
20
-28.25
11
47.25
21
-9.75
0
LINE
8
0
10
47.25
20
-9.75
11
28.75
21
-9.75
0
LINE
8
0
10
28.75
20
-9.75
11
28.75
21
-28.25
0
LINE
8
0
10
94.75
20
-28.25
11
113.25
21
-28.25
0
LINE
8
0
10
113.25
20
-28.25
11
113.25
21
-9.75
0
LINE
8
0
10
113.25
20
-9.75
11
94.75
21
-9.75
0
LINE
8
0
10
94.75
20
-9.75
11
94.75
21
-28.25
0
ENDSEC
0
EOF