0
SECTION
2
HEADER
9
$INSUNITS
70
4
0
ENDSEC
0
SECTION
2
TABLES
0
TABLE
2
LTYPE
0
LTYPE
72
65
70
64
2
CONTINUOUS
3
______
73
0
40
0
0
ENDTAB
0
TABLE
2
LAYER
0
ENDTAB
0
ENDSEC
0
SECTION
2
ENTITIES
0
LINE
8
0
10
-9.25
20
-9.25
11
9.25
21
-9.25
0
LINE
8
0
10
9.25
20
-9.25
11
9.25
21
9.25
0
LINE
8
0
10
9.25
20
9.25
11
-9.25
21
9.25
0
LINE
8
0
10
-9.25
20
9.25
11
-9.25
21
-9.25
0
LINE
8
0
10
-9.25
20
9.75
11
9.25
21
9.75
0
LINE
8
0
10
9.25
20
9.75
11
9.25
21
28.25
0
LINE
8
0
10
9.25
20
28.25
11
-9.25
21
28.25
0
LINE
8
0
10
-9.25
20
28.25
11
-9.25
21
9.75
0
LINE
8
0
10
-9.25
20
28.75
11
9.25
21
28.75
0
LINE
8
0
10
9.25
20
28.75
11
9.25
21
47.25
0
LINE
8
0
10
9.25
20
47.25
11
-9.25
21
47.25
0
LINE
8
0
10
-9.25
20
47.25
11
-9.25
21
28.75
0
LINE
8
0
10
-9.25
20
47.75
11
9.25
21
47.75
0
LINE
8
0
10
9.25
20
47.75
11
9.25
21
66.25
0
LINE
8
0
10
9.25
20
66.25
11
-9.25
21
66.25
0
LINE
8
0
10
-9.25
20
66.25
11
-9.25
21
47.75
0
LINE
8
0
10
9.75
20
-9.25
11
28.25
21
-9.25
0
LINE
8
0
10
28.25
20
-9.25
11
28.25
21
9.25
0
LINE
8
0
10
28.25
20
9.25
11
9.75
21
9.25
0
LINE
8
0
10
9.75
20
9.25
11
9.75
21
-9.25
0
LINE
8
0
10
9.75
20
9.75
11
28.25
21
9.75
0
LINE
8
0
10
28.25
20
9.75
11
28.25
21
28.25
0
LINE
8
0
10
28.25
20
28.25
11
9.75
21
28.25
0
LINE
8
0
10
9.75
20
28.25
11
9.75
21
9.75
0
LINE
8
0
10
9.75
20
28.75
11
28.25
21
28.75
0
LINE
8
0
10
28.25
20
28.75
11
28.25
21
47.25
0
LINE
8
0
10
28.25
20
47.25
11
9.75
21
47.25
0
LINE
8
0
10
9.75
20
47.25
11
9.75
21
28.75
0
LINE
8
0
10
9.75
20
47.75
11
28.25
21
47.75
0
LINE
8
0
10
28.25
20
47.75
11
28.25
21
66.25
0
LINE
8
0
10
28.25
20
66.25
11
9.75
21
66.25
0
LINE
8
0
10
9.75
20
66.25
11
9.75
21
47.75
0
LINE
8
0
10
28.75
20
-9.25
11
47.25
21
-9.25
0
LINE
8
0
10
47.25
20
-9.25
11
47.25
21
9.25
0
LINE
8
0
10
47.25
20
9.25
11
28.75
21
9.25
0
LINE
8
0
10
28.75
20
9.25
11
28.75
21
-9.25
0
LINE
8
0
10
28.75
20
9.75
11
47.25
21
9.75
0
LINE
8
0
10
47.25
20
9.75
11
47.25
21
28.25
0
LINE
8
0
10
47.25
20
28.25
11
28.75
21
28.25
0
LINE
8
0
10
28.75
20
28.25
11
28.75
21
9.75
0
LINE
8
0
10
28.75
20
28.75
11
47.25
21
28.75
0
LINE
8
0
10
47.25
20
28.75
11
47.25
21
47.25
0
LINE
8
0
10
47.25
20
47.25
11
28.75
21
47.25
0
LINE
8
0
10
28.75
20
47.25
11
28.75
21
28.75
0
LINE
8
0
10
28.75
20
47.75
11
47.25
21
47.75
0
LINE
8
0
10
47.25
20
47.75
11
47.25
21
66.25
0
LINE
8
0
10
47.25
20
66.25
11
28.75
21
66.25
0
LINE
8
0
10
28.75
20
66.25
11
28.75
21
47.75
0
LINE
8
0
10
47.75
20
-9.25
11
66.25
21
-9.25
0
LINE
8
0
10
66.25
20
-9.25
11
66.25
21
9.25
0
LINE
8
0
10
66.25
20
9.25
11
47.75
21
9.25
0
LINE
8
0
10
47.75
20
9.25
11
47.75
21
-9.25
0
LINE
8
0
10
47.75
20
9.75
11
66.25
21
9.75
0
LINE
8
0
10
66.25
20
9.75
11
66.25
21
28.25
0
LINE
8
0
10
66.25
20
28.25
11
47.75
21
28.25
0
LINE
8
0
10
47.75
20
28.25
11
47.75
21
9.75
0
LINE
8
0
10
47.75
20
28.75
11
66.25
21
28.75
0
LINE
8
0
10
66.25
20
28.75
11
66.25
21
47.25
0
LINE
8
0
10
66.25
20
47.25
11
47.75
21
47.25
0
LINE
8
0
10
47.75
20
47.25
11
47.75
21
28.75
0
LINE
8
0
10
47.75
20
47.75
11
66.25
21
47.75
0
LINE
8
0
10
66.25
20
47.75
11
66.25
21
66.25
0
LINE
8
0
10
66.25
20
66.25
11
47.75
21
66.25
0
LINE
8
0
10
47.75
20
66.25
11
47.75
21
47.75
0
LINE
8
0
10
66.75
20
-9.25
11
85.25
21
-9.25
0
LINE
8
0
10
85.25
20
-9.25
11
85.25
21
9.25
0
LINE
8
0
10
85.25
20
9.25
11
66.75
21
9.25
0
LINE
8
0
10
66.75
20
9.25
11
66.75
21
-9.25
0
LINE
8
0
10
66.75
20
9.75
11
85.25
21
9.75
0
LINE
8
0
10
85.25
20
9.75
11
85.25
21
28.25
0
LINE
8
0
10
85.25
20
28.25
11
66.75
21
28.25
0
LINE
8
0
10
66.75
20
28.25
11
66.75
21
9.75
0
LINE
8
0
10
66.75
20
28.75
11
85.25
21
28.75
0
LINE
8
0
10
85.25
20
28.75
11
85.25
21
47.25
0
LINE
8
0
10
85.25
20
47.25
11
66.75
21
47.25
0
LINE
8
0
10
66.75
20
47.25
11
66.75
21
28.75
0
LINE
8
0
10
66.75
20
47.75
11
85.25
21
47.75
0
LINE
8
0
10
85.25
20
47.75
11
85.25
21
66.25
0
LINE
8
0
10
85.25
20
66.25
11
66.75
21
66.25
0
LINE
8
0
10
66.75
20
66.25
11
66.75
21
47.75
0
LINE
8
0
10
85.75
20
-9.25
11
104.25
21
-9.25
0
LINE
8
0
10
104.25
20
-9.25
11
104.25
21
9.25
0
LINE
8
0
10
104.25
20
9.25
11
85.75
21
9.25
0
LINE
8
0
10
85.75
20
9.25
11
85.75
21
-9.25
0
LINE
8
0
10
85.75
20
9.75
11
104.25
21
9.75
0
LINE
8
0
10
104.25
20
9.75
11
104.25
21
28.25
0
LINE
8
0
10
104.25
20
28.25
11
85.75
21
28.25
0
LINE
8
0
10
85.75
20
28.25
11
85.75
21
9.75
0
LINE
8
0
10
85.75
20
28.75
11
104.25
21
28.75
0
LINE
8
0
10
104.25
20
28.75
11
104.25
21
47.25
0
LINE
8
0
10
104.25
20
47.25
11
85.75
21
47.25
0
LINE
8
0
10
85.75
20
47.25
11
85.75
21
28.75
0
LINE
8
0
10
85.75
20
47.75
11
104.25
21
47.75
0
LINE
8
0
10
104.25
20
47.75
11
104.25
21
66.25
0
LINE
8
0
10
104.25
20
66.25
11
85.75
21
66.25
0
LINE
8
0
10
85.75
20
66.25
11
85.75
21
47.75
0
LINE
8
0
10
104.75
20
-9.25
11
123.25
21
-9.25
0
LINE
8
0
10
123.25
20
-9.25
11
123.25
21
9.25
0
LINE
8
0
10
123.25
20
9.25
11
104.75
21
9.25
0
LINE
8
0
10
104.75
20
9.25
11
104.75
21
-9.25
0
LINE
8
0
10
104.75
20
9.75
11
123.25
21
9.75
0
LINE
8
0
10
123.25
20
9.75
11
123.25
21
28.25
0
LINE
8
0
10
123.25
20
28.25
11
104.75
21
28.25
0
LINE
8
0
10
104.75
20
28.25
11
104.75
21
9.75
0
LINE
8
0
10
66.75
20
-28.25
11
85.25
21
-28.25
0
LINE
8
0
10
85.25
20
-28.25
11
85.25
21
-9.75
0
LINE
8
0
10
85.25
20
-9.75
11
66.75
21
-9.75
0
LINE
8
0
10
66.75
20
-9.75
11
66.75
21
-28.25
0
LINE
8
0
10
47.75
20
-28.25
11
66.25
21
-28.25
0
LINE
8
0
10
66.25
20
-28.25
11
66.25
21
-9.75
0
LINE
8
0
10
66.25
20
-9.75
11
47.75
21
-9.75
0
LINE
8
0
10
47.75
20
-9.75
11
47.75
21
-28.25
0
LINE
8
0
10
28.75
20
-28.25
11
47.25
21
-28.25
0
LINE
8
0
10
47.25
20
-28.25
11
47.25
21
-9.75
0
LINE
8
0
10
47.25
20
-9.75
11
28.75
21
-9.75
0
LINE
8
0
10
28.75
20
-9.75
11
28.75
21
-28.25
0
LINE
8
0
10
94.75
20
-28.25
11
113.25
21
-28.25
0
LINE
8
0
10
113.25
20
-28.25
11
113.25
21
-9.75
0
LINE
8
0
10
113.25
20
-9.75
11
94.75
21
-9.75
0
LINE
8
0
10
94.75
20
-9.75
11
94.75
21
-28.25
0
ENDSEC
0
EOF