M48
; DRILL file {KiCad 8.0.8-8.0.8-0~ubuntu24.04.1} date 2025-01-29T12:45:40-0500
; FORMAT={-:-/ absolute / inch / decimal}
; #@! TF.CreationDate,2025-01-29T12:45:40-05:00
; #@! TF.GenerationSoftware,Kicad,Pcbnew,8.0.8-8.0.8-0~ubuntu24.04.1
; #@! TF.FileFunction,Plated,1,4,PTH
FMAT,2
INCH
; #@! TA.AperFunction,Plated,PTH,ViaDrill
T1C0.0157
; #@! TA.AperFunction,Plated,PTH,ComponentDrill
T2C0.0354
; #@! TA.AperFunction,Plated,PTH,ComponentDrill
T3C0.0394
; #@! TA.AperFunction,Plated,PTH,ComponentDrill
T4C0.0430
; #@! TA.AperFunction,Plated,PTH,ComponentDrill
T5C0.0866
%
G90
G05
T1
X5.6299Y-3.4449
X5.7087Y-5.3346
X5.7087Y-6.0827
X5.7283Y-3.8189
X5.7283Y-3.8976
X5.7283Y-4.5866
X5.7283Y-4.6457
X5.7283Y-5.3937
X5.7283Y-6.1417
X6.0236Y-3.9567
X6.0236Y-4.7047
X6.0236Y-5.4528
X6.0236Y-6.2008
X6.0827Y-3.8386
X6.0827Y-4.5866
X6.0827Y-5.3346
X6.0827Y-6.0827
X6.3189Y-3.7795
X6.3189Y-4.5276
X6.3189Y-5.2756
X6.378Y-3.4449
X6.437Y-3.7795
X6.437Y-4.5276
X6.437Y-5.2756
X6.4567Y-3.8386
X6.4567Y-4.5866
X6.4567Y-5.3346
X6.4567Y-6.0827
X6.4764Y-3.8976
X6.4764Y-4.6457
X6.4764Y-5.3937
X6.4764Y-6.1417
X6.7717Y-3.9567
X6.7717Y-4.7047
X6.7717Y-5.4528
X6.7717Y-6.2008
X6.8307Y-3.8386
X6.8307Y-4.5866
X6.8307Y-5.3346
X6.8307Y-6.0827
X7.0669Y-3.7795
X7.0669Y-4.5276
X7.0669Y-5.2756
X7.0669Y-6.0236
X7.126Y-3.4449
X7.185Y-3.7795
X7.185Y-4.5276
X7.185Y-5.2756
X7.185Y-6.0236
X7.2047Y-3.8976
X7.2047Y-4.5866
X7.2047Y-4.6457
X7.2047Y-5.3346
X7.2047Y-6.0827
X7.2047Y-6.8307
X7.2047Y-6.9291
X7.2244Y-3.8189
X7.2244Y-5.3937
X7.2244Y-6.1417
X7.5197Y-3.9567
X7.5197Y-4.7047
X7.5197Y-5.4528
X7.5197Y-6.2008
X7.5197Y-6.9488
X7.5787Y-3.8386
X7.5787Y-4.5866
X7.5787Y-5.3346
X7.5787Y-6.0827
X7.5787Y-6.8307
X7.815Y-3.7795
X7.815Y-4.5276
X7.815Y-5.2756
X7.815Y-6.0236
X7.874Y-3.4449
X7.9331Y-3.7795
X7.9331Y-4.5276
X7.9331Y-5.2756
X7.9331Y-6.0236
X7.9528Y-3.8386
X7.9528Y-3.8976
X7.9528Y-4.5866
X7.9528Y-5.3346
X7.9528Y-5.3937
X7.9528Y-6.8307
X7.9724Y-4.6457
X7.9724Y-6.0827
X7.9724Y-6.1417
X7.9724Y-6.8898
X8.2677Y-3.9567
X8.2677Y-4.7047
X8.2677Y-5.4528
X8.2677Y-6.2008
X8.2677Y-6.9488
X8.3268Y-3.8386
X8.3268Y-4.5866
X8.3268Y-5.3346
X8.3268Y-6.0827
X8.3268Y-6.8307
X8.563Y-4.5079
X8.563Y-5.2756
X8.563Y-6.0236
X8.5827Y-3.7598
X8.622Y-3.4449
X8.6811Y-3.7598
X8.6811Y-4.5079
X8.6811Y-5.2756
X8.6811Y-6.0236
X8.7008Y-3.8976
X8.7008Y-4.5866
X8.7008Y-4.6457
X8.7008Y-5.3346
X8.7008Y-6.0827
X8.7008Y-6.8307
X8.7205Y-3.8189
X8.7205Y-5.3937
X8.7205Y-6.1417
X8.7205Y-6.8898
X9.0157Y-3.9567
X9.0157Y-4.7047
X9.0157Y-5.4528
X9.0157Y-6.2008
X9.0157Y-6.9488
X9.0748Y-3.8386
X9.0748Y-4.5866
X9.0748Y-5.3346
X9.0748Y-6.0827
X9.0748Y-6.8307
X9.311Y-3.7795
X9.311Y-5.2756
X9.3307Y-4.5276
X9.3701Y-3.4449
X9.4291Y-3.7795
X9.4291Y-4.5276
X9.4291Y-5.2756
X9.4488Y-3.8976
X9.4488Y-4.5866
X9.4488Y-5.3346
X9.4488Y-6.0827
X9.4685Y-3.8386
X9.4685Y-4.6457
X9.4685Y-5.3937
X9.4685Y-6.1417
X9.7638Y-3.9567
X9.7638Y-4.7047
X9.7638Y-5.4528
X9.7638Y-6.2008
X9.7835Y-6.8307
X9.8228Y-3.8386
X9.8228Y-4.5866
X9.8228Y-5.3346
X9.8228Y-6.0827
X9.8228Y-6.8898
X9.8819Y-3.878
X9.9409Y-4.7244
X10.0591Y-5.2756
X10.0591Y-6.0236
X10.1181Y-4.9409
X10.1181Y-6.9488
X10.1772Y-5.2756
X10.1772Y-6.0236
X10.1772Y-6.8307
X10.1969Y-6.0827
X10.2165Y-5.3346
X10.2165Y-5.3937
X10.2165Y-6.1417
X10.2559Y-3.5236
X10.2559Y-3.622
X10.2953Y-6.9488
X10.5118Y-5.4528
X10.5118Y-6.2008
X10.5709Y-5.3346
X10.5709Y-6.0827
X10.689Y-6.2008
X10.7677Y-5.374
T3
X10.2827Y-4.6614
X10.3827Y-4.6614
X10.4827Y-4.6614
X10.5827Y-4.6614
X10.7677Y-4.6555
X10.7677Y-4.9114
T4
X10.1331Y-3.4264
X10.1331Y-3.5264
X10.1331Y-3.6264
X10.1331Y-3.7264
X10.1331Y-3.8264
X10.1331Y-3.9264
X10.1331Y-4.0264
X10.1331Y-4.1264
X10.1331Y-4.2264
X10.1331Y-4.3264
X10.1331Y-4.4264
X10.1331Y-4.5264
X10.7331Y-3.4264
X10.7331Y-3.5264
X10.7331Y-3.6264
X10.7331Y-3.7264
X10.7331Y-3.8264
X10.7331Y-3.9264
X10.7331Y-4.0264
X10.7331Y-4.1264
X10.7331Y-4.2264
X10.7331Y-4.3264
X10.7331Y-4.4264
X10.7331Y-4.5264
T5
X6.2795Y-4.0354
X6.2795Y-5.5315
X9.2717Y-4.0354
X9.2717Y-6.2795
T2
G00X10.3425Y-3.7205
M15
G01X10.3425Y-3.7441
M16
G05
G00X10.5236Y-3.4016
M15
G01X10.5236Y-3.4252
M16
G05
G00X10.5236Y-3.5197
M15
G01X10.5236Y-3.5433
M16
G05
G00X10.5236Y-3.6772
M15
G01X10.5236Y-3.7008
M16
G05
M30
