M48
; DRILL file {KiCad 8.0.8-8.0.8-0~ubuntu24.04.1} date 2025-01-29T12:45:40-0500
; FORMAT={-:-/ absolute / inch / decimal}
; #@! TF.CreationDate,2025-01-29T12:45:40-05:00
; #@! TF.GenerationSoftware,Kicad,Pcbnew,8.0.8-8.0.8-0~ubuntu24.04.1
; #@! TF.FileFunction,NonPlated,1,4,NPTH
FMAT,2
INCH
; #@! TA.AperFunction,NonPlated,NPTH,ComponentDrill
T1C0.0591
; #@! TA.AperFunction,NonPlated,NPTH,ComponentDrill
T2C0.0748
; #@! TA.AperFunction,NonPlated,NPTH,ComponentDrill
T3C0.1181
; #@! TA.AperFunction,NonPlated,NPTH,ComponentDrill
T4C0.1614
%
G90
G05
T1
X10.4331Y-3.3504
X10.4331Y-3.626
T2
X5.7055Y-3.6614
X5.7055Y-4.4094
X5.7055Y-5.1575
X5.7055Y-5.9055
X6.1055Y-3.6614
X6.1055Y-4.4094
X6.1055Y-5.1575
X6.1055Y-5.9055
X6.4535Y-3.6614
X6.4535Y-4.4094
X6.4535Y-5.1575
X6.4535Y-5.9055
X6.8535Y-3.6614
X6.8535Y-4.4094
X6.8535Y-5.1575
X6.8535Y-5.9055
X7.2016Y-3.6614
X7.2016Y-4.4094
X7.2016Y-5.1575
X7.2016Y-5.9055
X7.2016Y-6.6535
X7.6016Y-3.6614
X7.6016Y-4.4094
X7.6016Y-5.1575
X7.6016Y-5.9055
X7.6016Y-6.6535
X7.9496Y-3.6614
X7.9496Y-4.4094
X7.9496Y-5.1575
X7.9496Y-5.9055
X7.9496Y-6.6535
X8.3496Y-3.6614
X8.3496Y-4.4094
X8.3496Y-5.1575
X8.3496Y-5.9055
X8.3496Y-6.6535
X8.6976Y-3.6614
X8.6976Y-4.4094
X8.6976Y-5.1575
X8.6976Y-5.9055
X8.6976Y-6.6535
X9.0976Y-3.6614
X9.0976Y-4.4094
X9.0976Y-5.1575
X9.0976Y-5.9055
X9.0976Y-6.6535
X9.4457Y-3.6614
X9.4457Y-4.4094
X9.4457Y-5.1575
X9.4457Y-5.9055
X9.8Y-6.6535
X9.8457Y-3.6614
X9.8457Y-4.4094
X9.8457Y-5.1575
X9.8457Y-5.9055
X10.1937Y-5.1575
X10.1937Y-5.9055
X10.2Y-6.6535
X10.5937Y-5.1575
X10.5937Y-5.9055
T3
X5.7555Y-3.5614
X5.7555Y-4.3094
X5.7555Y-5.0575
X5.7555Y-5.8055
X6.0055Y-3.4614
X6.0055Y-4.2094
X6.0055Y-4.9575
X6.0055Y-5.7055
X6.5035Y-3.5614
X6.5035Y-4.3094
X6.5035Y-5.0575
X6.5035Y-5.8055
X6.7535Y-3.4614
X6.7535Y-4.2094
X6.7535Y-4.9575
X6.7535Y-5.7055
X7.2516Y-3.5614
X7.2516Y-4.3094
X7.2516Y-5.0575
X7.2516Y-5.8055
X7.2516Y-6.5535
X7.5016Y-3.4614
X7.5016Y-4.2094
X7.5016Y-4.9575
X7.5016Y-5.7055
X7.5016Y-6.4535
X7.9996Y-3.5614
X7.9996Y-4.3094
X7.9996Y-5.0575
X7.9996Y-5.8055
X7.9996Y-6.5535
X8.2496Y-3.4614
X8.2496Y-4.2094
X8.2496Y-4.9575
X8.2496Y-5.7055
X8.2496Y-6.4535
X8.7476Y-3.5614
X8.7476Y-4.3094
X8.7476Y-5.0575
X8.7476Y-5.8055
X8.7476Y-6.5535
X8.9976Y-3.4614
X8.9976Y-4.2094
X8.9976Y-4.9575
X8.9976Y-5.7055
X8.9976Y-6.4535
X9.4957Y-3.5614
X9.4957Y-4.3094
X9.4957Y-5.0575
X9.4957Y-5.8055
X9.7457Y-3.4614
X9.7457Y-4.2094
X9.7457Y-4.9575
X9.7457Y-5.7055
X9.85Y-6.5535
X10.1Y-6.4535
X10.2437Y-5.0575
X10.2437Y-5.8055
X10.4937Y-4.9575
X10.4937Y-5.7055
T4
X5.9055Y-3.6614
X5.9055Y-4.4094
X5.9055Y-5.1575
X5.9055Y-5.9055
X6.6535Y-3.6614
X6.6535Y-4.4094
X6.6535Y-5.1575
X6.6535Y-5.9055
X7.4016Y-3.6614
X7.4016Y-4.4094
X7.4016Y-5.1575
X7.4016Y-5.9055
X7.4016Y-6.6535
X8.1496Y-3.6614
X8.1496Y-4.4094
X8.1496Y-5.1575
X8.1496Y-5.9055
X8.1496Y-6.6535
X8.8976Y-3.6614
X8.8976Y-4.4094
X8.8976Y-5.1575
X8.8976Y-5.9055
X8.8976Y-6.6535
X9.6457Y-3.6614
X9.6457Y-4.4094
X9.6457Y-5.1575
X9.6457Y-5.9055
X10.0Y-6.6535
X10.3937Y-5.1575
X10.3937Y-5.9055
M30
