%TF.GenerationSoftware,KiCad,Pcbnew,8.0.8-8.0.8-0~ubuntu24.04.1*%
%TF.CreationDate,2025-01-29T12:56:02-05:00*%
%TF.ProjectId,nitsud,6e697473-7564-42e6-9b69-6361645f7063,v1.0.0*%
%TF.SameCoordinates,Original*%
%TF.FileFunction,Profile,NP*%
%FSLAX46Y46*%
G04 Gerber Fmt 4.6, Leading zero omitted, Abs format (unit mm)*
G04 Created by KiCad (PCBNEW 8.0.8-8.0.8-0~ubuntu24.04.1) date 2025-01-29 12:56:02*
%MOMM*%
%LPD*%
G01*
G04 APERTURE LIST*
%TA.AperFunction,Profile*%
%ADD10C,0.150000*%
%TD*%
%TA.AperFunction,Profile*%
%ADD11C,0.120000*%
%TD*%
G04 APERTURE END LIST*
D10*
X139500000Y-161500000D02*
G75*
G02*
X138500000Y-160500000I0J1000000D01*
G01*
X177500000Y-180500000D02*
X274504836Y-180500000D01*
X138500000Y-82500000D02*
G75*
G02*
X139500000Y-81500000I1000000J0D01*
G01*
X275504836Y-179499836D02*
G75*
G02*
X274504836Y-180500036I-1000036J-164D01*
G01*
X274500296Y-81500000D02*
X139500000Y-81500000D01*
X274500296Y-81500000D02*
G75*
G02*
X275500300Y-82500004I4J-1000000D01*
G01*
X275504836Y-179499836D02*
X275500296Y-82500004D01*
X138500000Y-82500000D02*
X138500000Y-160500000D01*
X176500000Y-162500000D02*
X176500000Y-179500000D01*
X177500000Y-180500000D02*
G75*
G02*
X176500000Y-179500000I0J1000000D01*
G01*
X175500000Y-161500000D02*
G75*
G02*
X176500000Y-162500000I0J-1000000D01*
G01*
X139500000Y-161500000D02*
X175500000Y-161500000D01*
%TO.C,LED27*%
D11*
X186200000Y-172450000D02*
X189800000Y-172450000D01*
X189800000Y-175550000D01*
X186200000Y-175550000D01*
X186200000Y-172450000D01*
%TO.C,LED15*%
X205200000Y-115450000D02*
X208800000Y-115450000D01*
X208800000Y-118550000D01*
X205200000Y-118550000D01*
X205200000Y-115450000D01*
%TO.C,LED26*%
X262200000Y-134450000D02*
X265800000Y-134450000D01*
X265800000Y-137550000D01*
X262200000Y-137550000D01*
X262200000Y-134450000D01*
%TO.C,LED16*%
X205200000Y-96450000D02*
X208800000Y-96450000D01*
X208800000Y-99550000D01*
X205200000Y-99550000D01*
X205200000Y-96450000D01*
%TO.C,LED10*%
X186200000Y-134450000D02*
X189800000Y-134450000D01*
X189800000Y-137550000D01*
X186200000Y-137550000D01*
X186200000Y-134450000D01*
%TO.C,LED20*%
X224200000Y-96450000D02*
X227800000Y-96450000D01*
X227800000Y-99550000D01*
X224200000Y-99550000D01*
X224200000Y-96450000D01*
%TO.C,LED2*%
X148200000Y-134450000D02*
X151800000Y-134450000D01*
X151800000Y-137550000D01*
X148200000Y-137550000D01*
X148200000Y-134450000D01*
%TO.C,LED13*%
X205200000Y-153450000D02*
X208800000Y-153450000D01*
X208800000Y-156550000D01*
X205200000Y-156550000D01*
X205200000Y-153450000D01*
%TO.C,LED6*%
X167200000Y-134450000D02*
X170800000Y-134450000D01*
X170800000Y-137550000D01*
X167200000Y-137550000D01*
X167200000Y-134450000D01*
%TO.C,LED18*%
X224200000Y-134450000D02*
X227800000Y-134450000D01*
X227800000Y-137550000D01*
X224200000Y-137550000D01*
X224200000Y-134450000D01*
%TO.C,LED5*%
X167200000Y-153450000D02*
X170800000Y-153450000D01*
X170800000Y-156550000D01*
X167200000Y-156550000D01*
X167200000Y-153450000D01*
%TO.C,LED21*%
X243200000Y-153450000D02*
X246800000Y-153450000D01*
X246800000Y-156550000D01*
X243200000Y-156550000D01*
X243200000Y-153450000D01*
%TO.C,LED3*%
X148200000Y-115450000D02*
X151800000Y-115450000D01*
X151800000Y-118550000D01*
X148200000Y-118550000D01*
X148200000Y-115450000D01*
%TO.C,LED24*%
X243200000Y-96450000D02*
X246800000Y-96450000D01*
X246800000Y-99550000D01*
X243200000Y-99550000D01*
X243200000Y-96450000D01*
%TO.C,LED1*%
X148200000Y-153450000D02*
X151800000Y-153450000D01*
X151800000Y-156550000D01*
X148200000Y-156550000D01*
X148200000Y-153450000D01*
%TO.C,LED4*%
X148200000Y-96450000D02*
X151800000Y-96450000D01*
X151800000Y-99550000D01*
X148200000Y-99550000D01*
X148200000Y-96450000D01*
%TO.C,LED29*%
X224200000Y-172450000D02*
X227800000Y-172450000D01*
X227800000Y-175550000D01*
X224200000Y-175550000D01*
X224200000Y-172450000D01*
%TO.C,LED25*%
X262200000Y-153450000D02*
X265800000Y-153450000D01*
X265800000Y-156550000D01*
X262200000Y-156550000D01*
X262200000Y-153450000D01*
%TO.C,LED8*%
X167200000Y-96450000D02*
X170800000Y-96450000D01*
X170800000Y-99550000D01*
X167200000Y-99550000D01*
X167200000Y-96450000D01*
%TO.C,LED22*%
X243200000Y-134450000D02*
X246800000Y-134450000D01*
X246800000Y-137550000D01*
X243200000Y-137550000D01*
X243200000Y-134450000D01*
%TO.C,LED14*%
X205200000Y-134450000D02*
X208800000Y-134450000D01*
X208800000Y-137550000D01*
X205200000Y-137550000D01*
X205200000Y-134450000D01*
%TO.C,LED23*%
X243200000Y-115450000D02*
X246800000Y-115450000D01*
X246800000Y-118550000D01*
X243200000Y-118550000D01*
X243200000Y-115450000D01*
%TO.C,LED28*%
X205200000Y-172450000D02*
X208800000Y-172450000D01*
X208800000Y-175550000D01*
X205200000Y-175550000D01*
X205200000Y-172450000D01*
%TO.C,LED30*%
X252200000Y-172450000D02*
X255800000Y-172450000D01*
X255800000Y-175550000D01*
X252200000Y-175550000D01*
X252200000Y-172450000D01*
%TO.C,LED17*%
X224200000Y-153450000D02*
X227800000Y-153450000D01*
X227800000Y-156550000D01*
X224200000Y-156550000D01*
X224200000Y-153450000D01*
%TO.C,LED19*%
X224200000Y-115450000D02*
X227800000Y-115450000D01*
X227800000Y-118550000D01*
X224200000Y-118550000D01*
X224200000Y-115450000D01*
%TO.C,LED9*%
X186200000Y-153450000D02*
X189800000Y-153450000D01*
X189800000Y-156550000D01*
X186200000Y-156550000D01*
X186200000Y-153450000D01*
%TO.C,LED12*%
X186200000Y-96450000D02*
X189800000Y-96450000D01*
X189800000Y-99550000D01*
X186200000Y-99550000D01*
X186200000Y-96450000D01*
%TO.C,LED7*%
X167200000Y-115450000D02*
X170800000Y-115450000D01*
X170800000Y-118550000D01*
X167200000Y-118550000D01*
X167200000Y-115450000D01*
%TO.C,LED11*%
X186200000Y-115450000D02*
X189800000Y-115450000D01*
X189800000Y-118550000D01*
X186200000Y-118550000D01*
X186200000Y-115450000D01*
%TD*%
M02*
