%TF.GenerationSoftware,KiCad,Pcbnew,8.0.8-8.0.8-0~ubuntu24.04.1*%
%TF.CreationDate,2025-01-29T12:56:02-05:00*%
%TF.ProjectId,nitsud,6e697473-7564-42e6-9b69-6361645f7063,v1.0.0*%
%TF.SameCoordinates,Original*%
%TF.FileFunction,Copper,L1,Top*%
%TF.FilePolarity,Positive*%
%FSLAX46Y46*%
G04 Gerber Fmt 4.6, Leading zero omitted, Abs format (unit mm)*
G04 Created by KiCad (PCBNEW 8.0.8-8.0.8-0~ubuntu24.04.1) date 2025-01-29 12:56:02*
%MOMM*%
%LPD*%
G01*
G04 APERTURE LIST*
%TA.AperFunction,ComponentPad*%
%ADD10R,1.752600X1.752600*%
%TD*%
%TA.AperFunction,ComponentPad*%
%ADD11C,1.752600*%
%TD*%
%TA.AperFunction,ComponentPad*%
%ADD12O,1.600000X2.200000*%
%TD*%
%TA.AperFunction,ComponentPad*%
%ADD13C,1.700000*%
%TD*%
%TA.AperFunction,ComponentPad*%
%ADD14C,3.800000*%
%TD*%
%TA.AperFunction,ComponentPad*%
%ADD15R,1.700000X1.700000*%
%TD*%
%TA.AperFunction,ComponentPad*%
%ADD16O,1.700000X1.700000*%
%TD*%
%TA.AperFunction,ViaPad*%
%ADD17C,0.800000*%
%TD*%
%TA.AperFunction,Conductor*%
%ADD18C,0.250000*%
%TD*%
G04 APERTURE END LIST*
D10*
%TO.P,MCU1,1*%
%TO.N,RAW*%
X257380000Y-87030000D03*
D11*
%TO.P,MCU1,2*%
%TO.N,GND*%
X257380000Y-89570000D03*
%TO.P,MCU1,3*%
%TO.N,RST*%
X257380000Y-92110000D03*
%TO.P,MCU1,4*%
%TO.N,VCC*%
X257380000Y-94650000D03*
%TO.P,MCU1,5*%
%TO.N,P21*%
X257380000Y-97190000D03*
%TO.P,MCU1,6*%
%TO.N,P20*%
X257380000Y-99730000D03*
%TO.P,MCU1,7*%
%TO.N,P19*%
X257380000Y-102270000D03*
%TO.P,MCU1,8*%
%TO.N,P18*%
X257380000Y-104810000D03*
%TO.P,MCU1,9*%
%TO.N,P15*%
X257380000Y-107350000D03*
%TO.P,MCU1,10*%
%TO.N,P14*%
X257380000Y-109890000D03*
%TO.P,MCU1,11*%
%TO.N,P16*%
X257380000Y-112430000D03*
%TO.P,MCU1,12*%
%TO.N,P10*%
X257380000Y-114970000D03*
%TO.P,MCU1,13*%
%TO.N,P1*%
X272620000Y-87030000D03*
%TO.P,MCU1,14*%
%TO.N,P0*%
X272620000Y-89570000D03*
%TO.P,MCU1,15*%
%TO.N,GND*%
X272620000Y-92110000D03*
%TO.P,MCU1,16*%
X272620000Y-94650000D03*
%TO.P,MCU1,17*%
%TO.N,P2*%
X272620000Y-97190000D03*
%TO.P,MCU1,18*%
%TO.N,P3*%
X272620000Y-99730000D03*
%TO.P,MCU1,19*%
%TO.N,P4*%
X272620000Y-102270000D03*
%TO.P,MCU1,20*%
%TO.N,P5*%
X272620000Y-104810000D03*
%TO.P,MCU1,21*%
%TO.N,P6*%
X272620000Y-107350000D03*
%TO.P,MCU1,22*%
%TO.N,P7*%
X272620000Y-109890000D03*
%TO.P,MCU1,23*%
%TO.N,P8*%
X272620000Y-112430000D03*
%TO.P,MCU1,24*%
%TO.N,P9*%
X272620000Y-114970000D03*
%TD*%
D12*
%TO.P,TRRS1,2*%
%TO.N,GND*%
X267300000Y-86700000D03*
%TO.P,TRRS1,3*%
%TO.N,P1*%
X267300000Y-89700000D03*
%TO.P,TRRS1,4*%
%TO.N,RAW*%
X267300000Y-93700000D03*
%TO.P,TRRS1,5*%
%TO.N,P0*%
X262700000Y-94800000D03*
%TD*%
D13*
%TO.P,RST1,1*%
%TO.N,RST*%
X273500000Y-124750000D03*
%TO.P,RST1,2*%
%TO.N,GND*%
X273500000Y-118250000D03*
%TD*%
D14*
%TO.P,H2,*%
%TO.N,*%
X159500000Y-140500000D03*
%TD*%
D15*
%TO.P,OLED1,1*%
%TO.N,GND*%
X268800000Y-118400000D03*
D16*
%TO.P,OLED1,2*%
%TO.N,VCC*%
X266260000Y-118400000D03*
%TO.P,OLED1,3*%
%TO.N,P9*%
X263720000Y-118400000D03*
%TO.P,OLED1,4*%
%TO.N,P8*%
X261180000Y-118400000D03*
%TD*%
D14*
%TO.P,H4,*%
%TO.N,*%
X235500000Y-159500000D03*
%TD*%
%TO.P,H1,*%
%TO.N,*%
X159500000Y-102500000D03*
%TD*%
%TO.P,H3,*%
%TO.N,*%
X235500000Y-102500000D03*
%TD*%
D17*
%TO.N,*%
X249500000Y-154500000D03*
X173500000Y-97500000D03*
X192500000Y-116500000D03*
X249500000Y-135500000D03*
X183500000Y-137000000D03*
X183000000Y-118000000D03*
X164500000Y-118000000D03*
X154500000Y-97500000D03*
X258500000Y-173500000D03*
X183500000Y-156000000D03*
X221500000Y-175000000D03*
X211500000Y-135500000D03*
X202500000Y-156000000D03*
X268500000Y-135500000D03*
X202500000Y-175000000D03*
X145500000Y-99000000D03*
X173500000Y-135500000D03*
X154500000Y-116500000D03*
X230500000Y-116500000D03*
X145500000Y-137000000D03*
X211500000Y-154500000D03*
X192500000Y-135500000D03*
X249500000Y-97500000D03*
X211500000Y-116500000D03*
X164500000Y-99000000D03*
X202000000Y-99000000D03*
X259500000Y-156000000D03*
X202500000Y-118000000D03*
X240500000Y-137000000D03*
X145500000Y-118000000D03*
X230500000Y-135500000D03*
X249500000Y-175000000D03*
X230500000Y-97500000D03*
X230500000Y-173500000D03*
X211500000Y-173500000D03*
X211500000Y-97500000D03*
X259500000Y-137000000D03*
X202000000Y-137000000D03*
X221000000Y-118000000D03*
X183000000Y-99000000D03*
X183000000Y-176000000D03*
X192500000Y-97500000D03*
X240500000Y-118000000D03*
X164500000Y-137000000D03*
X192500000Y-154500000D03*
X230500000Y-154500000D03*
X173500000Y-154500000D03*
X221500000Y-137000000D03*
X221000000Y-99000000D03*
X221500000Y-156000000D03*
X240500000Y-156000000D03*
X192500000Y-173500000D03*
X173500000Y-116500000D03*
X145500000Y-156000000D03*
X268500000Y-154500000D03*
X164500000Y-156000000D03*
X249500000Y-116500000D03*
X154500000Y-135500000D03*
X154500000Y-154500000D03*
%TO.N,GND*%
X240500000Y-97500000D03*
X221000000Y-116500000D03*
X221000000Y-173500000D03*
X221500000Y-97000000D03*
X202000000Y-173500000D03*
X164000000Y-116500000D03*
X259500000Y-135500000D03*
X248500000Y-173500000D03*
X145000000Y-135500000D03*
X183000000Y-154500000D03*
X183500000Y-97000000D03*
X202500000Y-154500000D03*
X145000000Y-154500000D03*
X221000000Y-154500000D03*
X145500000Y-116500000D03*
X164000000Y-154500000D03*
X240000000Y-135500000D03*
X202000000Y-135500000D03*
X183000000Y-116500000D03*
X221000000Y-135500000D03*
X240000000Y-154500000D03*
X145500000Y-97000000D03*
X202000000Y-116500000D03*
X240000000Y-116500000D03*
X260500000Y-89500000D03*
X164000000Y-135500000D03*
X259000000Y-154500000D03*
X183000000Y-173500000D03*
X202000000Y-97500000D03*
X183000000Y-135500000D03*
X164000000Y-97500000D03*
%TO.N,VCC*%
X172000000Y-119500000D03*
X153000000Y-100500000D03*
X153000000Y-157500000D03*
X191000000Y-157500000D03*
X153000000Y-138500000D03*
X257000000Y-176500000D03*
X248000000Y-138500000D03*
X229000000Y-176500000D03*
X229000000Y-157500000D03*
X248000000Y-100500000D03*
X153000000Y-119500000D03*
X210000000Y-176500000D03*
X210000000Y-138500000D03*
X191000000Y-138500000D03*
X248000000Y-157500000D03*
X248000000Y-119500000D03*
X191000000Y-176500000D03*
X210000000Y-119500000D03*
X267000000Y-138500000D03*
X191000000Y-100500000D03*
X172000000Y-157500000D03*
X229000000Y-119500000D03*
X191000000Y-119500000D03*
X172000000Y-138500000D03*
X172000000Y-100500000D03*
X210000000Y-100500000D03*
X267000000Y-157500000D03*
X229000000Y-138500000D03*
X210000000Y-157500000D03*
X229000000Y-100500000D03*
%TO.N,RST*%
X260500000Y-92000000D03*
%TO.N,P21*%
X143000000Y-87500000D03*
%TO.N,P20*%
X162000000Y-87500000D03*
%TO.N,P19*%
X181000000Y-87500000D03*
%TO.N,P18*%
X200000000Y-87500000D03*
%TO.N,P15*%
X219000000Y-87500000D03*
%TO.N,P14*%
X238000000Y-87500000D03*
%TO.N,P16*%
X257000000Y-125500000D03*
%TO.N,P10*%
X240000000Y-99000000D03*
%TO.N,P2*%
X163500000Y-96000000D03*
X182500000Y-96000000D03*
X236500000Y-96000000D03*
X201500000Y-96000000D03*
X220500000Y-95500000D03*
X239500000Y-96000000D03*
X218000000Y-95500000D03*
X160500000Y-96000000D03*
X198500000Y-96000000D03*
X179500000Y-96000000D03*
X251000000Y-98500000D03*
%TO.N,P3*%
X220500000Y-114500000D03*
X237000000Y-115000000D03*
X160500000Y-115000000D03*
X179500000Y-115000000D03*
X217500000Y-114500000D03*
X198500000Y-115000000D03*
X163500000Y-115000000D03*
X182500000Y-115000000D03*
X201500000Y-115000000D03*
X252500000Y-120000000D03*
X239500000Y-115000000D03*
%TO.N,P4*%
X220500000Y-134000000D03*
X217500000Y-134000000D03*
X273500000Y-136500000D03*
X239500000Y-134000000D03*
X182500000Y-134000000D03*
X160500000Y-134000000D03*
X179500000Y-134000000D03*
X201500000Y-134000000D03*
X258500000Y-134000000D03*
X198500000Y-134000000D03*
X163500000Y-134000000D03*
X255500000Y-134000000D03*
X236500000Y-134000000D03*
%TO.N,P5*%
X179500000Y-153000000D03*
X217500000Y-153000000D03*
X182500000Y-153000000D03*
X201500000Y-153000000D03*
X258500000Y-153000000D03*
X220500000Y-153000000D03*
X271500000Y-157500000D03*
X198500000Y-153000000D03*
X255500000Y-153000000D03*
%TO.N,P6*%
X261500000Y-176500000D03*
%TD*%
D18*
%TO.N,GND*%
X198500000Y-116500000D02*
X202000000Y-116500000D01*
X240000000Y-154500000D02*
X241250000Y-153250000D01*
X143595000Y-115905000D02*
X143595000Y-134095000D01*
X184250000Y-153250000D02*
X197250000Y-153250000D01*
X235500000Y-96250000D02*
X235724695Y-96250000D01*
X221000000Y-135500000D02*
X222250000Y-134250000D01*
X179000000Y-97000000D02*
X183500000Y-97000000D01*
X183000000Y-170953833D02*
X183000000Y-173500000D01*
X273500000Y-118250000D02*
X274500000Y-117250000D01*
X179974695Y-154500000D02*
X179974695Y-167928528D01*
X257380000Y-89570000D02*
X260430000Y-89570000D01*
X255974695Y-154500000D02*
X259000000Y-154500000D01*
X146250000Y-153250000D02*
X162750000Y-153250000D01*
X235724695Y-96250000D02*
X236974695Y-97500000D01*
X184250000Y-134250000D02*
X197250000Y-134250000D01*
X143595000Y-134095000D02*
X145000000Y-135500000D01*
X222250000Y-172250000D02*
X247250000Y-172250000D01*
X145000000Y-154500000D02*
X146250000Y-153250000D01*
X197250000Y-115250000D02*
X198500000Y-116500000D01*
X221000000Y-173500000D02*
X222250000Y-172250000D01*
X217500000Y-135500000D02*
X221000000Y-135500000D01*
X255500000Y-135500000D02*
X259500000Y-135500000D01*
X159250000Y-115250000D02*
X160500000Y-116500000D01*
X197474695Y-96000000D02*
X198974695Y-97500000D01*
X143595000Y-136905000D02*
X143595000Y-153095000D01*
X272620000Y-92110000D02*
X267300000Y-86790000D01*
X240000000Y-135500000D02*
X241250000Y-134250000D01*
X183000000Y-135500000D02*
X184250000Y-134250000D01*
X158974695Y-133500000D02*
X160974695Y-135500000D01*
X222250000Y-153250000D02*
X238750000Y-153250000D01*
X145000000Y-135500000D02*
X143595000Y-136905000D01*
X247250000Y-172250000D02*
X248500000Y-173500000D01*
X145500000Y-97000000D02*
X147000000Y-95500000D01*
X202000000Y-97500000D02*
X203275000Y-96225000D01*
X164000000Y-116500000D02*
X165250000Y-115250000D01*
X221500000Y-97000000D02*
X222250000Y-96250000D01*
X184250000Y-172250000D02*
X200750000Y-172250000D01*
X178250000Y-115250000D02*
X179500000Y-116500000D01*
X200750000Y-172250000D02*
X202000000Y-173500000D01*
X164000000Y-154500000D02*
X165500000Y-153000000D01*
X203250000Y-115250000D02*
X219750000Y-115250000D01*
X147000000Y-95500000D02*
X158974695Y-95500000D01*
X145500000Y-116500000D02*
X146750000Y-115250000D01*
X145500000Y-97000000D02*
X143595000Y-98905000D01*
X147000000Y-133500000D02*
X158974695Y-133500000D01*
X202000000Y-116500000D02*
X203250000Y-115250000D01*
X202500000Y-154500000D02*
X203750000Y-153250000D01*
X216250000Y-153250000D02*
X217500000Y-154500000D01*
X273500000Y-118250000D02*
X268950000Y-118250000D01*
X268950000Y-118250000D02*
X268800000Y-118400000D01*
X236974695Y-97500000D02*
X240500000Y-97500000D01*
X165250000Y-96250000D02*
X178250000Y-96250000D01*
X235500000Y-135500000D02*
X240000000Y-135500000D01*
X183500000Y-97000000D02*
X184500000Y-96000000D01*
X144250000Y-115250000D02*
X143595000Y-115905000D01*
X234250000Y-134250000D02*
X235500000Y-135500000D01*
X179000000Y-135500000D02*
X183000000Y-135500000D01*
X146750000Y-115250000D02*
X159250000Y-115250000D01*
X219750000Y-115250000D02*
X221000000Y-116500000D01*
X183000000Y-173500000D02*
X184250000Y-172250000D01*
X178250000Y-96250000D02*
X179000000Y-97000000D01*
X203275000Y-96225000D02*
X220725000Y-96225000D01*
X197250000Y-134250000D02*
X198500000Y-135500000D01*
X143595000Y-153095000D02*
X145000000Y-154500000D01*
X217500000Y-154500000D02*
X221000000Y-154500000D01*
X164000000Y-135500000D02*
X165250000Y-134250000D01*
X237474695Y-116500000D02*
X240000000Y-116500000D01*
X145000000Y-135500000D02*
X147000000Y-133500000D01*
X162750000Y-153250000D02*
X164000000Y-154500000D01*
X179974695Y-154500000D02*
X183000000Y-154500000D01*
X216250000Y-134250000D02*
X217500000Y-135500000D01*
X165250000Y-134250000D02*
X177750000Y-134250000D01*
X160974695Y-97500000D02*
X164000000Y-97500000D01*
X219750000Y-172250000D02*
X221000000Y-173500000D01*
X198974695Y-97500000D02*
X202000000Y-97500000D01*
X179974695Y-167928528D02*
X183000000Y-170953833D01*
X183000000Y-116500000D02*
X184250000Y-115250000D01*
X254250000Y-134250000D02*
X255500000Y-135500000D01*
X160500000Y-116500000D02*
X164000000Y-116500000D01*
X178474695Y-153000000D02*
X179974695Y-154500000D01*
X274500000Y-117250000D02*
X274500000Y-96530000D01*
X184250000Y-115250000D02*
X197250000Y-115250000D01*
X257380000Y-89570000D02*
X253810000Y-86000000D01*
X197250000Y-153250000D02*
X198500000Y-154500000D01*
X267300000Y-86790000D02*
X267300000Y-86700000D01*
X221000000Y-116500000D02*
X222500000Y-115000000D01*
X222500000Y-115000000D02*
X235974695Y-115000000D01*
X143595000Y-114595000D02*
X144250000Y-115250000D01*
X183000000Y-154500000D02*
X184250000Y-153250000D01*
X179500000Y-116500000D02*
X183000000Y-116500000D01*
X203750000Y-153250000D02*
X216250000Y-153250000D01*
X158974695Y-95500000D02*
X160974695Y-97500000D01*
X202000000Y-135500000D02*
X203250000Y-134250000D01*
X177750000Y-134250000D02*
X179000000Y-135500000D01*
X253810000Y-86000000D02*
X237000000Y-86000000D01*
X272620000Y-92110000D02*
X272620000Y-94650000D01*
X203250000Y-134250000D02*
X216250000Y-134250000D01*
X144250000Y-115250000D02*
X145500000Y-116500000D01*
X260430000Y-89570000D02*
X260500000Y-89500000D01*
X143595000Y-98905000D02*
X143595000Y-114595000D01*
X198500000Y-154500000D02*
X202500000Y-154500000D01*
X238750000Y-153250000D02*
X240000000Y-154500000D01*
X254724695Y-153250000D02*
X255974695Y-154500000D01*
X164000000Y-97500000D02*
X165250000Y-96250000D01*
X222250000Y-96250000D02*
X235500000Y-96250000D01*
X220725000Y-96225000D02*
X221500000Y-97000000D01*
X198500000Y-135500000D02*
X202000000Y-135500000D01*
X160974695Y-135500000D02*
X164000000Y-135500000D01*
X235500000Y-87500000D02*
X235500000Y-96250000D01*
X165500000Y-153000000D02*
X178474695Y-153000000D01*
X237000000Y-86000000D02*
X235500000Y-87500000D01*
X165250000Y-115250000D02*
X178250000Y-115250000D01*
X202000000Y-173500000D02*
X203250000Y-172250000D01*
X274500000Y-96530000D02*
X272620000Y-94650000D01*
X241250000Y-153250000D02*
X254724695Y-153250000D01*
X222250000Y-134250000D02*
X234250000Y-134250000D01*
X221000000Y-154500000D02*
X222250000Y-153250000D01*
X235974695Y-115000000D02*
X237474695Y-116500000D01*
X241250000Y-134250000D02*
X254250000Y-134250000D01*
X184500000Y-96000000D02*
X197474695Y-96000000D01*
X203250000Y-172250000D02*
X219750000Y-172250000D01*
%TO.N,VCC*%
X172000000Y-100500000D02*
X171500000Y-100500000D01*
X258214734Y-121785266D02*
X267000000Y-130570532D01*
X267000000Y-150000000D02*
X267000000Y-157500000D01*
X179000000Y-170525305D02*
X179000000Y-160500000D01*
X210000000Y-138500000D02*
X191000000Y-138500000D01*
X191000000Y-138500000D02*
X172000000Y-138500000D01*
X172000000Y-138500000D02*
X171775000Y-138275000D01*
X171500000Y-100500000D02*
X171275000Y-100275000D01*
X247775000Y-100275000D02*
X229225000Y-100275000D01*
X172000000Y-119500000D02*
X153000000Y-119500000D01*
X249000000Y-118500000D02*
X254929468Y-118500000D01*
X257000000Y-176500000D02*
X229000000Y-176500000D01*
X267000000Y-157500000D02*
X248000000Y-157500000D01*
X258214734Y-121785266D02*
X262874734Y-121785266D01*
X171775000Y-138275000D02*
X153225000Y-138275000D01*
X248000000Y-119500000D02*
X229000000Y-119500000D01*
X229000000Y-157500000D02*
X210000000Y-157500000D01*
X210000000Y-119500000D02*
X191000000Y-119500000D01*
X267000000Y-130570532D02*
X267000000Y-138500000D01*
X184974695Y-176500000D02*
X179000000Y-170525305D01*
X229000000Y-176500000D02*
X210000000Y-176500000D01*
X210000000Y-157500000D02*
X191000000Y-157500000D01*
X247775000Y-157275000D02*
X229225000Y-157275000D01*
X248000000Y-100500000D02*
X247775000Y-100275000D01*
X268415000Y-139915000D02*
X268415000Y-148585000D01*
X171275000Y-100275000D02*
X153225000Y-100275000D01*
X153225000Y-100275000D02*
X153000000Y-100500000D01*
X248000000Y-157500000D02*
X247775000Y-157275000D01*
X262874734Y-121785266D02*
X266260000Y-118400000D01*
X191000000Y-100500000D02*
X172000000Y-100500000D01*
X153225000Y-138275000D02*
X153000000Y-138500000D01*
X229225000Y-100275000D02*
X229000000Y-100500000D01*
X176000000Y-157500000D02*
X172000000Y-157500000D01*
X172000000Y-157500000D02*
X153000000Y-157500000D01*
X257380000Y-94650000D02*
X251530000Y-100500000D01*
X267000000Y-157500000D02*
X267000000Y-166500000D01*
X268415000Y-148585000D02*
X267000000Y-150000000D01*
X191000000Y-176500000D02*
X184974695Y-176500000D01*
X229000000Y-100500000D02*
X210000000Y-100500000D01*
X229000000Y-119500000D02*
X210000000Y-119500000D01*
X267000000Y-138500000D02*
X248000000Y-138500000D01*
X179000000Y-160500000D02*
X176000000Y-157500000D01*
X229000000Y-138500000D02*
X210000000Y-138500000D01*
X254929468Y-118500000D02*
X258214734Y-121785266D01*
X248000000Y-138500000D02*
X229000000Y-138500000D01*
X229225000Y-157275000D02*
X229000000Y-157500000D01*
X210000000Y-100500000D02*
X191000000Y-100500000D01*
X249000000Y-118500000D02*
X248000000Y-119500000D01*
X251530000Y-115970000D02*
X249000000Y-118500000D01*
X251530000Y-100500000D02*
X251530000Y-115970000D01*
X210000000Y-176500000D02*
X191000000Y-176500000D01*
X191000000Y-119500000D02*
X172000000Y-119500000D01*
X251530000Y-100500000D02*
X248000000Y-100500000D01*
X267000000Y-138500000D02*
X268415000Y-139915000D01*
X267000000Y-166500000D02*
X257000000Y-176500000D01*
%TO.N,RST*%
X260390000Y-92110000D02*
X260500000Y-92000000D01*
X257380000Y-92110000D02*
X260390000Y-92110000D01*
%TO.N,P1*%
X267300000Y-89700000D02*
X267300000Y-88800000D01*
X266000000Y-87500000D02*
X266000000Y-86000000D01*
X266000000Y-86000000D02*
X267000033Y-84999967D01*
X267300000Y-88800000D02*
X266000000Y-87500000D01*
X270589967Y-84999967D02*
X272620000Y-87030000D01*
X267000033Y-84999967D02*
X270589967Y-84999967D01*
%TO.N,P0*%
X273821300Y-86321300D02*
X271475000Y-83975000D01*
X273821300Y-88368700D02*
X273821300Y-86321300D01*
X271475000Y-83975000D02*
X264534010Y-83975000D01*
X272620000Y-89570000D02*
X273821300Y-88368700D01*
X262700000Y-85809010D02*
X262700000Y-94800000D01*
X264534010Y-83975000D02*
X262700000Y-85809010D01*
%TO.N,P2*%
X163500000Y-96000000D02*
X160500000Y-96000000D01*
X220500000Y-95500000D02*
X218000000Y-95500000D01*
X201500000Y-96000000D02*
X198500000Y-96000000D01*
X239500000Y-96000000D02*
X236500000Y-96000000D01*
X182500000Y-96000000D02*
X179500000Y-96000000D01*
%TO.N,P3*%
X220500000Y-114500000D02*
X217500000Y-114500000D01*
X182500000Y-115000000D02*
X179500000Y-115000000D01*
X239500000Y-115000000D02*
X237000000Y-115000000D01*
X201500000Y-115000000D02*
X198500000Y-115000000D01*
X163500000Y-115000000D02*
X160500000Y-115000000D01*
%TO.N,P4*%
X163500000Y-134000000D02*
X160500000Y-134000000D01*
X182500000Y-134000000D02*
X179500000Y-134000000D01*
X239500000Y-134000000D02*
X236500000Y-134000000D01*
X201500000Y-134000000D02*
X198500000Y-134000000D01*
X220500000Y-134000000D02*
X217500000Y-134000000D01*
X258500000Y-134000000D02*
X255500000Y-134000000D01*
%TO.N,P5*%
X220500000Y-153000000D02*
X217500000Y-153000000D01*
X258500000Y-153000000D02*
X255500000Y-153000000D01*
X201500000Y-153000000D02*
X198500000Y-153000000D01*
X182500000Y-153000000D02*
X179500000Y-153000000D01*
%TO.N,P8*%
X265580000Y-114000000D02*
X271050000Y-114000000D01*
X271050000Y-114000000D02*
X272620000Y-112430000D01*
X261180000Y-118400000D02*
X265580000Y-114000000D01*
%TO.N,P9*%
X267150000Y-114970000D02*
X272620000Y-114970000D01*
X263720000Y-118400000D02*
X267150000Y-114970000D01*
%TD*%
M02*
