%TF.GenerationSoftware,KiCad,Pcbnew,8.0.8*%
%TF.CreationDate,2025-01-31T06:20:13-05:00*%
%TF.ProjectId,nitsud,6e697473-7564-42e6-9b69-6361645f7063,v1.0.0*%
%TF.SameCoordinates,Original*%
%TF.FileFunction,Legend,Top*%
%TF.FilePolarity,Positive*%
%FSLAX46Y46*%
G04 Gerber Fmt 4.6, Leading zero omitted, Abs format (unit mm)*
G04 Created by KiCad (PCBNEW 8.0.8) date 2025-01-31 06:20:13*
%MOMM*%
%LPD*%
G01*
G04 APERTURE LIST*
%ADD10C,0.150000*%
%ADD11R,1.752600X1.752600*%
%ADD12C,1.752600*%
G04 APERTURE END LIST*
D10*
X259247618Y-96790390D02*
X259171428Y-96752295D01*
X259171428Y-96752295D02*
X259057142Y-96752295D01*
X259057142Y-96752295D02*
X258942856Y-96790390D01*
X258942856Y-96790390D02*
X258866666Y-96866580D01*
X258866666Y-96866580D02*
X258828571Y-96942771D01*
X258828571Y-96942771D02*
X258790475Y-97095152D01*
X258790475Y-97095152D02*
X258790475Y-97209438D01*
X258790475Y-97209438D02*
X258828571Y-97361819D01*
X258828571Y-97361819D02*
X258866666Y-97438009D01*
X258866666Y-97438009D02*
X258942856Y-97514200D01*
X258942856Y-97514200D02*
X259057142Y-97552295D01*
X259057142Y-97552295D02*
X259133333Y-97552295D01*
X259133333Y-97552295D02*
X259247618Y-97514200D01*
X259247618Y-97514200D02*
X259285714Y-97476104D01*
X259285714Y-97476104D02*
X259285714Y-97209438D01*
X259285714Y-97209438D02*
X259133333Y-97209438D01*
X259628571Y-97552295D02*
X259628571Y-96752295D01*
X259628571Y-96752295D02*
X259933333Y-96752295D01*
X259933333Y-96752295D02*
X260009523Y-96790390D01*
X260009523Y-96790390D02*
X260047618Y-96828485D01*
X260047618Y-96828485D02*
X260085714Y-96904676D01*
X260085714Y-96904676D02*
X260085714Y-97018961D01*
X260085714Y-97018961D02*
X260047618Y-97095152D01*
X260047618Y-97095152D02*
X260009523Y-97133247D01*
X260009523Y-97133247D02*
X259933333Y-97171342D01*
X259933333Y-97171342D02*
X259628571Y-97171342D01*
X260390475Y-96828485D02*
X260428571Y-96790390D01*
X260428571Y-96790390D02*
X260504761Y-96752295D01*
X260504761Y-96752295D02*
X260695237Y-96752295D01*
X260695237Y-96752295D02*
X260771428Y-96790390D01*
X260771428Y-96790390D02*
X260809523Y-96828485D01*
X260809523Y-96828485D02*
X260847618Y-96904676D01*
X260847618Y-96904676D02*
X260847618Y-96980866D01*
X260847618Y-96980866D02*
X260809523Y-97095152D01*
X260809523Y-97095152D02*
X260352380Y-97552295D01*
X260352380Y-97552295D02*
X260847618Y-97552295D01*
X261228571Y-97552295D02*
X261380952Y-97552295D01*
X261380952Y-97552295D02*
X261457142Y-97514200D01*
X261457142Y-97514200D02*
X261495238Y-97476104D01*
X261495238Y-97476104D02*
X261571428Y-97361819D01*
X261571428Y-97361819D02*
X261609523Y-97209438D01*
X261609523Y-97209438D02*
X261609523Y-96904676D01*
X261609523Y-96904676D02*
X261571428Y-96828485D01*
X261571428Y-96828485D02*
X261533333Y-96790390D01*
X261533333Y-96790390D02*
X261457142Y-96752295D01*
X261457142Y-96752295D02*
X261304761Y-96752295D01*
X261304761Y-96752295D02*
X261228571Y-96790390D01*
X261228571Y-96790390D02*
X261190476Y-96828485D01*
X261190476Y-96828485D02*
X261152380Y-96904676D01*
X261152380Y-96904676D02*
X261152380Y-97095152D01*
X261152380Y-97095152D02*
X261190476Y-97171342D01*
X261190476Y-97171342D02*
X261228571Y-97209438D01*
X261228571Y-97209438D02*
X261304761Y-97247533D01*
X261304761Y-97247533D02*
X261457142Y-97247533D01*
X261457142Y-97247533D02*
X261533333Y-97209438D01*
X261533333Y-97209438D02*
X261571428Y-97171342D01*
X261571428Y-97171342D02*
X261609523Y-97095152D01*
X269228571Y-96790390D02*
X269152381Y-96752295D01*
X269152381Y-96752295D02*
X269038095Y-96752295D01*
X269038095Y-96752295D02*
X268923809Y-96790390D01*
X268923809Y-96790390D02*
X268847619Y-96866580D01*
X268847619Y-96866580D02*
X268809524Y-96942771D01*
X268809524Y-96942771D02*
X268771428Y-97095152D01*
X268771428Y-97095152D02*
X268771428Y-97209438D01*
X268771428Y-97209438D02*
X268809524Y-97361819D01*
X268809524Y-97361819D02*
X268847619Y-97438009D01*
X268847619Y-97438009D02*
X268923809Y-97514200D01*
X268923809Y-97514200D02*
X269038095Y-97552295D01*
X269038095Y-97552295D02*
X269114286Y-97552295D01*
X269114286Y-97552295D02*
X269228571Y-97514200D01*
X269228571Y-97514200D02*
X269266667Y-97476104D01*
X269266667Y-97476104D02*
X269266667Y-97209438D01*
X269266667Y-97209438D02*
X269114286Y-97209438D01*
X269609524Y-97552295D02*
X269609524Y-96752295D01*
X269609524Y-96752295D02*
X269914286Y-96752295D01*
X269914286Y-96752295D02*
X269990476Y-96790390D01*
X269990476Y-96790390D02*
X270028571Y-96828485D01*
X270028571Y-96828485D02*
X270066667Y-96904676D01*
X270066667Y-96904676D02*
X270066667Y-97018961D01*
X270066667Y-97018961D02*
X270028571Y-97095152D01*
X270028571Y-97095152D02*
X269990476Y-97133247D01*
X269990476Y-97133247D02*
X269914286Y-97171342D01*
X269914286Y-97171342D02*
X269609524Y-97171342D01*
X270371428Y-96828485D02*
X270409524Y-96790390D01*
X270409524Y-96790390D02*
X270485714Y-96752295D01*
X270485714Y-96752295D02*
X270676190Y-96752295D01*
X270676190Y-96752295D02*
X270752381Y-96790390D01*
X270752381Y-96790390D02*
X270790476Y-96828485D01*
X270790476Y-96828485D02*
X270828571Y-96904676D01*
X270828571Y-96904676D02*
X270828571Y-96980866D01*
X270828571Y-96980866D02*
X270790476Y-97095152D01*
X270790476Y-97095152D02*
X270333333Y-97552295D01*
X270333333Y-97552295D02*
X270828571Y-97552295D01*
X269228571Y-109490390D02*
X269152381Y-109452295D01*
X269152381Y-109452295D02*
X269038095Y-109452295D01*
X269038095Y-109452295D02*
X268923809Y-109490390D01*
X268923809Y-109490390D02*
X268847619Y-109566580D01*
X268847619Y-109566580D02*
X268809524Y-109642771D01*
X268809524Y-109642771D02*
X268771428Y-109795152D01*
X268771428Y-109795152D02*
X268771428Y-109909438D01*
X268771428Y-109909438D02*
X268809524Y-110061819D01*
X268809524Y-110061819D02*
X268847619Y-110138009D01*
X268847619Y-110138009D02*
X268923809Y-110214200D01*
X268923809Y-110214200D02*
X269038095Y-110252295D01*
X269038095Y-110252295D02*
X269114286Y-110252295D01*
X269114286Y-110252295D02*
X269228571Y-110214200D01*
X269228571Y-110214200D02*
X269266667Y-110176104D01*
X269266667Y-110176104D02*
X269266667Y-109909438D01*
X269266667Y-109909438D02*
X269114286Y-109909438D01*
X269609524Y-110252295D02*
X269609524Y-109452295D01*
X269609524Y-109452295D02*
X269914286Y-109452295D01*
X269914286Y-109452295D02*
X269990476Y-109490390D01*
X269990476Y-109490390D02*
X270028571Y-109528485D01*
X270028571Y-109528485D02*
X270066667Y-109604676D01*
X270066667Y-109604676D02*
X270066667Y-109718961D01*
X270066667Y-109718961D02*
X270028571Y-109795152D01*
X270028571Y-109795152D02*
X269990476Y-109833247D01*
X269990476Y-109833247D02*
X269914286Y-109871342D01*
X269914286Y-109871342D02*
X269609524Y-109871342D01*
X270333333Y-109452295D02*
X270866667Y-109452295D01*
X270866667Y-109452295D02*
X270523809Y-110252295D01*
X269190476Y-91710390D02*
X269114286Y-91672295D01*
X269114286Y-91672295D02*
X269000000Y-91672295D01*
X269000000Y-91672295D02*
X268885714Y-91710390D01*
X268885714Y-91710390D02*
X268809524Y-91786580D01*
X268809524Y-91786580D02*
X268771429Y-91862771D01*
X268771429Y-91862771D02*
X268733333Y-92015152D01*
X268733333Y-92015152D02*
X268733333Y-92129438D01*
X268733333Y-92129438D02*
X268771429Y-92281819D01*
X268771429Y-92281819D02*
X268809524Y-92358009D01*
X268809524Y-92358009D02*
X268885714Y-92434200D01*
X268885714Y-92434200D02*
X269000000Y-92472295D01*
X269000000Y-92472295D02*
X269076191Y-92472295D01*
X269076191Y-92472295D02*
X269190476Y-92434200D01*
X269190476Y-92434200D02*
X269228572Y-92396104D01*
X269228572Y-92396104D02*
X269228572Y-92129438D01*
X269228572Y-92129438D02*
X269076191Y-92129438D01*
X269571429Y-92472295D02*
X269571429Y-91672295D01*
X269571429Y-91672295D02*
X270028572Y-92472295D01*
X270028572Y-92472295D02*
X270028572Y-91672295D01*
X270409524Y-92472295D02*
X270409524Y-91672295D01*
X270409524Y-91672295D02*
X270600000Y-91672295D01*
X270600000Y-91672295D02*
X270714286Y-91710390D01*
X270714286Y-91710390D02*
X270790476Y-91786580D01*
X270790476Y-91786580D02*
X270828571Y-91862771D01*
X270828571Y-91862771D02*
X270866667Y-92015152D01*
X270866667Y-92015152D02*
X270866667Y-92129438D01*
X270866667Y-92129438D02*
X270828571Y-92281819D01*
X270828571Y-92281819D02*
X270790476Y-92358009D01*
X270790476Y-92358009D02*
X270714286Y-92434200D01*
X270714286Y-92434200D02*
X270600000Y-92472295D01*
X270600000Y-92472295D02*
X270409524Y-92472295D01*
X269228571Y-99330390D02*
X269152381Y-99292295D01*
X269152381Y-99292295D02*
X269038095Y-99292295D01*
X269038095Y-99292295D02*
X268923809Y-99330390D01*
X268923809Y-99330390D02*
X268847619Y-99406580D01*
X268847619Y-99406580D02*
X268809524Y-99482771D01*
X268809524Y-99482771D02*
X268771428Y-99635152D01*
X268771428Y-99635152D02*
X268771428Y-99749438D01*
X268771428Y-99749438D02*
X268809524Y-99901819D01*
X268809524Y-99901819D02*
X268847619Y-99978009D01*
X268847619Y-99978009D02*
X268923809Y-100054200D01*
X268923809Y-100054200D02*
X269038095Y-100092295D01*
X269038095Y-100092295D02*
X269114286Y-100092295D01*
X269114286Y-100092295D02*
X269228571Y-100054200D01*
X269228571Y-100054200D02*
X269266667Y-100016104D01*
X269266667Y-100016104D02*
X269266667Y-99749438D01*
X269266667Y-99749438D02*
X269114286Y-99749438D01*
X269609524Y-100092295D02*
X269609524Y-99292295D01*
X269609524Y-99292295D02*
X269914286Y-99292295D01*
X269914286Y-99292295D02*
X269990476Y-99330390D01*
X269990476Y-99330390D02*
X270028571Y-99368485D01*
X270028571Y-99368485D02*
X270066667Y-99444676D01*
X270066667Y-99444676D02*
X270066667Y-99558961D01*
X270066667Y-99558961D02*
X270028571Y-99635152D01*
X270028571Y-99635152D02*
X269990476Y-99673247D01*
X269990476Y-99673247D02*
X269914286Y-99711342D01*
X269914286Y-99711342D02*
X269609524Y-99711342D01*
X270333333Y-99292295D02*
X270828571Y-99292295D01*
X270828571Y-99292295D02*
X270561905Y-99597057D01*
X270561905Y-99597057D02*
X270676190Y-99597057D01*
X270676190Y-99597057D02*
X270752381Y-99635152D01*
X270752381Y-99635152D02*
X270790476Y-99673247D01*
X270790476Y-99673247D02*
X270828571Y-99749438D01*
X270828571Y-99749438D02*
X270828571Y-99939914D01*
X270828571Y-99939914D02*
X270790476Y-100016104D01*
X270790476Y-100016104D02*
X270752381Y-100054200D01*
X270752381Y-100054200D02*
X270676190Y-100092295D01*
X270676190Y-100092295D02*
X270447619Y-100092295D01*
X270447619Y-100092295D02*
X270371428Y-100054200D01*
X270371428Y-100054200D02*
X270333333Y-100016104D01*
X269228571Y-89170390D02*
X269152381Y-89132295D01*
X269152381Y-89132295D02*
X269038095Y-89132295D01*
X269038095Y-89132295D02*
X268923809Y-89170390D01*
X268923809Y-89170390D02*
X268847619Y-89246580D01*
X268847619Y-89246580D02*
X268809524Y-89322771D01*
X268809524Y-89322771D02*
X268771428Y-89475152D01*
X268771428Y-89475152D02*
X268771428Y-89589438D01*
X268771428Y-89589438D02*
X268809524Y-89741819D01*
X268809524Y-89741819D02*
X268847619Y-89818009D01*
X268847619Y-89818009D02*
X268923809Y-89894200D01*
X268923809Y-89894200D02*
X269038095Y-89932295D01*
X269038095Y-89932295D02*
X269114286Y-89932295D01*
X269114286Y-89932295D02*
X269228571Y-89894200D01*
X269228571Y-89894200D02*
X269266667Y-89856104D01*
X269266667Y-89856104D02*
X269266667Y-89589438D01*
X269266667Y-89589438D02*
X269114286Y-89589438D01*
X269609524Y-89932295D02*
X269609524Y-89132295D01*
X269609524Y-89132295D02*
X269914286Y-89132295D01*
X269914286Y-89132295D02*
X269990476Y-89170390D01*
X269990476Y-89170390D02*
X270028571Y-89208485D01*
X270028571Y-89208485D02*
X270066667Y-89284676D01*
X270066667Y-89284676D02*
X270066667Y-89398961D01*
X270066667Y-89398961D02*
X270028571Y-89475152D01*
X270028571Y-89475152D02*
X269990476Y-89513247D01*
X269990476Y-89513247D02*
X269914286Y-89551342D01*
X269914286Y-89551342D02*
X269609524Y-89551342D01*
X270828571Y-89932295D02*
X270371428Y-89932295D01*
X270600000Y-89932295D02*
X270600000Y-89132295D01*
X270600000Y-89132295D02*
X270523809Y-89246580D01*
X270523809Y-89246580D02*
X270447619Y-89322771D01*
X270447619Y-89322771D02*
X270371428Y-89360866D01*
X269228571Y-114570390D02*
X269152381Y-114532295D01*
X269152381Y-114532295D02*
X269038095Y-114532295D01*
X269038095Y-114532295D02*
X268923809Y-114570390D01*
X268923809Y-114570390D02*
X268847619Y-114646580D01*
X268847619Y-114646580D02*
X268809524Y-114722771D01*
X268809524Y-114722771D02*
X268771428Y-114875152D01*
X268771428Y-114875152D02*
X268771428Y-114989438D01*
X268771428Y-114989438D02*
X268809524Y-115141819D01*
X268809524Y-115141819D02*
X268847619Y-115218009D01*
X268847619Y-115218009D02*
X268923809Y-115294200D01*
X268923809Y-115294200D02*
X269038095Y-115332295D01*
X269038095Y-115332295D02*
X269114286Y-115332295D01*
X269114286Y-115332295D02*
X269228571Y-115294200D01*
X269228571Y-115294200D02*
X269266667Y-115256104D01*
X269266667Y-115256104D02*
X269266667Y-114989438D01*
X269266667Y-114989438D02*
X269114286Y-114989438D01*
X269609524Y-115332295D02*
X269609524Y-114532295D01*
X269609524Y-114532295D02*
X269914286Y-114532295D01*
X269914286Y-114532295D02*
X269990476Y-114570390D01*
X269990476Y-114570390D02*
X270028571Y-114608485D01*
X270028571Y-114608485D02*
X270066667Y-114684676D01*
X270066667Y-114684676D02*
X270066667Y-114798961D01*
X270066667Y-114798961D02*
X270028571Y-114875152D01*
X270028571Y-114875152D02*
X269990476Y-114913247D01*
X269990476Y-114913247D02*
X269914286Y-114951342D01*
X269914286Y-114951342D02*
X269609524Y-114951342D01*
X270447619Y-115332295D02*
X270600000Y-115332295D01*
X270600000Y-115332295D02*
X270676190Y-115294200D01*
X270676190Y-115294200D02*
X270714286Y-115256104D01*
X270714286Y-115256104D02*
X270790476Y-115141819D01*
X270790476Y-115141819D02*
X270828571Y-114989438D01*
X270828571Y-114989438D02*
X270828571Y-114684676D01*
X270828571Y-114684676D02*
X270790476Y-114608485D01*
X270790476Y-114608485D02*
X270752381Y-114570390D01*
X270752381Y-114570390D02*
X270676190Y-114532295D01*
X270676190Y-114532295D02*
X270523809Y-114532295D01*
X270523809Y-114532295D02*
X270447619Y-114570390D01*
X270447619Y-114570390D02*
X270409524Y-114608485D01*
X270409524Y-114608485D02*
X270371428Y-114684676D01*
X270371428Y-114684676D02*
X270371428Y-114875152D01*
X270371428Y-114875152D02*
X270409524Y-114951342D01*
X270409524Y-114951342D02*
X270447619Y-114989438D01*
X270447619Y-114989438D02*
X270523809Y-115027533D01*
X270523809Y-115027533D02*
X270676190Y-115027533D01*
X270676190Y-115027533D02*
X270752381Y-114989438D01*
X270752381Y-114989438D02*
X270790476Y-114951342D01*
X270790476Y-114951342D02*
X270828571Y-114875152D01*
X269228571Y-86630390D02*
X269152381Y-86592295D01*
X269152381Y-86592295D02*
X269038095Y-86592295D01*
X269038095Y-86592295D02*
X268923809Y-86630390D01*
X268923809Y-86630390D02*
X268847619Y-86706580D01*
X268847619Y-86706580D02*
X268809524Y-86782771D01*
X268809524Y-86782771D02*
X268771428Y-86935152D01*
X268771428Y-86935152D02*
X268771428Y-87049438D01*
X268771428Y-87049438D02*
X268809524Y-87201819D01*
X268809524Y-87201819D02*
X268847619Y-87278009D01*
X268847619Y-87278009D02*
X268923809Y-87354200D01*
X268923809Y-87354200D02*
X269038095Y-87392295D01*
X269038095Y-87392295D02*
X269114286Y-87392295D01*
X269114286Y-87392295D02*
X269228571Y-87354200D01*
X269228571Y-87354200D02*
X269266667Y-87316104D01*
X269266667Y-87316104D02*
X269266667Y-87049438D01*
X269266667Y-87049438D02*
X269114286Y-87049438D01*
X269609524Y-87392295D02*
X269609524Y-86592295D01*
X269609524Y-86592295D02*
X269914286Y-86592295D01*
X269914286Y-86592295D02*
X269990476Y-86630390D01*
X269990476Y-86630390D02*
X270028571Y-86668485D01*
X270028571Y-86668485D02*
X270066667Y-86744676D01*
X270066667Y-86744676D02*
X270066667Y-86858961D01*
X270066667Y-86858961D02*
X270028571Y-86935152D01*
X270028571Y-86935152D02*
X269990476Y-86973247D01*
X269990476Y-86973247D02*
X269914286Y-87011342D01*
X269914286Y-87011342D02*
X269609524Y-87011342D01*
X270561905Y-86592295D02*
X270638095Y-86592295D01*
X270638095Y-86592295D02*
X270714286Y-86630390D01*
X270714286Y-86630390D02*
X270752381Y-86668485D01*
X270752381Y-86668485D02*
X270790476Y-86744676D01*
X270790476Y-86744676D02*
X270828571Y-86897057D01*
X270828571Y-86897057D02*
X270828571Y-87087533D01*
X270828571Y-87087533D02*
X270790476Y-87239914D01*
X270790476Y-87239914D02*
X270752381Y-87316104D01*
X270752381Y-87316104D02*
X270714286Y-87354200D01*
X270714286Y-87354200D02*
X270638095Y-87392295D01*
X270638095Y-87392295D02*
X270561905Y-87392295D01*
X270561905Y-87392295D02*
X270485714Y-87354200D01*
X270485714Y-87354200D02*
X270447619Y-87316104D01*
X270447619Y-87316104D02*
X270409524Y-87239914D01*
X270409524Y-87239914D02*
X270371428Y-87087533D01*
X270371428Y-87087533D02*
X270371428Y-86897057D01*
X270371428Y-86897057D02*
X270409524Y-86744676D01*
X270409524Y-86744676D02*
X270447619Y-86668485D01*
X270447619Y-86668485D02*
X270485714Y-86630390D01*
X270485714Y-86630390D02*
X270561905Y-86592295D01*
X269228571Y-104410390D02*
X269152381Y-104372295D01*
X269152381Y-104372295D02*
X269038095Y-104372295D01*
X269038095Y-104372295D02*
X268923809Y-104410390D01*
X268923809Y-104410390D02*
X268847619Y-104486580D01*
X268847619Y-104486580D02*
X268809524Y-104562771D01*
X268809524Y-104562771D02*
X268771428Y-104715152D01*
X268771428Y-104715152D02*
X268771428Y-104829438D01*
X268771428Y-104829438D02*
X268809524Y-104981819D01*
X268809524Y-104981819D02*
X268847619Y-105058009D01*
X268847619Y-105058009D02*
X268923809Y-105134200D01*
X268923809Y-105134200D02*
X269038095Y-105172295D01*
X269038095Y-105172295D02*
X269114286Y-105172295D01*
X269114286Y-105172295D02*
X269228571Y-105134200D01*
X269228571Y-105134200D02*
X269266667Y-105096104D01*
X269266667Y-105096104D02*
X269266667Y-104829438D01*
X269266667Y-104829438D02*
X269114286Y-104829438D01*
X269609524Y-105172295D02*
X269609524Y-104372295D01*
X269609524Y-104372295D02*
X269914286Y-104372295D01*
X269914286Y-104372295D02*
X269990476Y-104410390D01*
X269990476Y-104410390D02*
X270028571Y-104448485D01*
X270028571Y-104448485D02*
X270066667Y-104524676D01*
X270066667Y-104524676D02*
X270066667Y-104638961D01*
X270066667Y-104638961D02*
X270028571Y-104715152D01*
X270028571Y-104715152D02*
X269990476Y-104753247D01*
X269990476Y-104753247D02*
X269914286Y-104791342D01*
X269914286Y-104791342D02*
X269609524Y-104791342D01*
X270790476Y-104372295D02*
X270409524Y-104372295D01*
X270409524Y-104372295D02*
X270371428Y-104753247D01*
X270371428Y-104753247D02*
X270409524Y-104715152D01*
X270409524Y-104715152D02*
X270485714Y-104677057D01*
X270485714Y-104677057D02*
X270676190Y-104677057D01*
X270676190Y-104677057D02*
X270752381Y-104715152D01*
X270752381Y-104715152D02*
X270790476Y-104753247D01*
X270790476Y-104753247D02*
X270828571Y-104829438D01*
X270828571Y-104829438D02*
X270828571Y-105019914D01*
X270828571Y-105019914D02*
X270790476Y-105096104D01*
X270790476Y-105096104D02*
X270752381Y-105134200D01*
X270752381Y-105134200D02*
X270676190Y-105172295D01*
X270676190Y-105172295D02*
X270485714Y-105172295D01*
X270485714Y-105172295D02*
X270409524Y-105134200D01*
X270409524Y-105134200D02*
X270371428Y-105096104D01*
X269228571Y-101870390D02*
X269152381Y-101832295D01*
X269152381Y-101832295D02*
X269038095Y-101832295D01*
X269038095Y-101832295D02*
X268923809Y-101870390D01*
X268923809Y-101870390D02*
X268847619Y-101946580D01*
X268847619Y-101946580D02*
X268809524Y-102022771D01*
X268809524Y-102022771D02*
X268771428Y-102175152D01*
X268771428Y-102175152D02*
X268771428Y-102289438D01*
X268771428Y-102289438D02*
X268809524Y-102441819D01*
X268809524Y-102441819D02*
X268847619Y-102518009D01*
X268847619Y-102518009D02*
X268923809Y-102594200D01*
X268923809Y-102594200D02*
X269038095Y-102632295D01*
X269038095Y-102632295D02*
X269114286Y-102632295D01*
X269114286Y-102632295D02*
X269228571Y-102594200D01*
X269228571Y-102594200D02*
X269266667Y-102556104D01*
X269266667Y-102556104D02*
X269266667Y-102289438D01*
X269266667Y-102289438D02*
X269114286Y-102289438D01*
X269609524Y-102632295D02*
X269609524Y-101832295D01*
X269609524Y-101832295D02*
X269914286Y-101832295D01*
X269914286Y-101832295D02*
X269990476Y-101870390D01*
X269990476Y-101870390D02*
X270028571Y-101908485D01*
X270028571Y-101908485D02*
X270066667Y-101984676D01*
X270066667Y-101984676D02*
X270066667Y-102098961D01*
X270066667Y-102098961D02*
X270028571Y-102175152D01*
X270028571Y-102175152D02*
X269990476Y-102213247D01*
X269990476Y-102213247D02*
X269914286Y-102251342D01*
X269914286Y-102251342D02*
X269609524Y-102251342D01*
X270752381Y-102098961D02*
X270752381Y-102632295D01*
X270561905Y-101794200D02*
X270371428Y-102365628D01*
X270371428Y-102365628D02*
X270866667Y-102365628D01*
X259247618Y-106950390D02*
X259171428Y-106912295D01*
X259171428Y-106912295D02*
X259057142Y-106912295D01*
X259057142Y-106912295D02*
X258942856Y-106950390D01*
X258942856Y-106950390D02*
X258866666Y-107026580D01*
X258866666Y-107026580D02*
X258828571Y-107102771D01*
X258828571Y-107102771D02*
X258790475Y-107255152D01*
X258790475Y-107255152D02*
X258790475Y-107369438D01*
X258790475Y-107369438D02*
X258828571Y-107521819D01*
X258828571Y-107521819D02*
X258866666Y-107598009D01*
X258866666Y-107598009D02*
X258942856Y-107674200D01*
X258942856Y-107674200D02*
X259057142Y-107712295D01*
X259057142Y-107712295D02*
X259133333Y-107712295D01*
X259133333Y-107712295D02*
X259247618Y-107674200D01*
X259247618Y-107674200D02*
X259285714Y-107636104D01*
X259285714Y-107636104D02*
X259285714Y-107369438D01*
X259285714Y-107369438D02*
X259133333Y-107369438D01*
X259628571Y-107712295D02*
X259628571Y-106912295D01*
X259628571Y-106912295D02*
X259933333Y-106912295D01*
X259933333Y-106912295D02*
X260009523Y-106950390D01*
X260009523Y-106950390D02*
X260047618Y-106988485D01*
X260047618Y-106988485D02*
X260085714Y-107064676D01*
X260085714Y-107064676D02*
X260085714Y-107178961D01*
X260085714Y-107178961D02*
X260047618Y-107255152D01*
X260047618Y-107255152D02*
X260009523Y-107293247D01*
X260009523Y-107293247D02*
X259933333Y-107331342D01*
X259933333Y-107331342D02*
X259628571Y-107331342D01*
X260390475Y-106988485D02*
X260428571Y-106950390D01*
X260428571Y-106950390D02*
X260504761Y-106912295D01*
X260504761Y-106912295D02*
X260695237Y-106912295D01*
X260695237Y-106912295D02*
X260771428Y-106950390D01*
X260771428Y-106950390D02*
X260809523Y-106988485D01*
X260809523Y-106988485D02*
X260847618Y-107064676D01*
X260847618Y-107064676D02*
X260847618Y-107140866D01*
X260847618Y-107140866D02*
X260809523Y-107255152D01*
X260809523Y-107255152D02*
X260352380Y-107712295D01*
X260352380Y-107712295D02*
X260847618Y-107712295D01*
X261152380Y-106988485D02*
X261190476Y-106950390D01*
X261190476Y-106950390D02*
X261266666Y-106912295D01*
X261266666Y-106912295D02*
X261457142Y-106912295D01*
X261457142Y-106912295D02*
X261533333Y-106950390D01*
X261533333Y-106950390D02*
X261571428Y-106988485D01*
X261571428Y-106988485D02*
X261609523Y-107064676D01*
X261609523Y-107064676D02*
X261609523Y-107140866D01*
X261609523Y-107140866D02*
X261571428Y-107255152D01*
X261571428Y-107255152D02*
X261114285Y-107712295D01*
X261114285Y-107712295D02*
X261609523Y-107712295D01*
X259247618Y-112030390D02*
X259171428Y-111992295D01*
X259171428Y-111992295D02*
X259057142Y-111992295D01*
X259057142Y-111992295D02*
X258942856Y-112030390D01*
X258942856Y-112030390D02*
X258866666Y-112106580D01*
X258866666Y-112106580D02*
X258828571Y-112182771D01*
X258828571Y-112182771D02*
X258790475Y-112335152D01*
X258790475Y-112335152D02*
X258790475Y-112449438D01*
X258790475Y-112449438D02*
X258828571Y-112601819D01*
X258828571Y-112601819D02*
X258866666Y-112678009D01*
X258866666Y-112678009D02*
X258942856Y-112754200D01*
X258942856Y-112754200D02*
X259057142Y-112792295D01*
X259057142Y-112792295D02*
X259133333Y-112792295D01*
X259133333Y-112792295D02*
X259247618Y-112754200D01*
X259247618Y-112754200D02*
X259285714Y-112716104D01*
X259285714Y-112716104D02*
X259285714Y-112449438D01*
X259285714Y-112449438D02*
X259133333Y-112449438D01*
X259628571Y-112792295D02*
X259628571Y-111992295D01*
X259628571Y-111992295D02*
X259933333Y-111992295D01*
X259933333Y-111992295D02*
X260009523Y-112030390D01*
X260009523Y-112030390D02*
X260047618Y-112068485D01*
X260047618Y-112068485D02*
X260085714Y-112144676D01*
X260085714Y-112144676D02*
X260085714Y-112258961D01*
X260085714Y-112258961D02*
X260047618Y-112335152D01*
X260047618Y-112335152D02*
X260009523Y-112373247D01*
X260009523Y-112373247D02*
X259933333Y-112411342D01*
X259933333Y-112411342D02*
X259628571Y-112411342D01*
X260390475Y-112068485D02*
X260428571Y-112030390D01*
X260428571Y-112030390D02*
X260504761Y-111992295D01*
X260504761Y-111992295D02*
X260695237Y-111992295D01*
X260695237Y-111992295D02*
X260771428Y-112030390D01*
X260771428Y-112030390D02*
X260809523Y-112068485D01*
X260809523Y-112068485D02*
X260847618Y-112144676D01*
X260847618Y-112144676D02*
X260847618Y-112220866D01*
X260847618Y-112220866D02*
X260809523Y-112335152D01*
X260809523Y-112335152D02*
X260352380Y-112792295D01*
X260352380Y-112792295D02*
X260847618Y-112792295D01*
X261114285Y-111992295D02*
X261609523Y-111992295D01*
X261609523Y-111992295D02*
X261342857Y-112297057D01*
X261342857Y-112297057D02*
X261457142Y-112297057D01*
X261457142Y-112297057D02*
X261533333Y-112335152D01*
X261533333Y-112335152D02*
X261571428Y-112373247D01*
X261571428Y-112373247D02*
X261609523Y-112449438D01*
X261609523Y-112449438D02*
X261609523Y-112639914D01*
X261609523Y-112639914D02*
X261571428Y-112716104D01*
X261571428Y-112716104D02*
X261533333Y-112754200D01*
X261533333Y-112754200D02*
X261457142Y-112792295D01*
X261457142Y-112792295D02*
X261228571Y-112792295D01*
X261228571Y-112792295D02*
X261152380Y-112754200D01*
X261152380Y-112754200D02*
X261114285Y-112716104D01*
X259247618Y-99330390D02*
X259171428Y-99292295D01*
X259171428Y-99292295D02*
X259057142Y-99292295D01*
X259057142Y-99292295D02*
X258942856Y-99330390D01*
X258942856Y-99330390D02*
X258866666Y-99406580D01*
X258866666Y-99406580D02*
X258828571Y-99482771D01*
X258828571Y-99482771D02*
X258790475Y-99635152D01*
X258790475Y-99635152D02*
X258790475Y-99749438D01*
X258790475Y-99749438D02*
X258828571Y-99901819D01*
X258828571Y-99901819D02*
X258866666Y-99978009D01*
X258866666Y-99978009D02*
X258942856Y-100054200D01*
X258942856Y-100054200D02*
X259057142Y-100092295D01*
X259057142Y-100092295D02*
X259133333Y-100092295D01*
X259133333Y-100092295D02*
X259247618Y-100054200D01*
X259247618Y-100054200D02*
X259285714Y-100016104D01*
X259285714Y-100016104D02*
X259285714Y-99749438D01*
X259285714Y-99749438D02*
X259133333Y-99749438D01*
X259628571Y-100092295D02*
X259628571Y-99292295D01*
X259628571Y-99292295D02*
X259933333Y-99292295D01*
X259933333Y-99292295D02*
X260009523Y-99330390D01*
X260009523Y-99330390D02*
X260047618Y-99368485D01*
X260047618Y-99368485D02*
X260085714Y-99444676D01*
X260085714Y-99444676D02*
X260085714Y-99558961D01*
X260085714Y-99558961D02*
X260047618Y-99635152D01*
X260047618Y-99635152D02*
X260009523Y-99673247D01*
X260009523Y-99673247D02*
X259933333Y-99711342D01*
X259933333Y-99711342D02*
X259628571Y-99711342D01*
X260390475Y-99368485D02*
X260428571Y-99330390D01*
X260428571Y-99330390D02*
X260504761Y-99292295D01*
X260504761Y-99292295D02*
X260695237Y-99292295D01*
X260695237Y-99292295D02*
X260771428Y-99330390D01*
X260771428Y-99330390D02*
X260809523Y-99368485D01*
X260809523Y-99368485D02*
X260847618Y-99444676D01*
X260847618Y-99444676D02*
X260847618Y-99520866D01*
X260847618Y-99520866D02*
X260809523Y-99635152D01*
X260809523Y-99635152D02*
X260352380Y-100092295D01*
X260352380Y-100092295D02*
X260847618Y-100092295D01*
X261304761Y-99635152D02*
X261228571Y-99597057D01*
X261228571Y-99597057D02*
X261190476Y-99558961D01*
X261190476Y-99558961D02*
X261152380Y-99482771D01*
X261152380Y-99482771D02*
X261152380Y-99444676D01*
X261152380Y-99444676D02*
X261190476Y-99368485D01*
X261190476Y-99368485D02*
X261228571Y-99330390D01*
X261228571Y-99330390D02*
X261304761Y-99292295D01*
X261304761Y-99292295D02*
X261457142Y-99292295D01*
X261457142Y-99292295D02*
X261533333Y-99330390D01*
X261533333Y-99330390D02*
X261571428Y-99368485D01*
X261571428Y-99368485D02*
X261609523Y-99444676D01*
X261609523Y-99444676D02*
X261609523Y-99482771D01*
X261609523Y-99482771D02*
X261571428Y-99558961D01*
X261571428Y-99558961D02*
X261533333Y-99597057D01*
X261533333Y-99597057D02*
X261457142Y-99635152D01*
X261457142Y-99635152D02*
X261304761Y-99635152D01*
X261304761Y-99635152D02*
X261228571Y-99673247D01*
X261228571Y-99673247D02*
X261190476Y-99711342D01*
X261190476Y-99711342D02*
X261152380Y-99787533D01*
X261152380Y-99787533D02*
X261152380Y-99939914D01*
X261152380Y-99939914D02*
X261190476Y-100016104D01*
X261190476Y-100016104D02*
X261228571Y-100054200D01*
X261228571Y-100054200D02*
X261304761Y-100092295D01*
X261304761Y-100092295D02*
X261457142Y-100092295D01*
X261457142Y-100092295D02*
X261533333Y-100054200D01*
X261533333Y-100054200D02*
X261571428Y-100016104D01*
X261571428Y-100016104D02*
X261609523Y-99939914D01*
X261609523Y-99939914D02*
X261609523Y-99787533D01*
X261609523Y-99787533D02*
X261571428Y-99711342D01*
X261571428Y-99711342D02*
X261533333Y-99673247D01*
X261533333Y-99673247D02*
X261457142Y-99635152D01*
X269228571Y-106950390D02*
X269152381Y-106912295D01*
X269152381Y-106912295D02*
X269038095Y-106912295D01*
X269038095Y-106912295D02*
X268923809Y-106950390D01*
X268923809Y-106950390D02*
X268847619Y-107026580D01*
X268847619Y-107026580D02*
X268809524Y-107102771D01*
X268809524Y-107102771D02*
X268771428Y-107255152D01*
X268771428Y-107255152D02*
X268771428Y-107369438D01*
X268771428Y-107369438D02*
X268809524Y-107521819D01*
X268809524Y-107521819D02*
X268847619Y-107598009D01*
X268847619Y-107598009D02*
X268923809Y-107674200D01*
X268923809Y-107674200D02*
X269038095Y-107712295D01*
X269038095Y-107712295D02*
X269114286Y-107712295D01*
X269114286Y-107712295D02*
X269228571Y-107674200D01*
X269228571Y-107674200D02*
X269266667Y-107636104D01*
X269266667Y-107636104D02*
X269266667Y-107369438D01*
X269266667Y-107369438D02*
X269114286Y-107369438D01*
X269609524Y-107712295D02*
X269609524Y-106912295D01*
X269609524Y-106912295D02*
X269914286Y-106912295D01*
X269914286Y-106912295D02*
X269990476Y-106950390D01*
X269990476Y-106950390D02*
X270028571Y-106988485D01*
X270028571Y-106988485D02*
X270066667Y-107064676D01*
X270066667Y-107064676D02*
X270066667Y-107178961D01*
X270066667Y-107178961D02*
X270028571Y-107255152D01*
X270028571Y-107255152D02*
X269990476Y-107293247D01*
X269990476Y-107293247D02*
X269914286Y-107331342D01*
X269914286Y-107331342D02*
X269609524Y-107331342D01*
X270752381Y-106912295D02*
X270600000Y-106912295D01*
X270600000Y-106912295D02*
X270523809Y-106950390D01*
X270523809Y-106950390D02*
X270485714Y-106988485D01*
X270485714Y-106988485D02*
X270409524Y-107102771D01*
X270409524Y-107102771D02*
X270371428Y-107255152D01*
X270371428Y-107255152D02*
X270371428Y-107559914D01*
X270371428Y-107559914D02*
X270409524Y-107636104D01*
X270409524Y-107636104D02*
X270447619Y-107674200D01*
X270447619Y-107674200D02*
X270523809Y-107712295D01*
X270523809Y-107712295D02*
X270676190Y-107712295D01*
X270676190Y-107712295D02*
X270752381Y-107674200D01*
X270752381Y-107674200D02*
X270790476Y-107636104D01*
X270790476Y-107636104D02*
X270828571Y-107559914D01*
X270828571Y-107559914D02*
X270828571Y-107369438D01*
X270828571Y-107369438D02*
X270790476Y-107293247D01*
X270790476Y-107293247D02*
X270752381Y-107255152D01*
X270752381Y-107255152D02*
X270676190Y-107217057D01*
X270676190Y-107217057D02*
X270523809Y-107217057D01*
X270523809Y-107217057D02*
X270447619Y-107255152D01*
X270447619Y-107255152D02*
X270409524Y-107293247D01*
X270409524Y-107293247D02*
X270371428Y-107369438D01*
X269190476Y-94250390D02*
X269114286Y-94212295D01*
X269114286Y-94212295D02*
X269000000Y-94212295D01*
X269000000Y-94212295D02*
X268885714Y-94250390D01*
X268885714Y-94250390D02*
X268809524Y-94326580D01*
X268809524Y-94326580D02*
X268771429Y-94402771D01*
X268771429Y-94402771D02*
X268733333Y-94555152D01*
X268733333Y-94555152D02*
X268733333Y-94669438D01*
X268733333Y-94669438D02*
X268771429Y-94821819D01*
X268771429Y-94821819D02*
X268809524Y-94898009D01*
X268809524Y-94898009D02*
X268885714Y-94974200D01*
X268885714Y-94974200D02*
X269000000Y-95012295D01*
X269000000Y-95012295D02*
X269076191Y-95012295D01*
X269076191Y-95012295D02*
X269190476Y-94974200D01*
X269190476Y-94974200D02*
X269228572Y-94936104D01*
X269228572Y-94936104D02*
X269228572Y-94669438D01*
X269228572Y-94669438D02*
X269076191Y-94669438D01*
X269571429Y-95012295D02*
X269571429Y-94212295D01*
X269571429Y-94212295D02*
X270028572Y-95012295D01*
X270028572Y-95012295D02*
X270028572Y-94212295D01*
X270409524Y-95012295D02*
X270409524Y-94212295D01*
X270409524Y-94212295D02*
X270600000Y-94212295D01*
X270600000Y-94212295D02*
X270714286Y-94250390D01*
X270714286Y-94250390D02*
X270790476Y-94326580D01*
X270790476Y-94326580D02*
X270828571Y-94402771D01*
X270828571Y-94402771D02*
X270866667Y-94555152D01*
X270866667Y-94555152D02*
X270866667Y-94669438D01*
X270866667Y-94669438D02*
X270828571Y-94821819D01*
X270828571Y-94821819D02*
X270790476Y-94898009D01*
X270790476Y-94898009D02*
X270714286Y-94974200D01*
X270714286Y-94974200D02*
X270600000Y-95012295D01*
X270600000Y-95012295D02*
X270409524Y-95012295D01*
X259247618Y-101870390D02*
X259171428Y-101832295D01*
X259171428Y-101832295D02*
X259057142Y-101832295D01*
X259057142Y-101832295D02*
X258942856Y-101870390D01*
X258942856Y-101870390D02*
X258866666Y-101946580D01*
X258866666Y-101946580D02*
X258828571Y-102022771D01*
X258828571Y-102022771D02*
X258790475Y-102175152D01*
X258790475Y-102175152D02*
X258790475Y-102289438D01*
X258790475Y-102289438D02*
X258828571Y-102441819D01*
X258828571Y-102441819D02*
X258866666Y-102518009D01*
X258866666Y-102518009D02*
X258942856Y-102594200D01*
X258942856Y-102594200D02*
X259057142Y-102632295D01*
X259057142Y-102632295D02*
X259133333Y-102632295D01*
X259133333Y-102632295D02*
X259247618Y-102594200D01*
X259247618Y-102594200D02*
X259285714Y-102556104D01*
X259285714Y-102556104D02*
X259285714Y-102289438D01*
X259285714Y-102289438D02*
X259133333Y-102289438D01*
X259628571Y-102632295D02*
X259628571Y-101832295D01*
X259628571Y-101832295D02*
X259933333Y-101832295D01*
X259933333Y-101832295D02*
X260009523Y-101870390D01*
X260009523Y-101870390D02*
X260047618Y-101908485D01*
X260047618Y-101908485D02*
X260085714Y-101984676D01*
X260085714Y-101984676D02*
X260085714Y-102098961D01*
X260085714Y-102098961D02*
X260047618Y-102175152D01*
X260047618Y-102175152D02*
X260009523Y-102213247D01*
X260009523Y-102213247D02*
X259933333Y-102251342D01*
X259933333Y-102251342D02*
X259628571Y-102251342D01*
X260390475Y-101908485D02*
X260428571Y-101870390D01*
X260428571Y-101870390D02*
X260504761Y-101832295D01*
X260504761Y-101832295D02*
X260695237Y-101832295D01*
X260695237Y-101832295D02*
X260771428Y-101870390D01*
X260771428Y-101870390D02*
X260809523Y-101908485D01*
X260809523Y-101908485D02*
X260847618Y-101984676D01*
X260847618Y-101984676D02*
X260847618Y-102060866D01*
X260847618Y-102060866D02*
X260809523Y-102175152D01*
X260809523Y-102175152D02*
X260352380Y-102632295D01*
X260352380Y-102632295D02*
X260847618Y-102632295D01*
X261114285Y-101832295D02*
X261647619Y-101832295D01*
X261647619Y-101832295D02*
X261304761Y-102632295D01*
X259761905Y-92472295D02*
X259495238Y-92091342D01*
X259304762Y-92472295D02*
X259304762Y-91672295D01*
X259304762Y-91672295D02*
X259609524Y-91672295D01*
X259609524Y-91672295D02*
X259685714Y-91710390D01*
X259685714Y-91710390D02*
X259723809Y-91748485D01*
X259723809Y-91748485D02*
X259761905Y-91824676D01*
X259761905Y-91824676D02*
X259761905Y-91938961D01*
X259761905Y-91938961D02*
X259723809Y-92015152D01*
X259723809Y-92015152D02*
X259685714Y-92053247D01*
X259685714Y-92053247D02*
X259609524Y-92091342D01*
X259609524Y-92091342D02*
X259304762Y-92091342D01*
X260066666Y-92434200D02*
X260180952Y-92472295D01*
X260180952Y-92472295D02*
X260371428Y-92472295D01*
X260371428Y-92472295D02*
X260447619Y-92434200D01*
X260447619Y-92434200D02*
X260485714Y-92396104D01*
X260485714Y-92396104D02*
X260523809Y-92319914D01*
X260523809Y-92319914D02*
X260523809Y-92243723D01*
X260523809Y-92243723D02*
X260485714Y-92167533D01*
X260485714Y-92167533D02*
X260447619Y-92129438D01*
X260447619Y-92129438D02*
X260371428Y-92091342D01*
X260371428Y-92091342D02*
X260219047Y-92053247D01*
X260219047Y-92053247D02*
X260142857Y-92015152D01*
X260142857Y-92015152D02*
X260104762Y-91977057D01*
X260104762Y-91977057D02*
X260066666Y-91900866D01*
X260066666Y-91900866D02*
X260066666Y-91824676D01*
X260066666Y-91824676D02*
X260104762Y-91748485D01*
X260104762Y-91748485D02*
X260142857Y-91710390D01*
X260142857Y-91710390D02*
X260219047Y-91672295D01*
X260219047Y-91672295D02*
X260409524Y-91672295D01*
X260409524Y-91672295D02*
X260523809Y-91710390D01*
X260752381Y-91672295D02*
X261209524Y-91672295D01*
X260980952Y-92472295D02*
X260980952Y-91672295D01*
X269228571Y-112030390D02*
X269152381Y-111992295D01*
X269152381Y-111992295D02*
X269038095Y-111992295D01*
X269038095Y-111992295D02*
X268923809Y-112030390D01*
X268923809Y-112030390D02*
X268847619Y-112106580D01*
X268847619Y-112106580D02*
X268809524Y-112182771D01*
X268809524Y-112182771D02*
X268771428Y-112335152D01*
X268771428Y-112335152D02*
X268771428Y-112449438D01*
X268771428Y-112449438D02*
X268809524Y-112601819D01*
X268809524Y-112601819D02*
X268847619Y-112678009D01*
X268847619Y-112678009D02*
X268923809Y-112754200D01*
X268923809Y-112754200D02*
X269038095Y-112792295D01*
X269038095Y-112792295D02*
X269114286Y-112792295D01*
X269114286Y-112792295D02*
X269228571Y-112754200D01*
X269228571Y-112754200D02*
X269266667Y-112716104D01*
X269266667Y-112716104D02*
X269266667Y-112449438D01*
X269266667Y-112449438D02*
X269114286Y-112449438D01*
X269609524Y-112792295D02*
X269609524Y-111992295D01*
X269609524Y-111992295D02*
X269914286Y-111992295D01*
X269914286Y-111992295D02*
X269990476Y-112030390D01*
X269990476Y-112030390D02*
X270028571Y-112068485D01*
X270028571Y-112068485D02*
X270066667Y-112144676D01*
X270066667Y-112144676D02*
X270066667Y-112258961D01*
X270066667Y-112258961D02*
X270028571Y-112335152D01*
X270028571Y-112335152D02*
X269990476Y-112373247D01*
X269990476Y-112373247D02*
X269914286Y-112411342D01*
X269914286Y-112411342D02*
X269609524Y-112411342D01*
X270523809Y-112335152D02*
X270447619Y-112297057D01*
X270447619Y-112297057D02*
X270409524Y-112258961D01*
X270409524Y-112258961D02*
X270371428Y-112182771D01*
X270371428Y-112182771D02*
X270371428Y-112144676D01*
X270371428Y-112144676D02*
X270409524Y-112068485D01*
X270409524Y-112068485D02*
X270447619Y-112030390D01*
X270447619Y-112030390D02*
X270523809Y-111992295D01*
X270523809Y-111992295D02*
X270676190Y-111992295D01*
X270676190Y-111992295D02*
X270752381Y-112030390D01*
X270752381Y-112030390D02*
X270790476Y-112068485D01*
X270790476Y-112068485D02*
X270828571Y-112144676D01*
X270828571Y-112144676D02*
X270828571Y-112182771D01*
X270828571Y-112182771D02*
X270790476Y-112258961D01*
X270790476Y-112258961D02*
X270752381Y-112297057D01*
X270752381Y-112297057D02*
X270676190Y-112335152D01*
X270676190Y-112335152D02*
X270523809Y-112335152D01*
X270523809Y-112335152D02*
X270447619Y-112373247D01*
X270447619Y-112373247D02*
X270409524Y-112411342D01*
X270409524Y-112411342D02*
X270371428Y-112487533D01*
X270371428Y-112487533D02*
X270371428Y-112639914D01*
X270371428Y-112639914D02*
X270409524Y-112716104D01*
X270409524Y-112716104D02*
X270447619Y-112754200D01*
X270447619Y-112754200D02*
X270523809Y-112792295D01*
X270523809Y-112792295D02*
X270676190Y-112792295D01*
X270676190Y-112792295D02*
X270752381Y-112754200D01*
X270752381Y-112754200D02*
X270790476Y-112716104D01*
X270790476Y-112716104D02*
X270828571Y-112639914D01*
X270828571Y-112639914D02*
X270828571Y-112487533D01*
X270828571Y-112487533D02*
X270790476Y-112411342D01*
X270790476Y-112411342D02*
X270752381Y-112373247D01*
X270752381Y-112373247D02*
X270676190Y-112335152D01*
X259590476Y-89170390D02*
X259514286Y-89132295D01*
X259514286Y-89132295D02*
X259400000Y-89132295D01*
X259400000Y-89132295D02*
X259285714Y-89170390D01*
X259285714Y-89170390D02*
X259209524Y-89246580D01*
X259209524Y-89246580D02*
X259171429Y-89322771D01*
X259171429Y-89322771D02*
X259133333Y-89475152D01*
X259133333Y-89475152D02*
X259133333Y-89589438D01*
X259133333Y-89589438D02*
X259171429Y-89741819D01*
X259171429Y-89741819D02*
X259209524Y-89818009D01*
X259209524Y-89818009D02*
X259285714Y-89894200D01*
X259285714Y-89894200D02*
X259400000Y-89932295D01*
X259400000Y-89932295D02*
X259476191Y-89932295D01*
X259476191Y-89932295D02*
X259590476Y-89894200D01*
X259590476Y-89894200D02*
X259628572Y-89856104D01*
X259628572Y-89856104D02*
X259628572Y-89589438D01*
X259628572Y-89589438D02*
X259476191Y-89589438D01*
X259971429Y-89932295D02*
X259971429Y-89132295D01*
X259971429Y-89132295D02*
X260428572Y-89932295D01*
X260428572Y-89932295D02*
X260428572Y-89132295D01*
X260809524Y-89932295D02*
X260809524Y-89132295D01*
X260809524Y-89132295D02*
X261000000Y-89132295D01*
X261000000Y-89132295D02*
X261114286Y-89170390D01*
X261114286Y-89170390D02*
X261190476Y-89246580D01*
X261190476Y-89246580D02*
X261228571Y-89322771D01*
X261228571Y-89322771D02*
X261266667Y-89475152D01*
X261266667Y-89475152D02*
X261266667Y-89589438D01*
X261266667Y-89589438D02*
X261228571Y-89741819D01*
X261228571Y-89741819D02*
X261190476Y-89818009D01*
X261190476Y-89818009D02*
X261114286Y-89894200D01*
X261114286Y-89894200D02*
X261000000Y-89932295D01*
X261000000Y-89932295D02*
X260809524Y-89932295D01*
X259647619Y-87392295D02*
X259380952Y-87011342D01*
X259190476Y-87392295D02*
X259190476Y-86592295D01*
X259190476Y-86592295D02*
X259495238Y-86592295D01*
X259495238Y-86592295D02*
X259571428Y-86630390D01*
X259571428Y-86630390D02*
X259609523Y-86668485D01*
X259609523Y-86668485D02*
X259647619Y-86744676D01*
X259647619Y-86744676D02*
X259647619Y-86858961D01*
X259647619Y-86858961D02*
X259609523Y-86935152D01*
X259609523Y-86935152D02*
X259571428Y-86973247D01*
X259571428Y-86973247D02*
X259495238Y-87011342D01*
X259495238Y-87011342D02*
X259190476Y-87011342D01*
X259952380Y-87163723D02*
X260333333Y-87163723D01*
X259876190Y-87392295D02*
X260142857Y-86592295D01*
X260142857Y-86592295D02*
X260409523Y-87392295D01*
X260599999Y-86592295D02*
X260790475Y-87392295D01*
X260790475Y-87392295D02*
X260942856Y-86820866D01*
X260942856Y-86820866D02*
X261095237Y-87392295D01*
X261095237Y-87392295D02*
X261285714Y-86592295D01*
X259247618Y-114570390D02*
X259171428Y-114532295D01*
X259171428Y-114532295D02*
X259057142Y-114532295D01*
X259057142Y-114532295D02*
X258942856Y-114570390D01*
X258942856Y-114570390D02*
X258866666Y-114646580D01*
X258866666Y-114646580D02*
X258828571Y-114722771D01*
X258828571Y-114722771D02*
X258790475Y-114875152D01*
X258790475Y-114875152D02*
X258790475Y-114989438D01*
X258790475Y-114989438D02*
X258828571Y-115141819D01*
X258828571Y-115141819D02*
X258866666Y-115218009D01*
X258866666Y-115218009D02*
X258942856Y-115294200D01*
X258942856Y-115294200D02*
X259057142Y-115332295D01*
X259057142Y-115332295D02*
X259133333Y-115332295D01*
X259133333Y-115332295D02*
X259247618Y-115294200D01*
X259247618Y-115294200D02*
X259285714Y-115256104D01*
X259285714Y-115256104D02*
X259285714Y-114989438D01*
X259285714Y-114989438D02*
X259133333Y-114989438D01*
X259628571Y-115332295D02*
X259628571Y-114532295D01*
X259628571Y-114532295D02*
X259933333Y-114532295D01*
X259933333Y-114532295D02*
X260009523Y-114570390D01*
X260009523Y-114570390D02*
X260047618Y-114608485D01*
X260047618Y-114608485D02*
X260085714Y-114684676D01*
X260085714Y-114684676D02*
X260085714Y-114798961D01*
X260085714Y-114798961D02*
X260047618Y-114875152D01*
X260047618Y-114875152D02*
X260009523Y-114913247D01*
X260009523Y-114913247D02*
X259933333Y-114951342D01*
X259933333Y-114951342D02*
X259628571Y-114951342D01*
X260390475Y-114608485D02*
X260428571Y-114570390D01*
X260428571Y-114570390D02*
X260504761Y-114532295D01*
X260504761Y-114532295D02*
X260695237Y-114532295D01*
X260695237Y-114532295D02*
X260771428Y-114570390D01*
X260771428Y-114570390D02*
X260809523Y-114608485D01*
X260809523Y-114608485D02*
X260847618Y-114684676D01*
X260847618Y-114684676D02*
X260847618Y-114760866D01*
X260847618Y-114760866D02*
X260809523Y-114875152D01*
X260809523Y-114875152D02*
X260352380Y-115332295D01*
X260352380Y-115332295D02*
X260847618Y-115332295D01*
X261609523Y-115332295D02*
X261152380Y-115332295D01*
X261380952Y-115332295D02*
X261380952Y-114532295D01*
X261380952Y-114532295D02*
X261304761Y-114646580D01*
X261304761Y-114646580D02*
X261228571Y-114722771D01*
X261228571Y-114722771D02*
X261152380Y-114760866D01*
X259247618Y-109490390D02*
X259171428Y-109452295D01*
X259171428Y-109452295D02*
X259057142Y-109452295D01*
X259057142Y-109452295D02*
X258942856Y-109490390D01*
X258942856Y-109490390D02*
X258866666Y-109566580D01*
X258866666Y-109566580D02*
X258828571Y-109642771D01*
X258828571Y-109642771D02*
X258790475Y-109795152D01*
X258790475Y-109795152D02*
X258790475Y-109909438D01*
X258790475Y-109909438D02*
X258828571Y-110061819D01*
X258828571Y-110061819D02*
X258866666Y-110138009D01*
X258866666Y-110138009D02*
X258942856Y-110214200D01*
X258942856Y-110214200D02*
X259057142Y-110252295D01*
X259057142Y-110252295D02*
X259133333Y-110252295D01*
X259133333Y-110252295D02*
X259247618Y-110214200D01*
X259247618Y-110214200D02*
X259285714Y-110176104D01*
X259285714Y-110176104D02*
X259285714Y-109909438D01*
X259285714Y-109909438D02*
X259133333Y-109909438D01*
X259628571Y-110252295D02*
X259628571Y-109452295D01*
X259628571Y-109452295D02*
X259933333Y-109452295D01*
X259933333Y-109452295D02*
X260009523Y-109490390D01*
X260009523Y-109490390D02*
X260047618Y-109528485D01*
X260047618Y-109528485D02*
X260085714Y-109604676D01*
X260085714Y-109604676D02*
X260085714Y-109718961D01*
X260085714Y-109718961D02*
X260047618Y-109795152D01*
X260047618Y-109795152D02*
X260009523Y-109833247D01*
X260009523Y-109833247D02*
X259933333Y-109871342D01*
X259933333Y-109871342D02*
X259628571Y-109871342D01*
X260390475Y-109528485D02*
X260428571Y-109490390D01*
X260428571Y-109490390D02*
X260504761Y-109452295D01*
X260504761Y-109452295D02*
X260695237Y-109452295D01*
X260695237Y-109452295D02*
X260771428Y-109490390D01*
X260771428Y-109490390D02*
X260809523Y-109528485D01*
X260809523Y-109528485D02*
X260847618Y-109604676D01*
X260847618Y-109604676D02*
X260847618Y-109680866D01*
X260847618Y-109680866D02*
X260809523Y-109795152D01*
X260809523Y-109795152D02*
X260352380Y-110252295D01*
X260352380Y-110252295D02*
X260847618Y-110252295D01*
X261342857Y-109452295D02*
X261419047Y-109452295D01*
X261419047Y-109452295D02*
X261495238Y-109490390D01*
X261495238Y-109490390D02*
X261533333Y-109528485D01*
X261533333Y-109528485D02*
X261571428Y-109604676D01*
X261571428Y-109604676D02*
X261609523Y-109757057D01*
X261609523Y-109757057D02*
X261609523Y-109947533D01*
X261609523Y-109947533D02*
X261571428Y-110099914D01*
X261571428Y-110099914D02*
X261533333Y-110176104D01*
X261533333Y-110176104D02*
X261495238Y-110214200D01*
X261495238Y-110214200D02*
X261419047Y-110252295D01*
X261419047Y-110252295D02*
X261342857Y-110252295D01*
X261342857Y-110252295D02*
X261266666Y-110214200D01*
X261266666Y-110214200D02*
X261228571Y-110176104D01*
X261228571Y-110176104D02*
X261190476Y-110099914D01*
X261190476Y-110099914D02*
X261152380Y-109947533D01*
X261152380Y-109947533D02*
X261152380Y-109757057D01*
X261152380Y-109757057D02*
X261190476Y-109604676D01*
X261190476Y-109604676D02*
X261228571Y-109528485D01*
X261228571Y-109528485D02*
X261266666Y-109490390D01*
X261266666Y-109490390D02*
X261342857Y-109452295D01*
X259247618Y-104410390D02*
X259171428Y-104372295D01*
X259171428Y-104372295D02*
X259057142Y-104372295D01*
X259057142Y-104372295D02*
X258942856Y-104410390D01*
X258942856Y-104410390D02*
X258866666Y-104486580D01*
X258866666Y-104486580D02*
X258828571Y-104562771D01*
X258828571Y-104562771D02*
X258790475Y-104715152D01*
X258790475Y-104715152D02*
X258790475Y-104829438D01*
X258790475Y-104829438D02*
X258828571Y-104981819D01*
X258828571Y-104981819D02*
X258866666Y-105058009D01*
X258866666Y-105058009D02*
X258942856Y-105134200D01*
X258942856Y-105134200D02*
X259057142Y-105172295D01*
X259057142Y-105172295D02*
X259133333Y-105172295D01*
X259133333Y-105172295D02*
X259247618Y-105134200D01*
X259247618Y-105134200D02*
X259285714Y-105096104D01*
X259285714Y-105096104D02*
X259285714Y-104829438D01*
X259285714Y-104829438D02*
X259133333Y-104829438D01*
X259628571Y-105172295D02*
X259628571Y-104372295D01*
X259628571Y-104372295D02*
X259933333Y-104372295D01*
X259933333Y-104372295D02*
X260009523Y-104410390D01*
X260009523Y-104410390D02*
X260047618Y-104448485D01*
X260047618Y-104448485D02*
X260085714Y-104524676D01*
X260085714Y-104524676D02*
X260085714Y-104638961D01*
X260085714Y-104638961D02*
X260047618Y-104715152D01*
X260047618Y-104715152D02*
X260009523Y-104753247D01*
X260009523Y-104753247D02*
X259933333Y-104791342D01*
X259933333Y-104791342D02*
X259628571Y-104791342D01*
X260390475Y-104448485D02*
X260428571Y-104410390D01*
X260428571Y-104410390D02*
X260504761Y-104372295D01*
X260504761Y-104372295D02*
X260695237Y-104372295D01*
X260695237Y-104372295D02*
X260771428Y-104410390D01*
X260771428Y-104410390D02*
X260809523Y-104448485D01*
X260809523Y-104448485D02*
X260847618Y-104524676D01*
X260847618Y-104524676D02*
X260847618Y-104600866D01*
X260847618Y-104600866D02*
X260809523Y-104715152D01*
X260809523Y-104715152D02*
X260352380Y-105172295D01*
X260352380Y-105172295D02*
X260847618Y-105172295D01*
X261533333Y-104372295D02*
X261380952Y-104372295D01*
X261380952Y-104372295D02*
X261304761Y-104410390D01*
X261304761Y-104410390D02*
X261266666Y-104448485D01*
X261266666Y-104448485D02*
X261190476Y-104562771D01*
X261190476Y-104562771D02*
X261152380Y-104715152D01*
X261152380Y-104715152D02*
X261152380Y-105019914D01*
X261152380Y-105019914D02*
X261190476Y-105096104D01*
X261190476Y-105096104D02*
X261228571Y-105134200D01*
X261228571Y-105134200D02*
X261304761Y-105172295D01*
X261304761Y-105172295D02*
X261457142Y-105172295D01*
X261457142Y-105172295D02*
X261533333Y-105134200D01*
X261533333Y-105134200D02*
X261571428Y-105096104D01*
X261571428Y-105096104D02*
X261609523Y-105019914D01*
X261609523Y-105019914D02*
X261609523Y-104829438D01*
X261609523Y-104829438D02*
X261571428Y-104753247D01*
X261571428Y-104753247D02*
X261533333Y-104715152D01*
X261533333Y-104715152D02*
X261457142Y-104677057D01*
X261457142Y-104677057D02*
X261304761Y-104677057D01*
X261304761Y-104677057D02*
X261228571Y-104715152D01*
X261228571Y-104715152D02*
X261190476Y-104753247D01*
X261190476Y-104753247D02*
X261152380Y-104829438D01*
X259133333Y-94212295D02*
X259400000Y-95012295D01*
X259400000Y-95012295D02*
X259666666Y-94212295D01*
X260390476Y-94936104D02*
X260352380Y-94974200D01*
X260352380Y-94974200D02*
X260238095Y-95012295D01*
X260238095Y-95012295D02*
X260161904Y-95012295D01*
X260161904Y-95012295D02*
X260047618Y-94974200D01*
X260047618Y-94974200D02*
X259971428Y-94898009D01*
X259971428Y-94898009D02*
X259933333Y-94821819D01*
X259933333Y-94821819D02*
X259895237Y-94669438D01*
X259895237Y-94669438D02*
X259895237Y-94555152D01*
X259895237Y-94555152D02*
X259933333Y-94402771D01*
X259933333Y-94402771D02*
X259971428Y-94326580D01*
X259971428Y-94326580D02*
X260047618Y-94250390D01*
X260047618Y-94250390D02*
X260161904Y-94212295D01*
X260161904Y-94212295D02*
X260238095Y-94212295D01*
X260238095Y-94212295D02*
X260352380Y-94250390D01*
X260352380Y-94250390D02*
X260390476Y-94288485D01*
X261190476Y-94936104D02*
X261152380Y-94974200D01*
X261152380Y-94974200D02*
X261038095Y-95012295D01*
X261038095Y-95012295D02*
X260961904Y-95012295D01*
X260961904Y-95012295D02*
X260847618Y-94974200D01*
X260847618Y-94974200D02*
X260771428Y-94898009D01*
X260771428Y-94898009D02*
X260733333Y-94821819D01*
X260733333Y-94821819D02*
X260695237Y-94669438D01*
X260695237Y-94669438D02*
X260695237Y-94555152D01*
X260695237Y-94555152D02*
X260733333Y-94402771D01*
X260733333Y-94402771D02*
X260771428Y-94326580D01*
X260771428Y-94326580D02*
X260847618Y-94250390D01*
X260847618Y-94250390D02*
X260961904Y-94212295D01*
X260961904Y-94212295D02*
X261038095Y-94212295D01*
X261038095Y-94212295D02*
X261152380Y-94250390D01*
X261152380Y-94250390D02*
X261190476Y-94288485D01*
X273954819Y-122047619D02*
X273478628Y-122380952D01*
X273954819Y-122619047D02*
X272954819Y-122619047D01*
X272954819Y-122619047D02*
X272954819Y-122238095D01*
X272954819Y-122238095D02*
X273002438Y-122142857D01*
X273002438Y-122142857D02*
X273050057Y-122095238D01*
X273050057Y-122095238D02*
X273145295Y-122047619D01*
X273145295Y-122047619D02*
X273288152Y-122047619D01*
X273288152Y-122047619D02*
X273383390Y-122095238D01*
X273383390Y-122095238D02*
X273431009Y-122142857D01*
X273431009Y-122142857D02*
X273478628Y-122238095D01*
X273478628Y-122238095D02*
X273478628Y-122619047D01*
X273907200Y-121666666D02*
X273954819Y-121523809D01*
X273954819Y-121523809D02*
X273954819Y-121285714D01*
X273954819Y-121285714D02*
X273907200Y-121190476D01*
X273907200Y-121190476D02*
X273859580Y-121142857D01*
X273859580Y-121142857D02*
X273764342Y-121095238D01*
X273764342Y-121095238D02*
X273669104Y-121095238D01*
X273669104Y-121095238D02*
X273573866Y-121142857D01*
X273573866Y-121142857D02*
X273526247Y-121190476D01*
X273526247Y-121190476D02*
X273478628Y-121285714D01*
X273478628Y-121285714D02*
X273431009Y-121476190D01*
X273431009Y-121476190D02*
X273383390Y-121571428D01*
X273383390Y-121571428D02*
X273335771Y-121619047D01*
X273335771Y-121619047D02*
X273240533Y-121666666D01*
X273240533Y-121666666D02*
X273145295Y-121666666D01*
X273145295Y-121666666D02*
X273050057Y-121619047D01*
X273050057Y-121619047D02*
X273002438Y-121571428D01*
X273002438Y-121571428D02*
X272954819Y-121476190D01*
X272954819Y-121476190D02*
X272954819Y-121238095D01*
X272954819Y-121238095D02*
X273002438Y-121095238D01*
X272954819Y-120809523D02*
X272954819Y-120238095D01*
X273954819Y-120523809D02*
X272954819Y-120523809D01*
%TO.C,MCU1*%
X256110000Y-83220000D02*
X256110000Y-116240000D01*
X256110000Y-116240000D02*
X273890000Y-116240000D01*
X258650000Y-85760000D02*
X256110000Y-85760000D01*
X258650000Y-85760000D02*
X258650000Y-88300000D01*
X258650000Y-88300000D02*
X256110000Y-88300000D01*
X273890000Y-83220000D02*
X256110000Y-83220000D01*
X273890000Y-116240000D02*
X273890000Y-83220000D01*
%TO.C,RST1*%
X271750000Y-118500000D02*
X271750000Y-124500000D01*
X271750000Y-118500000D02*
X272000000Y-118500000D01*
X271750000Y-124500000D02*
X272000000Y-124500000D01*
X275250000Y-118500000D02*
X275000000Y-118500000D01*
X275250000Y-118500000D02*
X275250000Y-124500000D01*
X275250000Y-124500000D02*
X275000000Y-124500000D01*
%TD*%
D11*
%TO.C,MCU1*%
X257380000Y-87030000D03*
D12*
X257380000Y-89570000D03*
X257380000Y-92110000D03*
X257380000Y-94650000D03*
X257380000Y-97190000D03*
X257380000Y-99730000D03*
X257380000Y-102270000D03*
X257380000Y-104810000D03*
X257380000Y-107350000D03*
X257380000Y-109890000D03*
X257380000Y-112430000D03*
X257380000Y-114970000D03*
X272620000Y-87030000D03*
X272620000Y-89570000D03*
X272620000Y-92110000D03*
X272620000Y-94650000D03*
X272620000Y-97190000D03*
X272620000Y-99730000D03*
X272620000Y-102270000D03*
X272620000Y-104810000D03*
X272620000Y-107350000D03*
X272620000Y-109890000D03*
X272620000Y-112430000D03*
X272620000Y-114970000D03*
%TD*%
M02*
