%TF.GenerationSoftware,KiCad,Pcbnew,8.0.8-8.0.8-0~ubuntu24.04.1*%
%TF.CreationDate,2025-01-29T12:56:02-05:00*%
%TF.ProjectId,nitsud,6e697473-7564-42e6-9b69-6361645f7063,v1.0.0*%
%TF.SameCoordinates,Original*%
%TF.FileFunction,Copper,L4,Bot*%
%TF.FilePolarity,Positive*%
%FSLAX46Y46*%
G04 Gerber Fmt 4.6, Leading zero omitted, Abs format (unit mm)*
G04 Created by KiCad (PCBNEW 8.0.8-8.0.8-0~ubuntu24.04.1) date 2025-01-29 12:56:02*
%MOMM*%
%LPD*%
G01*
G04 APERTURE LIST*
%TA.AperFunction,ComponentPad*%
%ADD10R,1.752600X1.752600*%
%TD*%
%TA.AperFunction,ComponentPad*%
%ADD11C,1.752600*%
%TD*%
%TA.AperFunction,ComponentPad*%
%ADD12O,1.600000X2.200000*%
%TD*%
%TA.AperFunction,ComponentPad*%
%ADD13C,1.700000*%
%TD*%
%TA.AperFunction,ComponentPad*%
%ADD14C,3.800000*%
%TD*%
%TA.AperFunction,ComponentPad*%
%ADD15R,1.700000X1.700000*%
%TD*%
%TA.AperFunction,ComponentPad*%
%ADD16O,1.700000X1.700000*%
%TD*%
%TA.AperFunction,SMDPad,CuDef*%
%ADD17R,2.550000X2.500000*%
%TD*%
%TA.AperFunction,SMDPad,CuDef*%
%ADD18R,1.400000X1.000000*%
%TD*%
%TA.AperFunction,SMDPad,CuDef*%
%ADD19R,1.200000X0.900000*%
%TD*%
%TA.AperFunction,ViaPad*%
%ADD20C,0.800000*%
%TD*%
%TA.AperFunction,Conductor*%
%ADD21C,0.250000*%
%TD*%
G04 APERTURE END LIST*
D10*
%TO.P,MCU1,1*%
%TO.N,RAW*%
X257380000Y-87030000D03*
D11*
%TO.P,MCU1,2*%
%TO.N,GND*%
X257380000Y-89570000D03*
%TO.P,MCU1,3*%
%TO.N,RST*%
X257380000Y-92110000D03*
%TO.P,MCU1,4*%
%TO.N,VCC*%
X257380000Y-94650000D03*
%TO.P,MCU1,5*%
%TO.N,P21*%
X257380000Y-97190000D03*
%TO.P,MCU1,6*%
%TO.N,P20*%
X257380000Y-99730000D03*
%TO.P,MCU1,7*%
%TO.N,P19*%
X257380000Y-102270000D03*
%TO.P,MCU1,8*%
%TO.N,P18*%
X257380000Y-104810000D03*
%TO.P,MCU1,9*%
%TO.N,P15*%
X257380000Y-107350000D03*
%TO.P,MCU1,10*%
%TO.N,P14*%
X257380000Y-109890000D03*
%TO.P,MCU1,11*%
%TO.N,P16*%
X257380000Y-112430000D03*
%TO.P,MCU1,12*%
%TO.N,P10*%
X257380000Y-114970000D03*
%TO.P,MCU1,13*%
%TO.N,P1*%
X272620000Y-87030000D03*
%TO.P,MCU1,14*%
%TO.N,P0*%
X272620000Y-89570000D03*
%TO.P,MCU1,15*%
%TO.N,GND*%
X272620000Y-92110000D03*
%TO.P,MCU1,16*%
X272620000Y-94650000D03*
%TO.P,MCU1,17*%
%TO.N,P2*%
X272620000Y-97190000D03*
%TO.P,MCU1,18*%
%TO.N,P3*%
X272620000Y-99730000D03*
%TO.P,MCU1,19*%
%TO.N,P4*%
X272620000Y-102270000D03*
%TO.P,MCU1,20*%
%TO.N,P5*%
X272620000Y-104810000D03*
%TO.P,MCU1,21*%
%TO.N,P6*%
X272620000Y-107350000D03*
%TO.P,MCU1,22*%
%TO.N,P7*%
X272620000Y-109890000D03*
%TO.P,MCU1,23*%
%TO.N,P8*%
X272620000Y-112430000D03*
%TO.P,MCU1,24*%
%TO.N,P9*%
X272620000Y-114970000D03*
%TD*%
D12*
%TO.P,TRRS1,2*%
%TO.N,GND*%
X267300000Y-86700000D03*
%TO.P,TRRS1,3*%
%TO.N,P1*%
X267300000Y-89700000D03*
%TO.P,TRRS1,4*%
%TO.N,RAW*%
X267300000Y-93700000D03*
%TO.P,TRRS1,5*%
%TO.N,P0*%
X262700000Y-94800000D03*
%TD*%
D13*
%TO.P,RST1,1*%
%TO.N,RST*%
X273500000Y-124750000D03*
%TO.P,RST1,2*%
%TO.N,GND*%
X273500000Y-118250000D03*
%TD*%
D14*
%TO.P,H2,*%
%TO.N,*%
X159500000Y-140500000D03*
%TD*%
D15*
%TO.P,OLED1,1*%
%TO.N,GND*%
X268800000Y-118400000D03*
D16*
%TO.P,OLED1,2*%
%TO.N,VCC*%
X266260000Y-118400000D03*
%TO.P,OLED1,3*%
%TO.N,P9*%
X263720000Y-118400000D03*
%TO.P,OLED1,4*%
%TO.N,P8*%
X261180000Y-118400000D03*
%TD*%
D14*
%TO.P,H4,*%
%TO.N,*%
X235500000Y-159500000D03*
%TD*%
%TO.P,H1,*%
%TO.N,*%
X159500000Y-102500000D03*
%TD*%
%TO.P,H3,*%
%TO.N,*%
X235500000Y-102500000D03*
%TD*%
D17*
%TO.P,S5,1*%
%TO.N,N/C*%
X161915000Y-147460000D03*
%TO.P,S5,2*%
%TO.N,ring_bottom*%
X174842000Y-144920000D03*
%TD*%
D18*
%TO.P,LED27,1*%
%TO.N,VCC*%
X190700000Y-174700000D03*
%TO.P,LED27,2*%
%TO.N,N/C*%
X190700000Y-173300000D03*
%TO.P,LED27,3*%
%TO.N,GND*%
X185300000Y-173300000D03*
%TO.P,LED27,4*%
%TO.N,N/C*%
X185300000Y-174700000D03*
%TD*%
D19*
%TO.P,D5,1*%
%TO.N,N/C*%
X176600000Y-155650000D03*
%TO.P,D5,2*%
%TO.N,ring_bottom*%
X176600000Y-152350000D03*
%TD*%
%TO.P,D19,1*%
%TO.N,N/C*%
X233600000Y-117650000D03*
%TO.P,D19,2*%
%TO.N,inner_middle*%
X233600000Y-114350000D03*
%TD*%
D18*
%TO.P,LED15,1*%
%TO.N,VCC*%
X209700000Y-117700000D03*
%TO.P,LED15,2*%
%TO.N,N/C*%
X209700000Y-116300000D03*
%TO.P,LED15,3*%
%TO.N,GND*%
X204300000Y-116300000D03*
%TO.P,LED15,4*%
%TO.N,N/C*%
X204300000Y-117700000D03*
%TD*%
%TO.P,LED26,1*%
%TO.N,VCC*%
X266700000Y-136700000D03*
%TO.P,LED26,2*%
%TO.N,N/C*%
X266700000Y-135300000D03*
%TO.P,LED26,3*%
%TO.N,GND*%
X261300000Y-135300000D03*
%TO.P,LED26,4*%
%TO.N,N/C*%
X261300000Y-136700000D03*
%TD*%
D17*
%TO.P,S13,1*%
%TO.N,N/C*%
X199915000Y-147460000D03*
%TO.P,S13,2*%
%TO.N,index_bottom*%
X212842000Y-144920000D03*
%TD*%
%TO.P,S2,1*%
%TO.N,N/C*%
X142915000Y-128460000D03*
%TO.P,S2,2*%
%TO.N,pinky_home*%
X155842000Y-125920000D03*
%TD*%
D18*
%TO.P,LED16,1*%
%TO.N,VCC*%
X209700000Y-98700000D03*
%TO.P,LED16,2*%
%TO.N,N/C*%
X209700000Y-97300000D03*
%TO.P,LED16,3*%
%TO.N,GND*%
X204300000Y-97300000D03*
%TO.P,LED16,4*%
%TO.N,N/C*%
X204300000Y-98700000D03*
%TD*%
D17*
%TO.P,S29,1*%
%TO.N,N/C*%
X218915000Y-166460000D03*
%TO.P,S29,2*%
%TO.N,far_default*%
X231842000Y-163920000D03*
%TD*%
%TO.P,S22,1*%
%TO.N,N/C*%
X237915000Y-128460000D03*
%TO.P,S22,2*%
%TO.N,outer_home*%
X250842000Y-125920000D03*
%TD*%
D19*
%TO.P,D2,1*%
%TO.N,N/C*%
X157600000Y-136650000D03*
%TO.P,D2,2*%
%TO.N,pinky_home*%
X157600000Y-133350000D03*
%TD*%
%TO.P,D29,1*%
%TO.N,N/C*%
X233600000Y-174650000D03*
%TO.P,D29,2*%
%TO.N,far_default*%
X233600000Y-171350000D03*
%TD*%
D17*
%TO.P,S3,1*%
%TO.N,N/C*%
X142915000Y-109460000D03*
%TO.P,S3,2*%
%TO.N,pinky_middle*%
X155842000Y-106920000D03*
%TD*%
%TO.P,S1,1*%
%TO.N,N/C*%
X142915000Y-147460000D03*
%TO.P,S1,2*%
%TO.N,pinky_bottom*%
X155842000Y-144920000D03*
%TD*%
%TO.P,S19,1*%
%TO.N,N/C*%
X218915000Y-109460000D03*
%TO.P,S19,2*%
%TO.N,inner_middle*%
X231842000Y-106920000D03*
%TD*%
D18*
%TO.P,LED10,1*%
%TO.N,VCC*%
X190700000Y-136700000D03*
%TO.P,LED10,2*%
%TO.N,N/C*%
X190700000Y-135300000D03*
%TO.P,LED10,3*%
%TO.N,GND*%
X185300000Y-135300000D03*
%TO.P,LED10,4*%
%TO.N,N/C*%
X185300000Y-136700000D03*
%TD*%
D17*
%TO.P,S25,1*%
%TO.N,N/C*%
X256915000Y-147460000D03*
%TO.P,S25,2*%
%TO.N,mostouter_bottom*%
X269842000Y-144920000D03*
%TD*%
%TO.P,S4,1*%
%TO.N,P21*%
X142915000Y-90460000D03*
%TO.P,S4,2*%
%TO.N,pinky_top*%
X155842000Y-87920000D03*
%TD*%
D18*
%TO.P,LED20,1*%
%TO.N,VCC*%
X228700000Y-98700000D03*
%TO.P,LED20,2*%
%TO.N,N/C*%
X228700000Y-97300000D03*
%TO.P,LED20,3*%
%TO.N,GND*%
X223300000Y-97300000D03*
%TO.P,LED20,4*%
%TO.N,N/C*%
X223300000Y-98700000D03*
%TD*%
D19*
%TO.P,D14,1*%
%TO.N,N/C*%
X214600000Y-136650000D03*
%TO.P,D14,2*%
%TO.N,index_home*%
X214600000Y-133350000D03*
%TD*%
D18*
%TO.P,LED2,1*%
%TO.N,VCC*%
X152700000Y-136700000D03*
%TO.P,LED2,2*%
%TO.N,N/C*%
X152700000Y-135300000D03*
%TO.P,LED2,3*%
%TO.N,GND*%
X147300000Y-135300000D03*
%TO.P,LED2,4*%
%TO.N,N/C*%
X147300000Y-136700000D03*
%TD*%
%TO.P,LED13,1*%
%TO.N,VCC*%
X209700000Y-155700000D03*
%TO.P,LED13,2*%
%TO.N,N/C*%
X209700000Y-154300000D03*
%TO.P,LED13,3*%
%TO.N,GND*%
X204300000Y-154300000D03*
%TO.P,LED13,4*%
%TO.N,N/C*%
X204300000Y-155700000D03*
%TD*%
%TO.P,LED6,1*%
%TO.N,VCC*%
X171700000Y-136700000D03*
%TO.P,LED6,2*%
%TO.N,N/C*%
X171700000Y-135300000D03*
%TO.P,LED6,3*%
%TO.N,GND*%
X166300000Y-135300000D03*
%TO.P,LED6,4*%
%TO.N,N/C*%
X166300000Y-136700000D03*
%TD*%
D19*
%TO.P,D26,1*%
%TO.N,P4*%
X271600000Y-136650000D03*
%TO.P,D26,2*%
%TO.N,mostouter_home*%
X271600000Y-133350000D03*
%TD*%
D17*
%TO.P,S21,1*%
%TO.N,N/C*%
X237915000Y-147460000D03*
%TO.P,S21,2*%
%TO.N,outer_bottom*%
X250842000Y-144920000D03*
%TD*%
D18*
%TO.P,LED18,1*%
%TO.N,VCC*%
X228700000Y-136700000D03*
%TO.P,LED18,2*%
%TO.N,N/C*%
X228700000Y-135300000D03*
%TO.P,LED18,3*%
%TO.N,GND*%
X223300000Y-135300000D03*
%TO.P,LED18,4*%
%TO.N,N/C*%
X223300000Y-136700000D03*
%TD*%
D17*
%TO.P,S24,1*%
%TO.N,P14*%
X237915000Y-90460000D03*
%TO.P,S24,2*%
%TO.N,outer_top*%
X250842000Y-87920000D03*
%TD*%
D19*
%TO.P,D25,1*%
%TO.N,P5*%
X271600000Y-155650000D03*
%TO.P,D25,2*%
%TO.N,mostouter_bottom*%
X271600000Y-152350000D03*
%TD*%
%TO.P,D28,1*%
%TO.N,N/C*%
X214600000Y-174650000D03*
%TO.P,D28,2*%
%TO.N,home_default*%
X214600000Y-171350000D03*
%TD*%
%TO.P,D22,1*%
%TO.N,N/C*%
X252600000Y-136650000D03*
%TO.P,D22,2*%
%TO.N,outer_home*%
X252600000Y-133350000D03*
%TD*%
%TO.P,D7,1*%
%TO.N,N/C*%
X176600000Y-117650000D03*
%TO.P,D7,2*%
%TO.N,ring_middle*%
X176600000Y-114350000D03*
%TD*%
%TO.P,D13,1*%
%TO.N,N/C*%
X214600000Y-155650000D03*
%TO.P,D13,2*%
%TO.N,index_bottom*%
X214600000Y-152350000D03*
%TD*%
D17*
%TO.P,S27,1*%
%TO.N,N/C*%
X180915000Y-166460000D03*
%TO.P,S27,2*%
%TO.N,near_default*%
X193842000Y-163920000D03*
%TD*%
%TO.P,S12,1*%
%TO.N,P19*%
X180915000Y-90460000D03*
%TO.P,S12,2*%
%TO.N,middle_top*%
X193842000Y-87920000D03*
%TD*%
D19*
%TO.P,D23,1*%
%TO.N,P3*%
X252600000Y-117650000D03*
%TO.P,D23,2*%
%TO.N,outer_middle*%
X252600000Y-114350000D03*
%TD*%
%TO.P,D10,1*%
%TO.N,N/C*%
X195600000Y-136650000D03*
%TO.P,D10,2*%
%TO.N,middle_home*%
X195600000Y-133350000D03*
%TD*%
%TO.P,D20,1*%
%TO.N,N/C*%
X233600000Y-98650000D03*
%TO.P,D20,2*%
%TO.N,inner_top*%
X233600000Y-95350000D03*
%TD*%
%TO.P,D4,1*%
%TO.N,N/C*%
X157600000Y-98650000D03*
%TO.P,D4,2*%
%TO.N,pinky_top*%
X157600000Y-95350000D03*
%TD*%
D18*
%TO.P,LED5,1*%
%TO.N,VCC*%
X171700000Y-155700000D03*
%TO.P,LED5,2*%
%TO.N,N/C*%
X171700000Y-154300000D03*
%TO.P,LED5,3*%
%TO.N,GND*%
X166300000Y-154300000D03*
%TO.P,LED5,4*%
%TO.N,N/C*%
X166300000Y-155700000D03*
%TD*%
D19*
%TO.P,D6,1*%
%TO.N,N/C*%
X176600000Y-136650000D03*
%TO.P,D6,2*%
%TO.N,ring_home*%
X176600000Y-133350000D03*
%TD*%
D17*
%TO.P,S14,1*%
%TO.N,N/C*%
X199915000Y-128460000D03*
%TO.P,S14,2*%
%TO.N,index_home*%
X212842000Y-125920000D03*
%TD*%
%TO.P,S16,1*%
%TO.N,P18*%
X199915000Y-90460000D03*
%TO.P,S16,2*%
%TO.N,index_top*%
X212842000Y-87920000D03*
%TD*%
D19*
%TO.P,D12,1*%
%TO.N,N/C*%
X195600000Y-98650000D03*
%TO.P,D12,2*%
%TO.N,middle_top*%
X195600000Y-95350000D03*
%TD*%
D17*
%TO.P,S26,1*%
%TO.N,P16*%
X256915000Y-128460000D03*
%TO.P,S26,2*%
%TO.N,mostouter_home*%
X269842000Y-125920000D03*
%TD*%
D18*
%TO.P,LED21,1*%
%TO.N,VCC*%
X247700000Y-155700000D03*
%TO.P,LED21,2*%
%TO.N,N/C*%
X247700000Y-154300000D03*
%TO.P,LED21,3*%
%TO.N,GND*%
X242300000Y-154300000D03*
%TO.P,LED21,4*%
%TO.N,N/C*%
X242300000Y-155700000D03*
%TD*%
%TO.P,LED3,1*%
%TO.N,VCC*%
X152700000Y-117700000D03*
%TO.P,LED3,2*%
%TO.N,N/C*%
X152700000Y-116300000D03*
%TO.P,LED3,3*%
%TO.N,GND*%
X147300000Y-116300000D03*
%TO.P,LED3,4*%
%TO.N,N/C*%
X147300000Y-117700000D03*
%TD*%
D17*
%TO.P,S15,1*%
%TO.N,N/C*%
X199915000Y-109460000D03*
%TO.P,S15,2*%
%TO.N,index_middle*%
X212842000Y-106920000D03*
%TD*%
D19*
%TO.P,D18,1*%
%TO.N,N/C*%
X233600000Y-136650000D03*
%TO.P,D18,2*%
%TO.N,inner_home*%
X233600000Y-133350000D03*
%TD*%
%TO.P,D3,1*%
%TO.N,N/C*%
X157600000Y-117650000D03*
%TO.P,D3,2*%
%TO.N,pinky_middle*%
X157600000Y-114350000D03*
%TD*%
D17*
%TO.P,S7,1*%
%TO.N,N/C*%
X161915000Y-109460000D03*
%TO.P,S7,2*%
%TO.N,ring_middle*%
X174842000Y-106920000D03*
%TD*%
D18*
%TO.P,LED24,1*%
%TO.N,VCC*%
X247700000Y-98700000D03*
%TO.P,LED24,2*%
%TO.N,N/C*%
X247700000Y-97300000D03*
%TO.P,LED24,3*%
%TO.N,GND*%
X242300000Y-97300000D03*
%TO.P,LED24,4*%
%TO.N,P10*%
X242300000Y-98700000D03*
%TD*%
%TO.P,LED1,1*%
%TO.N,VCC*%
X152700000Y-155700000D03*
%TO.P,LED1,2*%
%TO.N,N/C*%
X152700000Y-154300000D03*
%TO.P,LED1,3*%
%TO.N,GND*%
X147300000Y-154300000D03*
%TO.P,LED1,4*%
%TO.N,N/C*%
X147300000Y-155700000D03*
%TD*%
D17*
%TO.P,S23,1*%
%TO.N,N/C*%
X237915000Y-109460000D03*
%TO.P,S23,2*%
%TO.N,outer_middle*%
X250842000Y-106920000D03*
%TD*%
D18*
%TO.P,LED4,1*%
%TO.N,VCC*%
X152700000Y-98700000D03*
%TO.P,LED4,2*%
%TO.N,N/C*%
X152700000Y-97300000D03*
%TO.P,LED4,3*%
%TO.N,GND*%
X147300000Y-97300000D03*
%TO.P,LED4,4*%
%TO.N,N/C*%
X147300000Y-98700000D03*
%TD*%
D19*
%TO.P,D24,1*%
%TO.N,P2*%
X252600000Y-98650000D03*
%TO.P,D24,2*%
%TO.N,outer_top*%
X252600000Y-95350000D03*
%TD*%
%TO.P,D15,1*%
%TO.N,N/C*%
X214600000Y-117650000D03*
%TO.P,D15,2*%
%TO.N,index_middle*%
X214600000Y-114350000D03*
%TD*%
%TO.P,D27,1*%
%TO.N,N/C*%
X195600000Y-174650000D03*
%TO.P,D27,2*%
%TO.N,near_default*%
X195600000Y-171350000D03*
%TD*%
D18*
%TO.P,LED29,1*%
%TO.N,VCC*%
X228700000Y-174700000D03*
%TO.P,LED29,2*%
%TO.N,N/C*%
X228700000Y-173300000D03*
%TO.P,LED29,3*%
%TO.N,GND*%
X223300000Y-173300000D03*
%TO.P,LED29,4*%
%TO.N,N/C*%
X223300000Y-174700000D03*
%TD*%
D19*
%TO.P,D30,1*%
%TO.N,P6*%
X261600000Y-174650000D03*
%TO.P,D30,2*%
%TO.N,morefar_default*%
X261600000Y-171350000D03*
%TD*%
D17*
%TO.P,S18,1*%
%TO.N,N/C*%
X218915000Y-128460000D03*
%TO.P,S18,2*%
%TO.N,inner_home*%
X231842000Y-125920000D03*
%TD*%
D18*
%TO.P,LED25,1*%
%TO.N,VCC*%
X266700000Y-155700000D03*
%TO.P,LED25,2*%
%TO.N,N/C*%
X266700000Y-154300000D03*
%TO.P,LED25,3*%
%TO.N,GND*%
X261300000Y-154300000D03*
%TO.P,LED25,4*%
%TO.N,N/C*%
X261300000Y-155700000D03*
%TD*%
%TO.P,LED8,1*%
%TO.N,VCC*%
X171700000Y-98700000D03*
%TO.P,LED8,2*%
%TO.N,N/C*%
X171700000Y-97300000D03*
%TO.P,LED8,3*%
%TO.N,GND*%
X166300000Y-97300000D03*
%TO.P,LED8,4*%
%TO.N,N/C*%
X166300000Y-98700000D03*
%TD*%
D19*
%TO.P,D17,1*%
%TO.N,N/C*%
X233600000Y-155650000D03*
%TO.P,D17,2*%
%TO.N,inner_bottom*%
X233600000Y-152350000D03*
%TD*%
D18*
%TO.P,LED22,1*%
%TO.N,VCC*%
X247700000Y-136700000D03*
%TO.P,LED22,2*%
%TO.N,N/C*%
X247700000Y-135300000D03*
%TO.P,LED22,3*%
%TO.N,GND*%
X242300000Y-135300000D03*
%TO.P,LED22,4*%
%TO.N,N/C*%
X242300000Y-136700000D03*
%TD*%
D17*
%TO.P,S9,1*%
%TO.N,N/C*%
X180915000Y-147460000D03*
%TO.P,S9,2*%
%TO.N,middle_bottom*%
X193842000Y-144920000D03*
%TD*%
%TO.P,S6,1*%
%TO.N,N/C*%
X161915000Y-128460000D03*
%TO.P,S6,2*%
%TO.N,ring_home*%
X174842000Y-125920000D03*
%TD*%
%TO.P,S10,1*%
%TO.N,N/C*%
X180915000Y-128460000D03*
%TO.P,S10,2*%
%TO.N,middle_home*%
X193842000Y-125920000D03*
%TD*%
D19*
%TO.P,D8,1*%
%TO.N,N/C*%
X176600000Y-98650000D03*
%TO.P,D8,2*%
%TO.N,ring_top*%
X176600000Y-95350000D03*
%TD*%
D17*
%TO.P,S20,1*%
%TO.N,P15*%
X218915000Y-90460000D03*
%TO.P,S20,2*%
%TO.N,inner_top*%
X231842000Y-87920000D03*
%TD*%
D19*
%TO.P,D11,1*%
%TO.N,N/C*%
X195600000Y-117650000D03*
%TO.P,D11,2*%
%TO.N,middle_middle*%
X195600000Y-114350000D03*
%TD*%
%TO.P,D21,1*%
%TO.N,N/C*%
X252600000Y-155650000D03*
%TO.P,D21,2*%
%TO.N,outer_bottom*%
X252600000Y-152350000D03*
%TD*%
%TO.P,D9,1*%
%TO.N,N/C*%
X195600000Y-155650000D03*
%TO.P,D9,2*%
%TO.N,middle_bottom*%
X195600000Y-152350000D03*
%TD*%
D18*
%TO.P,LED14,1*%
%TO.N,VCC*%
X209700000Y-136700000D03*
%TO.P,LED14,2*%
%TO.N,N/C*%
X209700000Y-135300000D03*
%TO.P,LED14,3*%
%TO.N,GND*%
X204300000Y-135300000D03*
%TO.P,LED14,4*%
%TO.N,N/C*%
X204300000Y-136700000D03*
%TD*%
D17*
%TO.P,S8,1*%
%TO.N,P20*%
X161915000Y-90460000D03*
%TO.P,S8,2*%
%TO.N,ring_top*%
X174842000Y-87920000D03*
%TD*%
D18*
%TO.P,LED23,1*%
%TO.N,VCC*%
X247700000Y-117700000D03*
%TO.P,LED23,2*%
%TO.N,N/C*%
X247700000Y-116300000D03*
%TO.P,LED23,3*%
%TO.N,GND*%
X242300000Y-116300000D03*
%TO.P,LED23,4*%
%TO.N,N/C*%
X242300000Y-117700000D03*
%TD*%
%TO.P,LED28,1*%
%TO.N,VCC*%
X209700000Y-174700000D03*
%TO.P,LED28,2*%
%TO.N,N/C*%
X209700000Y-173300000D03*
%TO.P,LED28,3*%
%TO.N,GND*%
X204300000Y-173300000D03*
%TO.P,LED28,4*%
%TO.N,N/C*%
X204300000Y-174700000D03*
%TD*%
D19*
%TO.P,D1,1*%
%TO.N,N/C*%
X157600000Y-155650000D03*
%TO.P,D1,2*%
%TO.N,pinky_bottom*%
X157600000Y-152350000D03*
%TD*%
D18*
%TO.P,LED30,1*%
%TO.N,VCC*%
X256700000Y-174700000D03*
%TO.P,LED30,2*%
%TO.N,N/C*%
X256700000Y-173300000D03*
%TO.P,LED30,3*%
%TO.N,GND*%
X251300000Y-173300000D03*
%TO.P,LED30,4*%
%TO.N,N/C*%
X251300000Y-174700000D03*
%TD*%
%TO.P,LED17,1*%
%TO.N,VCC*%
X228700000Y-155700000D03*
%TO.P,LED17,2*%
%TO.N,N/C*%
X228700000Y-154300000D03*
%TO.P,LED17,3*%
%TO.N,GND*%
X223300000Y-154300000D03*
%TO.P,LED17,4*%
%TO.N,N/C*%
X223300000Y-155700000D03*
%TD*%
D17*
%TO.P,S28,1*%
%TO.N,N/C*%
X199915000Y-166460000D03*
%TO.P,S28,2*%
%TO.N,home_default*%
X212842000Y-163920000D03*
%TD*%
D18*
%TO.P,LED19,1*%
%TO.N,VCC*%
X228700000Y-117700000D03*
%TO.P,LED19,2*%
%TO.N,N/C*%
X228700000Y-116300000D03*
%TO.P,LED19,3*%
%TO.N,GND*%
X223300000Y-116300000D03*
%TO.P,LED19,4*%
%TO.N,N/C*%
X223300000Y-117700000D03*
%TD*%
%TO.P,LED9,1*%
%TO.N,VCC*%
X190700000Y-155700000D03*
%TO.P,LED9,2*%
%TO.N,N/C*%
X190700000Y-154300000D03*
%TO.P,LED9,3*%
%TO.N,GND*%
X185300000Y-154300000D03*
%TO.P,LED9,4*%
%TO.N,N/C*%
X185300000Y-155700000D03*
%TD*%
D19*
%TO.P,D16,1*%
%TO.N,N/C*%
X214600000Y-98650000D03*
%TO.P,D16,2*%
%TO.N,index_top*%
X214600000Y-95350000D03*
%TD*%
D18*
%TO.P,LED12,1*%
%TO.N,VCC*%
X190700000Y-98700000D03*
%TO.P,LED12,2*%
%TO.N,N/C*%
X190700000Y-97300000D03*
%TO.P,LED12,3*%
%TO.N,GND*%
X185300000Y-97300000D03*
%TO.P,LED12,4*%
%TO.N,N/C*%
X185300000Y-98700000D03*
%TD*%
D17*
%TO.P,S11,1*%
%TO.N,N/C*%
X180915000Y-109460000D03*
%TO.P,S11,2*%
%TO.N,middle_middle*%
X193842000Y-106920000D03*
%TD*%
%TO.P,S17,1*%
%TO.N,N/C*%
X218915000Y-147460000D03*
%TO.P,S17,2*%
%TO.N,inner_bottom*%
X231842000Y-144920000D03*
%TD*%
D18*
%TO.P,LED7,1*%
%TO.N,VCC*%
X171700000Y-117700000D03*
%TO.P,LED7,2*%
%TO.N,N/C*%
X171700000Y-116300000D03*
%TO.P,LED7,3*%
%TO.N,GND*%
X166300000Y-116300000D03*
%TO.P,LED7,4*%
%TO.N,N/C*%
X166300000Y-117700000D03*
%TD*%
%TO.P,LED11,1*%
%TO.N,VCC*%
X190700000Y-117700000D03*
%TO.P,LED11,2*%
%TO.N,N/C*%
X190700000Y-116300000D03*
%TO.P,LED11,3*%
%TO.N,GND*%
X185300000Y-116300000D03*
%TO.P,LED11,4*%
%TO.N,N/C*%
X185300000Y-117700000D03*
%TD*%
D17*
%TO.P,S30,1*%
%TO.N,N/C*%
X246915000Y-166460000D03*
%TO.P,S30,2*%
%TO.N,morefar_default*%
X259842000Y-163920000D03*
%TD*%
D20*
%TO.N,*%
X249500000Y-154500000D03*
X173500000Y-97500000D03*
X192500000Y-116500000D03*
X249500000Y-135500000D03*
X183500000Y-137000000D03*
X183000000Y-118000000D03*
X164500000Y-118000000D03*
X154500000Y-97500000D03*
X258500000Y-173500000D03*
X183500000Y-156000000D03*
X221500000Y-175000000D03*
X211500000Y-135500000D03*
X202500000Y-156000000D03*
X268500000Y-135500000D03*
X202500000Y-175000000D03*
X145500000Y-99000000D03*
X173500000Y-135500000D03*
X154500000Y-116500000D03*
X230500000Y-116500000D03*
X145500000Y-137000000D03*
X211500000Y-154500000D03*
X192500000Y-135500000D03*
X249500000Y-97500000D03*
X211500000Y-116500000D03*
X164500000Y-99000000D03*
X202000000Y-99000000D03*
X259500000Y-156000000D03*
X202500000Y-118000000D03*
X240500000Y-137000000D03*
X145500000Y-118000000D03*
X230500000Y-135500000D03*
X249500000Y-175000000D03*
X230500000Y-97500000D03*
X230500000Y-173500000D03*
X211500000Y-173500000D03*
X211500000Y-97500000D03*
X259500000Y-137000000D03*
X202000000Y-137000000D03*
X221000000Y-118000000D03*
X183000000Y-99000000D03*
X183000000Y-176000000D03*
X192500000Y-97500000D03*
X240500000Y-118000000D03*
X164500000Y-137000000D03*
X192500000Y-154500000D03*
X230500000Y-154500000D03*
X173500000Y-154500000D03*
X221500000Y-137000000D03*
X221000000Y-99000000D03*
X221500000Y-156000000D03*
X240500000Y-156000000D03*
X192500000Y-173500000D03*
X173500000Y-116500000D03*
X145500000Y-156000000D03*
X268500000Y-154500000D03*
X164500000Y-156000000D03*
X249500000Y-116500000D03*
X154500000Y-135500000D03*
X154500000Y-154500000D03*
%TO.N,GND*%
X240500000Y-97500000D03*
X221000000Y-116500000D03*
X221000000Y-173500000D03*
X221500000Y-97000000D03*
X202000000Y-173500000D03*
X164000000Y-116500000D03*
X259500000Y-135500000D03*
X248500000Y-173500000D03*
X145000000Y-135500000D03*
X183000000Y-154500000D03*
X183500000Y-97000000D03*
X202500000Y-154500000D03*
X145000000Y-154500000D03*
X221000000Y-154500000D03*
X145500000Y-116500000D03*
X164000000Y-154500000D03*
X240000000Y-135500000D03*
X202000000Y-135500000D03*
X183000000Y-116500000D03*
X221000000Y-135500000D03*
X240000000Y-154500000D03*
X145500000Y-97000000D03*
X202000000Y-116500000D03*
X240000000Y-116500000D03*
X260500000Y-89500000D03*
X164000000Y-135500000D03*
X259000000Y-154500000D03*
X183000000Y-173500000D03*
X202000000Y-97500000D03*
X183000000Y-135500000D03*
X164000000Y-97500000D03*
%TO.N,VCC*%
X172000000Y-119500000D03*
X153000000Y-100500000D03*
X153000000Y-157500000D03*
X191000000Y-157500000D03*
X153000000Y-138500000D03*
X257000000Y-176500000D03*
X248000000Y-138500000D03*
X229000000Y-176500000D03*
X229000000Y-157500000D03*
X248000000Y-100500000D03*
X153000000Y-119500000D03*
X210000000Y-176500000D03*
X210000000Y-138500000D03*
X191000000Y-138500000D03*
X248000000Y-157500000D03*
X248000000Y-119500000D03*
X191000000Y-176500000D03*
X210000000Y-119500000D03*
X267000000Y-138500000D03*
X191000000Y-100500000D03*
X172000000Y-157500000D03*
X229000000Y-119500000D03*
X191000000Y-119500000D03*
X172000000Y-138500000D03*
X172000000Y-100500000D03*
X210000000Y-100500000D03*
X267000000Y-157500000D03*
X229000000Y-138500000D03*
X210000000Y-157500000D03*
X229000000Y-100500000D03*
%TO.N,RST*%
X260500000Y-92000000D03*
%TO.N,P21*%
X143000000Y-87500000D03*
%TO.N,P20*%
X162000000Y-87500000D03*
%TO.N,P19*%
X181000000Y-87500000D03*
%TO.N,P18*%
X200000000Y-87500000D03*
%TO.N,P15*%
X219000000Y-87500000D03*
%TO.N,P14*%
X238000000Y-87500000D03*
%TO.N,P16*%
X257000000Y-125500000D03*
%TO.N,P10*%
X240000000Y-99000000D03*
%TO.N,P2*%
X163500000Y-96000000D03*
X182500000Y-96000000D03*
X236500000Y-96000000D03*
X201500000Y-96000000D03*
X220500000Y-95500000D03*
X239500000Y-96000000D03*
X218000000Y-95500000D03*
X160500000Y-96000000D03*
X198500000Y-96000000D03*
X179500000Y-96000000D03*
X251000000Y-98500000D03*
%TO.N,P3*%
X220500000Y-114500000D03*
X237000000Y-115000000D03*
X160500000Y-115000000D03*
X179500000Y-115000000D03*
X217500000Y-114500000D03*
X198500000Y-115000000D03*
X163500000Y-115000000D03*
X182500000Y-115000000D03*
X201500000Y-115000000D03*
X252500000Y-120000000D03*
X239500000Y-115000000D03*
%TO.N,P4*%
X220500000Y-134000000D03*
X217500000Y-134000000D03*
X273500000Y-136500000D03*
X239500000Y-134000000D03*
X182500000Y-134000000D03*
X160500000Y-134000000D03*
X179500000Y-134000000D03*
X201500000Y-134000000D03*
X258500000Y-134000000D03*
X198500000Y-134000000D03*
X163500000Y-134000000D03*
X255500000Y-134000000D03*
X236500000Y-134000000D03*
%TO.N,P5*%
X179500000Y-153000000D03*
X217500000Y-153000000D03*
X182500000Y-153000000D03*
X201500000Y-153000000D03*
X258500000Y-153000000D03*
X220500000Y-153000000D03*
X271500000Y-157500000D03*
X198500000Y-153000000D03*
X255500000Y-153000000D03*
%TO.N,P6*%
X261500000Y-176500000D03*
%TD*%
D21*
%TO.N,*%
X259800000Y-136700000D02*
X259500000Y-137000000D01*
X228700000Y-154300000D02*
X230300000Y-154300000D01*
X173300000Y-154300000D02*
X173500000Y-154500000D01*
X221800000Y-155700000D02*
X221500000Y-156000000D01*
X184300000Y-174700000D02*
X183000000Y-176000000D01*
X173300000Y-116300000D02*
X173500000Y-116500000D01*
X228700000Y-173300000D02*
X230300000Y-173300000D01*
X171700000Y-135300000D02*
X173300000Y-135300000D01*
X249800000Y-174700000D02*
X249500000Y-175000000D01*
X152700000Y-135300000D02*
X154300000Y-135300000D01*
X209700000Y-154300000D02*
X211300000Y-154300000D01*
X171700000Y-116300000D02*
X173300000Y-116300000D01*
X202800000Y-117700000D02*
X202500000Y-118000000D01*
X221300000Y-98700000D02*
X221000000Y-99000000D01*
X228700000Y-97300000D02*
X230300000Y-97300000D01*
X147300000Y-98700000D02*
X145800000Y-98700000D01*
X223300000Y-117700000D02*
X221300000Y-117700000D01*
X204300000Y-155700000D02*
X202800000Y-155700000D01*
X223300000Y-136700000D02*
X221800000Y-136700000D01*
X154300000Y-154300000D02*
X154500000Y-154500000D01*
X145800000Y-136700000D02*
X145500000Y-137000000D01*
X211300000Y-97300000D02*
X211500000Y-97500000D01*
X261300000Y-136700000D02*
X259800000Y-136700000D01*
X240800000Y-117700000D02*
X240500000Y-118000000D01*
X185300000Y-155700000D02*
X183800000Y-155700000D01*
X152700000Y-154300000D02*
X154300000Y-154300000D01*
X202800000Y-155700000D02*
X202500000Y-156000000D01*
X228700000Y-116300000D02*
X230300000Y-116300000D01*
X266700000Y-135300000D02*
X268300000Y-135300000D01*
X185300000Y-136700000D02*
X183800000Y-136700000D01*
X154300000Y-135300000D02*
X154500000Y-135500000D01*
X154300000Y-97300000D02*
X154500000Y-97500000D01*
X204300000Y-174700000D02*
X202800000Y-174700000D01*
X204300000Y-98700000D02*
X202300000Y-98700000D01*
X230300000Y-135300000D02*
X230500000Y-135500000D01*
X256700000Y-173300000D02*
X258300000Y-173300000D01*
X145800000Y-117700000D02*
X145500000Y-118000000D01*
X173300000Y-97300000D02*
X173500000Y-97500000D01*
X171700000Y-154300000D02*
X173300000Y-154300000D01*
X190700000Y-154300000D02*
X192300000Y-154300000D01*
X247700000Y-97300000D02*
X249300000Y-97300000D01*
X202800000Y-174700000D02*
X202500000Y-175000000D01*
X171700000Y-97300000D02*
X173300000Y-97300000D01*
X145800000Y-98700000D02*
X145500000Y-99000000D01*
X164800000Y-117700000D02*
X164500000Y-118000000D01*
X183300000Y-117700000D02*
X183000000Y-118000000D01*
X166300000Y-98700000D02*
X164800000Y-98700000D01*
X221800000Y-174700000D02*
X221500000Y-175000000D01*
X190700000Y-135300000D02*
X192300000Y-135300000D01*
X147300000Y-155700000D02*
X145800000Y-155700000D01*
X228700000Y-135300000D02*
X230300000Y-135300000D01*
X166300000Y-117700000D02*
X164800000Y-117700000D01*
X147300000Y-136700000D02*
X145800000Y-136700000D01*
X247700000Y-154300000D02*
X249300000Y-154300000D01*
X164800000Y-98700000D02*
X164500000Y-99000000D01*
X230300000Y-173300000D02*
X230500000Y-173500000D01*
X209700000Y-135300000D02*
X211300000Y-135300000D01*
X192300000Y-173300000D02*
X192500000Y-173500000D01*
X242300000Y-155700000D02*
X240800000Y-155700000D01*
X266700000Y-154300000D02*
X268300000Y-154300000D01*
X209700000Y-97300000D02*
X211300000Y-97300000D01*
X249300000Y-97300000D02*
X249500000Y-97500000D01*
X147300000Y-117700000D02*
X145800000Y-117700000D01*
X242300000Y-117700000D02*
X240800000Y-117700000D01*
X230300000Y-154300000D02*
X230500000Y-154500000D01*
X192300000Y-116300000D02*
X192500000Y-116500000D01*
X166300000Y-136700000D02*
X164800000Y-136700000D01*
X247700000Y-135300000D02*
X249300000Y-135300000D01*
X261300000Y-155700000D02*
X259800000Y-155700000D01*
X221800000Y-136700000D02*
X221500000Y-137000000D01*
X223300000Y-98700000D02*
X221300000Y-98700000D01*
X268300000Y-135300000D02*
X268500000Y-135500000D01*
X145800000Y-155700000D02*
X145500000Y-156000000D01*
X183800000Y-155700000D02*
X183500000Y-156000000D01*
X240800000Y-155700000D02*
X240500000Y-156000000D01*
X240800000Y-136700000D02*
X240500000Y-137000000D01*
X166300000Y-155700000D02*
X164800000Y-155700000D01*
X183300000Y-98700000D02*
X183000000Y-99000000D01*
X154300000Y-116300000D02*
X154500000Y-116500000D01*
X185300000Y-98700000D02*
X183300000Y-98700000D01*
X190700000Y-97300000D02*
X192300000Y-97300000D01*
X209700000Y-116300000D02*
X211300000Y-116300000D01*
X190700000Y-173300000D02*
X192300000Y-173300000D01*
X202300000Y-136700000D02*
X202000000Y-137000000D01*
X209700000Y-173300000D02*
X211300000Y-173300000D01*
X202300000Y-98700000D02*
X202000000Y-99000000D01*
X185300000Y-174700000D02*
X184300000Y-174700000D01*
X204300000Y-136700000D02*
X202300000Y-136700000D01*
X211300000Y-173300000D02*
X211500000Y-173500000D01*
X204300000Y-117700000D02*
X202800000Y-117700000D01*
X211300000Y-116300000D02*
X211500000Y-116500000D01*
X190700000Y-116300000D02*
X192300000Y-116300000D01*
X152700000Y-97300000D02*
X154300000Y-97300000D01*
X249300000Y-154300000D02*
X249500000Y-154500000D01*
X230300000Y-116300000D02*
X230500000Y-116500000D01*
X247700000Y-116300000D02*
X249300000Y-116300000D01*
X192300000Y-135300000D02*
X192500000Y-135500000D01*
X183800000Y-136700000D02*
X183500000Y-137000000D01*
X192300000Y-154300000D02*
X192500000Y-154500000D01*
X164800000Y-136700000D02*
X164500000Y-137000000D01*
X268300000Y-154300000D02*
X268500000Y-154500000D01*
X185300000Y-117700000D02*
X183300000Y-117700000D01*
X173300000Y-135300000D02*
X173500000Y-135500000D01*
X223300000Y-155700000D02*
X221800000Y-155700000D01*
X249300000Y-116300000D02*
X249500000Y-116500000D01*
X242300000Y-136700000D02*
X240800000Y-136700000D01*
X152700000Y-116300000D02*
X154300000Y-116300000D01*
X211300000Y-135300000D02*
X211500000Y-135500000D01*
X211300000Y-154300000D02*
X211500000Y-154500000D01*
X221300000Y-117700000D02*
X221000000Y-118000000D01*
X249300000Y-135300000D02*
X249500000Y-135500000D01*
X223300000Y-174700000D02*
X221800000Y-174700000D01*
X259800000Y-155700000D02*
X259500000Y-156000000D01*
X192300000Y-97300000D02*
X192500000Y-97500000D01*
X251300000Y-174700000D02*
X249800000Y-174700000D01*
X230300000Y-97300000D02*
X230500000Y-97500000D01*
X258300000Y-173300000D02*
X258500000Y-173500000D01*
X164800000Y-155700000D02*
X164500000Y-156000000D01*
%TO.N,pinky_bottom*%
X157600000Y-146678000D02*
X155842000Y-144920000D01*
X157600000Y-152350000D02*
X157600000Y-146678000D01*
%TO.N,GND*%
X242300000Y-97300000D02*
X240700000Y-97300000D01*
X147300000Y-135300000D02*
X145200000Y-135300000D01*
X185300000Y-97300000D02*
X183800000Y-97300000D01*
X147300000Y-97300000D02*
X145800000Y-97300000D01*
X166300000Y-154300000D02*
X164200000Y-154300000D01*
X166300000Y-97300000D02*
X164200000Y-97300000D01*
X261000000Y-89500000D02*
X263800000Y-86700000D01*
X242300000Y-154300000D02*
X240200000Y-154300000D01*
X221200000Y-173300000D02*
X221000000Y-173500000D01*
X185300000Y-154300000D02*
X183200000Y-154300000D01*
X185300000Y-116300000D02*
X183200000Y-116300000D01*
X204300000Y-173300000D02*
X202200000Y-173300000D01*
X240700000Y-97300000D02*
X240500000Y-97500000D01*
X164200000Y-97300000D02*
X164000000Y-97500000D01*
X261300000Y-135300000D02*
X259700000Y-135300000D01*
X166300000Y-135300000D02*
X164200000Y-135300000D01*
X145200000Y-135300000D02*
X145000000Y-135500000D01*
X261300000Y-154300000D02*
X259200000Y-154300000D01*
X223300000Y-97300000D02*
X221800000Y-97300000D01*
X202200000Y-135300000D02*
X202000000Y-135500000D01*
X183200000Y-116300000D02*
X183000000Y-116500000D01*
X204300000Y-135300000D02*
X202200000Y-135300000D01*
X242300000Y-116300000D02*
X240200000Y-116300000D01*
X263800000Y-86700000D02*
X267300000Y-86700000D01*
X223300000Y-173300000D02*
X221200000Y-173300000D01*
X183200000Y-173300000D02*
X183000000Y-173500000D01*
X260500000Y-89500000D02*
X261000000Y-89500000D01*
X221200000Y-135300000D02*
X221000000Y-135500000D01*
X204300000Y-97300000D02*
X202200000Y-97300000D01*
X202200000Y-97300000D02*
X202000000Y-97500000D01*
X145200000Y-154300000D02*
X145000000Y-154500000D01*
X221200000Y-154300000D02*
X221000000Y-154500000D01*
X240200000Y-116300000D02*
X240000000Y-116500000D01*
X185300000Y-173300000D02*
X183200000Y-173300000D01*
X166300000Y-116300000D02*
X164200000Y-116300000D01*
X183200000Y-154300000D02*
X183000000Y-154500000D01*
X221800000Y-97300000D02*
X221500000Y-97000000D01*
X145800000Y-97300000D02*
X145500000Y-97000000D01*
X221200000Y-116300000D02*
X221000000Y-116500000D01*
X183200000Y-135300000D02*
X183000000Y-135500000D01*
X202700000Y-154300000D02*
X202500000Y-154500000D01*
X259200000Y-154300000D02*
X259000000Y-154500000D01*
X259700000Y-135300000D02*
X259500000Y-135500000D01*
X164200000Y-135300000D02*
X164000000Y-135500000D01*
X202200000Y-173300000D02*
X202000000Y-173500000D01*
X223300000Y-154300000D02*
X221200000Y-154300000D01*
X147300000Y-154300000D02*
X145200000Y-154300000D01*
X251300000Y-173300000D02*
X248700000Y-173300000D01*
X164200000Y-154300000D02*
X164000000Y-154500000D01*
X145700000Y-116300000D02*
X145500000Y-116500000D01*
X248700000Y-173300000D02*
X248500000Y-173500000D01*
X240200000Y-154300000D02*
X240000000Y-154500000D01*
X240200000Y-135300000D02*
X240000000Y-135500000D01*
X204300000Y-116300000D02*
X202200000Y-116300000D01*
X147300000Y-116300000D02*
X145700000Y-116300000D01*
X204300000Y-154300000D02*
X202700000Y-154300000D01*
X242300000Y-135300000D02*
X240200000Y-135300000D01*
X164200000Y-116300000D02*
X164000000Y-116500000D01*
X183800000Y-97300000D02*
X183500000Y-97000000D01*
X223300000Y-135300000D02*
X221200000Y-135300000D01*
X202200000Y-116300000D02*
X202000000Y-116500000D01*
X185300000Y-135300000D02*
X183200000Y-135300000D01*
X223300000Y-116300000D02*
X221200000Y-116300000D01*
%TO.N,pinky_home*%
X157600000Y-127678000D02*
X155842000Y-125920000D01*
X157600000Y-133350000D02*
X157600000Y-127678000D01*
%TO.N,pinky_middle*%
X157600000Y-114350000D02*
X157600000Y-108678000D01*
X157600000Y-108678000D02*
X155842000Y-106920000D01*
%TO.N,pinky_top*%
X157600000Y-95350000D02*
X157600000Y-89678000D01*
X157600000Y-89678000D02*
X155842000Y-87920000D01*
%TO.N,ring_bottom*%
X176600000Y-152350000D02*
X176600000Y-146678000D01*
X176600000Y-146678000D02*
X174842000Y-144920000D01*
%TO.N,ring_home*%
X176600000Y-133350000D02*
X176600000Y-127678000D01*
X176600000Y-127678000D02*
X174842000Y-125920000D01*
%TO.N,ring_middle*%
X176600000Y-108678000D02*
X174842000Y-106920000D01*
X176600000Y-114350000D02*
X176600000Y-108678000D01*
%TO.N,ring_top*%
X176600000Y-89678000D02*
X174842000Y-87920000D01*
X176600000Y-95350000D02*
X176600000Y-89678000D01*
%TO.N,middle_bottom*%
X195600000Y-152350000D02*
X195600000Y-146678000D01*
X195600000Y-146678000D02*
X193842000Y-144920000D01*
%TO.N,middle_home*%
X195600000Y-127678000D02*
X193842000Y-125920000D01*
X195600000Y-133350000D02*
X195600000Y-127678000D01*
%TO.N,middle_middle*%
X195600000Y-108678000D02*
X193842000Y-106920000D01*
X195600000Y-114350000D02*
X195600000Y-108678000D01*
%TO.N,middle_top*%
X195600000Y-95350000D02*
X195600000Y-89678000D01*
X195600000Y-89678000D02*
X193842000Y-87920000D01*
%TO.N,index_bottom*%
X214600000Y-152350000D02*
X214600000Y-146678000D01*
X214600000Y-146678000D02*
X212842000Y-144920000D01*
%TO.N,index_home*%
X214600000Y-127678000D02*
X212842000Y-125920000D01*
X214600000Y-133350000D02*
X214600000Y-127678000D01*
%TO.N,index_middle*%
X214600000Y-114350000D02*
X214600000Y-108678000D01*
X214600000Y-108678000D02*
X212842000Y-106920000D01*
%TO.N,index_top*%
X214600000Y-89678000D02*
X212842000Y-87920000D01*
X214600000Y-95350000D02*
X214600000Y-89678000D01*
%TO.N,inner_bottom*%
X233600000Y-152350000D02*
X233600000Y-146678000D01*
X233600000Y-146678000D02*
X231842000Y-144920000D01*
%TO.N,inner_home*%
X233600000Y-127678000D02*
X231842000Y-125920000D01*
X233600000Y-133350000D02*
X233600000Y-127678000D01*
%TO.N,inner_middle*%
X233600000Y-114350000D02*
X233600000Y-108678000D01*
X233600000Y-108678000D02*
X231842000Y-106920000D01*
%TO.N,inner_top*%
X233600000Y-95350000D02*
X233600000Y-89678000D01*
X233600000Y-89678000D02*
X231842000Y-87920000D01*
%TO.N,outer_bottom*%
X252600000Y-146678000D02*
X250842000Y-144920000D01*
X252600000Y-152350000D02*
X252600000Y-146678000D01*
%TO.N,outer_home*%
X252600000Y-133350000D02*
X252600000Y-127678000D01*
X252600000Y-127678000D02*
X250842000Y-125920000D01*
%TO.N,outer_middle*%
X252600000Y-108678000D02*
X250842000Y-106920000D01*
X252600000Y-114350000D02*
X252600000Y-108678000D01*
%TO.N,outer_top*%
X252600000Y-89678000D02*
X250842000Y-87920000D01*
X252600000Y-95350000D02*
X252600000Y-89678000D01*
%TO.N,mostouter_bottom*%
X271600000Y-152350000D02*
X271600000Y-146678000D01*
X271600000Y-146678000D02*
X269842000Y-144920000D01*
%TO.N,mostouter_home*%
X271600000Y-127678000D02*
X269842000Y-125920000D01*
X271600000Y-133350000D02*
X271600000Y-127678000D01*
%TO.N,near_default*%
X195600000Y-171350000D02*
X195600000Y-165678000D01*
X195600000Y-165678000D02*
X193842000Y-163920000D01*
%TO.N,home_default*%
X214600000Y-171350000D02*
X214600000Y-165678000D01*
X214600000Y-165678000D02*
X212842000Y-163920000D01*
%TO.N,far_default*%
X233600000Y-165678000D02*
X231842000Y-163920000D01*
X233600000Y-171350000D02*
X233600000Y-165678000D01*
%TO.N,morefar_default*%
X261600000Y-171350000D02*
X261600000Y-165678000D01*
X261600000Y-165678000D02*
X259842000Y-163920000D01*
%TO.N,VCC*%
X152700000Y-100200000D02*
X153000000Y-100500000D01*
X228700000Y-136700000D02*
X228700000Y-138200000D01*
X152700000Y-155700000D02*
X152700000Y-157200000D01*
X209700000Y-98700000D02*
X209700000Y-100200000D01*
X209700000Y-117700000D02*
X209700000Y-119200000D01*
X152700000Y-157200000D02*
X153000000Y-157500000D01*
X228700000Y-117700000D02*
X228700000Y-119200000D01*
X228700000Y-100200000D02*
X229000000Y-100500000D01*
X171700000Y-98700000D02*
X171700000Y-100200000D01*
X171700000Y-155700000D02*
X171700000Y-157200000D01*
X228700000Y-119200000D02*
X229000000Y-119500000D01*
X190700000Y-174700000D02*
X190700000Y-176200000D01*
X209700000Y-157200000D02*
X210000000Y-157500000D01*
X266700000Y-155700000D02*
X266700000Y-157200000D01*
X247700000Y-98700000D02*
X247700000Y-100200000D01*
X171700000Y-117700000D02*
X171700000Y-119200000D01*
X152700000Y-136700000D02*
X152700000Y-138200000D01*
X171700000Y-119200000D02*
X172000000Y-119500000D01*
X247700000Y-136700000D02*
X247700000Y-138200000D01*
X209700000Y-138200000D02*
X210000000Y-138500000D01*
X247700000Y-155700000D02*
X247700000Y-157200000D01*
X190700000Y-138200000D02*
X191000000Y-138500000D01*
X171700000Y-136700000D02*
X171700000Y-138200000D01*
X209700000Y-155700000D02*
X209700000Y-157200000D01*
X266700000Y-136700000D02*
X266700000Y-138200000D01*
X209700000Y-176200000D02*
X210000000Y-176500000D01*
X256700000Y-176200000D02*
X257000000Y-176500000D01*
X190700000Y-100200000D02*
X191000000Y-100500000D01*
X152700000Y-119200000D02*
X153000000Y-119500000D01*
X228700000Y-157200000D02*
X229000000Y-157500000D01*
X228700000Y-138200000D02*
X229000000Y-138500000D01*
X247700000Y-119200000D02*
X248000000Y-119500000D01*
X247700000Y-157200000D02*
X248000000Y-157500000D01*
X228700000Y-155700000D02*
X228700000Y-157200000D01*
X266700000Y-138200000D02*
X267000000Y-138500000D01*
X247700000Y-117700000D02*
X247700000Y-119200000D01*
X190700000Y-117700000D02*
X190700000Y-119200000D01*
X190700000Y-119200000D02*
X191000000Y-119500000D01*
X190700000Y-155700000D02*
X190700000Y-157200000D01*
X228700000Y-174700000D02*
X228700000Y-176200000D01*
X171700000Y-100200000D02*
X172000000Y-100500000D01*
X190700000Y-98700000D02*
X190700000Y-100200000D01*
X266700000Y-157200000D02*
X267000000Y-157500000D01*
X228700000Y-176200000D02*
X229000000Y-176500000D01*
X152700000Y-117700000D02*
X152700000Y-119200000D01*
X247700000Y-100200000D02*
X248000000Y-100500000D01*
X190700000Y-176200000D02*
X191000000Y-176500000D01*
X209700000Y-100200000D02*
X210000000Y-100500000D01*
X209700000Y-136700000D02*
X209700000Y-138200000D01*
X152700000Y-138200000D02*
X153000000Y-138500000D01*
X256700000Y-174700000D02*
X256700000Y-176200000D01*
X209700000Y-174700000D02*
X209700000Y-176200000D01*
X209700000Y-119200000D02*
X210000000Y-119500000D01*
X228700000Y-98700000D02*
X228700000Y-100200000D01*
X190700000Y-157200000D02*
X191000000Y-157500000D01*
X152700000Y-98700000D02*
X152700000Y-100200000D01*
X190700000Y-136700000D02*
X190700000Y-138200000D01*
X171700000Y-157200000D02*
X172000000Y-157500000D01*
X247700000Y-138200000D02*
X248000000Y-138500000D01*
X171700000Y-138200000D02*
X172000000Y-138500000D01*
%TO.N,RAW*%
X259000000Y-92500000D02*
X259500000Y-93000000D01*
X263000000Y-93000000D02*
X264000000Y-94000000D01*
X259000000Y-88650000D02*
X259000000Y-92500000D01*
X259500000Y-93000000D02*
X263000000Y-93000000D01*
X267300000Y-93800000D02*
X267500000Y-94000000D01*
X257380000Y-87030000D02*
X259000000Y-88650000D01*
X267000000Y-94000000D02*
X267300000Y-93700000D01*
X267300000Y-93700000D02*
X267300000Y-93800000D01*
X264000000Y-94000000D02*
X267000000Y-94000000D01*
%TO.N,RST*%
X272000000Y-118000000D02*
X272000000Y-119250000D01*
X274500000Y-115500000D02*
X272000000Y-118000000D01*
X274500000Y-84500000D02*
X274500000Y-115500000D01*
X273000000Y-83000000D02*
X274500000Y-84500000D01*
X259500000Y-91000000D02*
X259500000Y-88500000D01*
X273500000Y-120750000D02*
X273500000Y-124750000D01*
X265000000Y-83000000D02*
X273000000Y-83000000D01*
X260500000Y-92000000D02*
X259500000Y-91000000D01*
X259500000Y-88500000D02*
X265000000Y-83000000D01*
X272000000Y-119250000D02*
X273500000Y-120750000D01*
%TO.N,P21*%
X142915000Y-109460000D02*
X142915000Y-128460000D01*
X142915000Y-128460000D02*
X142915000Y-147460000D01*
X142915000Y-87585000D02*
X143000000Y-87500000D01*
X142915000Y-90460000D02*
X142915000Y-109460000D01*
X142915000Y-90460000D02*
X142915000Y-87585000D01*
%TO.N,P20*%
X161915000Y-109460000D02*
X161915000Y-128460000D01*
X161915000Y-90460000D02*
X161915000Y-109460000D01*
X161915000Y-87585000D02*
X162000000Y-87500000D01*
X161915000Y-128460000D02*
X161915000Y-147460000D01*
X161915000Y-90460000D02*
X161915000Y-87585000D01*
%TO.N,P19*%
X180915000Y-87585000D02*
X181000000Y-87500000D01*
X180915000Y-90460000D02*
X180915000Y-109460000D01*
X180915000Y-90460000D02*
X180915000Y-87585000D01*
X180915000Y-128460000D02*
X180915000Y-147460000D01*
X180915000Y-109460000D02*
X180915000Y-128460000D01*
X180915000Y-147460000D02*
X180915000Y-166460000D01*
%TO.N,P18*%
X199915000Y-147460000D02*
X199915000Y-166460000D01*
X199915000Y-90460000D02*
X199915000Y-87585000D01*
X199915000Y-128460000D02*
X199915000Y-147460000D01*
X199915000Y-90460000D02*
X199915000Y-109460000D01*
X199915000Y-109460000D02*
X199915000Y-128460000D01*
X199915000Y-87585000D02*
X200000000Y-87500000D01*
%TO.N,P15*%
X218915000Y-90460000D02*
X218915000Y-87585000D01*
X218915000Y-90460000D02*
X218915000Y-109460000D01*
X218915000Y-87585000D02*
X219000000Y-87500000D01*
X218915000Y-109460000D02*
X218915000Y-128460000D01*
X218915000Y-128460000D02*
X218915000Y-147460000D01*
X218915000Y-147460000D02*
X218915000Y-166460000D01*
%TO.N,P14*%
X237915000Y-128460000D02*
X237915000Y-147460000D01*
X237915000Y-109460000D02*
X237915000Y-128460000D01*
X237915000Y-87585000D02*
X238000000Y-87500000D01*
X237915000Y-90460000D02*
X237915000Y-87585000D01*
X237915000Y-90460000D02*
X237915000Y-109460000D01*
%TO.N,P16*%
X256915000Y-128460000D02*
X256915000Y-147460000D01*
X256915000Y-128460000D02*
X256915000Y-125585000D01*
X256915000Y-147460000D02*
X256915000Y-156460000D01*
X256915000Y-125585000D02*
X257000000Y-125500000D01*
X256915000Y-156460000D02*
X246915000Y-166460000D01*
%TO.N,P10*%
X242300000Y-98700000D02*
X240300000Y-98700000D01*
X240300000Y-98700000D02*
X240000000Y-99000000D01*
%TO.N,P2*%
X251150000Y-98650000D02*
X251000000Y-98500000D01*
X198500000Y-96000000D02*
X198000000Y-96500000D01*
X160500000Y-96000000D02*
X157850000Y-98650000D01*
X195600000Y-98650000D02*
X192950000Y-96000000D01*
X198000000Y-96500000D02*
X197750000Y-96500000D01*
X211950000Y-96000000D02*
X201500000Y-96000000D01*
X157850000Y-98650000D02*
X157600000Y-98650000D01*
X197750000Y-96500000D02*
X195600000Y-98650000D01*
X179000000Y-96500000D02*
X178750000Y-96500000D01*
X233850000Y-98650000D02*
X233600000Y-98650000D01*
X176600000Y-98650000D02*
X173950000Y-96000000D01*
X178750000Y-96500000D02*
X176600000Y-98650000D01*
X192950000Y-96000000D02*
X182500000Y-96000000D01*
X230450000Y-95500000D02*
X220500000Y-95500000D01*
X233600000Y-98650000D02*
X230450000Y-95500000D01*
X214600000Y-98650000D02*
X211950000Y-96000000D01*
X252600000Y-98650000D02*
X251150000Y-98650000D01*
X179500000Y-96000000D02*
X179000000Y-96500000D01*
X173950000Y-96000000D02*
X163500000Y-96000000D01*
X218000000Y-95500000D02*
X214850000Y-98650000D01*
X252600000Y-98650000D02*
X249950000Y-96000000D01*
X236500000Y-96000000D02*
X233850000Y-98650000D01*
X249950000Y-96000000D02*
X239500000Y-96000000D01*
X214850000Y-98650000D02*
X214600000Y-98650000D01*
%TO.N,P3*%
X176600000Y-117650000D02*
X173950000Y-115000000D01*
X252600000Y-117650000D02*
X252600000Y-119900000D01*
X195600000Y-117650000D02*
X192950000Y-115000000D01*
X192950000Y-115000000D02*
X182500000Y-115000000D01*
X214600000Y-117400000D02*
X214600000Y-117650000D01*
X160500000Y-115000000D02*
X157850000Y-117650000D01*
X217500000Y-114500000D02*
X214600000Y-117400000D01*
X249950000Y-115000000D02*
X239500000Y-115000000D01*
X230450000Y-114500000D02*
X220500000Y-114500000D01*
X233600000Y-117650000D02*
X230450000Y-114500000D01*
X211950000Y-115000000D02*
X201500000Y-115000000D01*
X179500000Y-115000000D02*
X176850000Y-117650000D01*
X234350000Y-117650000D02*
X233600000Y-117650000D01*
X252600000Y-117650000D02*
X249950000Y-115000000D01*
X214600000Y-117650000D02*
X211950000Y-115000000D01*
X197750000Y-115500000D02*
X195600000Y-117650000D01*
X252600000Y-119900000D02*
X252500000Y-120000000D01*
X198000000Y-115500000D02*
X197750000Y-115500000D01*
X157850000Y-117650000D02*
X157600000Y-117650000D01*
X237000000Y-115000000D02*
X234350000Y-117650000D01*
X173950000Y-115000000D02*
X163500000Y-115000000D01*
X176850000Y-117650000D02*
X176600000Y-117650000D01*
X198500000Y-115000000D02*
X198000000Y-115500000D01*
%TO.N,P4*%
X235750000Y-134500000D02*
X233600000Y-136650000D01*
X160500000Y-134000000D02*
X160000000Y-134500000D01*
X195600000Y-136650000D02*
X192950000Y-134000000D01*
X214850000Y-136650000D02*
X214600000Y-136650000D01*
X249950000Y-134000000D02*
X239500000Y-134000000D01*
X192950000Y-134000000D02*
X182500000Y-134000000D01*
X233600000Y-136650000D02*
X230950000Y-134000000D01*
X211950000Y-134000000D02*
X201500000Y-134000000D01*
X214600000Y-136650000D02*
X211950000Y-134000000D01*
X252600000Y-136650000D02*
X249950000Y-134000000D01*
X179000000Y-134500000D02*
X178750000Y-134500000D01*
X236500000Y-134000000D02*
X236000000Y-134500000D01*
X198250000Y-134000000D02*
X195600000Y-136650000D01*
X160000000Y-134500000D02*
X159750000Y-134500000D01*
X255500000Y-134000000D02*
X255000000Y-134500000D01*
X173950000Y-134000000D02*
X163500000Y-134000000D01*
X271600000Y-136650000D02*
X273350000Y-136650000D01*
X255000000Y-134500000D02*
X254750000Y-134500000D01*
X273350000Y-136650000D02*
X273500000Y-136500000D01*
X179500000Y-134000000D02*
X179000000Y-134500000D01*
X178750000Y-134500000D02*
X176600000Y-136650000D01*
X217500000Y-134000000D02*
X214850000Y-136650000D01*
X159750000Y-134500000D02*
X157600000Y-136650000D01*
X236000000Y-134500000D02*
X235750000Y-134500000D01*
X268950000Y-134000000D02*
X258500000Y-134000000D01*
X176600000Y-136650000D02*
X173950000Y-134000000D01*
X230950000Y-134000000D02*
X220500000Y-134000000D01*
X271600000Y-136650000D02*
X268950000Y-134000000D01*
X254750000Y-134500000D02*
X252600000Y-136650000D01*
X198500000Y-134000000D02*
X198250000Y-134000000D01*
%TO.N,P5*%
X214850000Y-155650000D02*
X214600000Y-155650000D01*
X230950000Y-153000000D02*
X220500000Y-153000000D01*
X268950000Y-153000000D02*
X258500000Y-153000000D01*
X195600000Y-155650000D02*
X192950000Y-153000000D01*
X176600000Y-155650000D02*
X173950000Y-153000000D01*
X217500000Y-153000000D02*
X214850000Y-155650000D01*
X236250000Y-153000000D02*
X233600000Y-155650000D01*
X250425000Y-153425000D02*
X250000000Y-153000000D01*
X250425000Y-153475000D02*
X250425000Y-153425000D01*
X179500000Y-153000000D02*
X176850000Y-155650000D01*
X233600000Y-155650000D02*
X230950000Y-153000000D01*
X252600000Y-155650000D02*
X250425000Y-153475000D01*
X255500000Y-153000000D02*
X255000000Y-153500000D01*
X255000000Y-153500000D02*
X254750000Y-153500000D01*
X271600000Y-157400000D02*
X271500000Y-157500000D01*
X195850000Y-155650000D02*
X195600000Y-155650000D01*
X192950000Y-153000000D02*
X182500000Y-153000000D01*
X158350000Y-155650000D02*
X157600000Y-155650000D01*
X173950000Y-153000000D02*
X161000000Y-153000000D01*
X250000000Y-153000000D02*
X236250000Y-153000000D01*
X254750000Y-153500000D02*
X252600000Y-155650000D01*
X176850000Y-155650000D02*
X176600000Y-155650000D01*
X214600000Y-155650000D02*
X211950000Y-153000000D01*
X161000000Y-153000000D02*
X158350000Y-155650000D01*
X271600000Y-155650000D02*
X268950000Y-153000000D01*
X198500000Y-153000000D02*
X195850000Y-155650000D01*
X211950000Y-153000000D02*
X201500000Y-153000000D01*
X271600000Y-155650000D02*
X271600000Y-157400000D01*
%TO.N,P6*%
X217250000Y-172000000D02*
X214600000Y-174650000D01*
X261600000Y-176400000D02*
X261500000Y-176500000D01*
X231425000Y-172475000D02*
X231425000Y-172425000D01*
X233600000Y-174650000D02*
X231425000Y-172475000D01*
X197350000Y-174650000D02*
X195600000Y-174650000D01*
X261600000Y-174650000D02*
X261600000Y-176400000D01*
X259000000Y-172000000D02*
X236250000Y-172000000D01*
X214600000Y-174650000D02*
X211950000Y-172000000D01*
X231000000Y-172000000D02*
X217250000Y-172000000D01*
X231425000Y-172425000D02*
X231000000Y-172000000D01*
X211950000Y-172000000D02*
X200000000Y-172000000D01*
X236250000Y-172000000D02*
X233600000Y-174650000D01*
X261600000Y-174600000D02*
X259000000Y-172000000D01*
X200000000Y-172000000D02*
X197350000Y-174650000D01*
X261600000Y-174650000D02*
X261600000Y-174600000D01*
%TD*%
M02*
