%TF.GenerationSoftware,KiCad,Pcbnew,8.0.8-8.0.8-0~ubuntu24.04.1*%
%TF.CreationDate,2025-01-29T12:56:02-05:00*%
%TF.ProjectId,nitsud,6e697473-7564-42e6-9b69-6361645f7063,v1.0.0*%
%TF.SameCoordinates,Original*%
%TF.FileFunction,Copper,L2,Inr*%
%TF.FilePolarity,Positive*%
%FSLAX46Y46*%
G04 Gerber Fmt 4.6, Leading zero omitted, Abs format (unit mm)*
G04 Created by KiCad (PCBNEW 8.0.8-8.0.8-0~ubuntu24.04.1) date 2025-01-29 12:56:02*
%MOMM*%
%LPD*%
G01*
G04 APERTURE LIST*
%TA.AperFunction,ComponentPad*%
%ADD10R,1.752600X1.752600*%
%TD*%
%TA.AperFunction,ComponentPad*%
%ADD11C,1.752600*%
%TD*%
%TA.AperFunction,ComponentPad*%
%ADD12O,1.600000X2.200000*%
%TD*%
%TA.AperFunction,ComponentPad*%
%ADD13C,1.700000*%
%TD*%
%TA.AperFunction,ComponentPad*%
%ADD14C,3.800000*%
%TD*%
%TA.AperFunction,ComponentPad*%
%ADD15R,1.700000X1.700000*%
%TD*%
%TA.AperFunction,ComponentPad*%
%ADD16O,1.700000X1.700000*%
%TD*%
%TA.AperFunction,ViaPad*%
%ADD17C,0.800000*%
%TD*%
%TA.AperFunction,Conductor*%
%ADD18C,0.250000*%
%TD*%
G04 APERTURE END LIST*
D10*
%TO.N,RAW*%
%TO.C,MCU1*%
X257380000Y-87030000D03*
D11*
%TO.N,GND*%
X257380000Y-89570000D03*
%TO.N,RST*%
X257380000Y-92110000D03*
%TO.N,VCC*%
X257380000Y-94650000D03*
%TO.N,P21*%
X257380000Y-97190000D03*
%TO.N,P20*%
X257380000Y-99730000D03*
%TO.N,P19*%
X257380000Y-102270000D03*
%TO.N,P18*%
X257380000Y-104810000D03*
%TO.N,P15*%
X257380000Y-107350000D03*
%TO.N,P14*%
X257380000Y-109890000D03*
%TO.N,P16*%
X257380000Y-112430000D03*
%TO.N,P10*%
X257380000Y-114970000D03*
%TO.N,P1*%
X272620000Y-87030000D03*
%TO.N,P0*%
X272620000Y-89570000D03*
%TO.N,GND*%
X272620000Y-92110000D03*
X272620000Y-94650000D03*
%TO.N,P2*%
X272620000Y-97190000D03*
%TO.N,P3*%
X272620000Y-99730000D03*
%TO.N,P4*%
X272620000Y-102270000D03*
%TO.N,P5*%
X272620000Y-104810000D03*
%TO.N,P6*%
X272620000Y-107350000D03*
%TO.N,P7*%
X272620000Y-109890000D03*
%TO.N,P8*%
X272620000Y-112430000D03*
%TO.N,P9*%
X272620000Y-114970000D03*
%TD*%
D12*
%TO.N,GND*%
%TO.C,TRRS1*%
X267300000Y-86700000D03*
%TO.N,P1*%
X267300000Y-89700000D03*
%TO.N,RAW*%
X267300000Y-93700000D03*
%TO.N,P0*%
X262700000Y-94800000D03*
%TD*%
D13*
%TO.N,RST*%
%TO.C,RST1*%
X273500000Y-124750000D03*
%TO.N,GND*%
X273500000Y-118250000D03*
%TD*%
D14*
%TO.N,*%
%TO.C,H2*%
X159500000Y-140500000D03*
%TD*%
D15*
%TO.N,GND*%
%TO.C,OLED1*%
X268800000Y-118400000D03*
D16*
%TO.N,VCC*%
X266260000Y-118400000D03*
%TO.N,P9*%
X263720000Y-118400000D03*
%TO.N,P8*%
X261180000Y-118400000D03*
%TD*%
D14*
%TO.N,*%
%TO.C,H4*%
X235500000Y-159500000D03*
%TD*%
%TO.N,*%
%TO.C,H1*%
X159500000Y-102500000D03*
%TD*%
%TO.N,*%
%TO.C,H3*%
X235500000Y-102500000D03*
%TD*%
D17*
%TO.N,*%
X249500000Y-154500000D03*
X173500000Y-97500000D03*
X192500000Y-116500000D03*
X249500000Y-135500000D03*
X183500000Y-137000000D03*
X183000000Y-118000000D03*
X164500000Y-118000000D03*
X154500000Y-97500000D03*
X258500000Y-173500000D03*
X183500000Y-156000000D03*
X221500000Y-175000000D03*
X211500000Y-135500000D03*
X202500000Y-156000000D03*
X268500000Y-135500000D03*
X202500000Y-175000000D03*
X145500000Y-99000000D03*
X173500000Y-135500000D03*
X154500000Y-116500000D03*
X230500000Y-116500000D03*
X145500000Y-137000000D03*
X211500000Y-154500000D03*
X192500000Y-135500000D03*
X249500000Y-97500000D03*
X211500000Y-116500000D03*
X164500000Y-99000000D03*
X202000000Y-99000000D03*
X259500000Y-156000000D03*
X202500000Y-118000000D03*
X240500000Y-137000000D03*
X145500000Y-118000000D03*
X230500000Y-135500000D03*
X249500000Y-175000000D03*
X230500000Y-97500000D03*
X230500000Y-173500000D03*
X211500000Y-173500000D03*
X211500000Y-97500000D03*
X259500000Y-137000000D03*
X202000000Y-137000000D03*
X221000000Y-118000000D03*
X183000000Y-99000000D03*
X183000000Y-176000000D03*
X192500000Y-97500000D03*
X240500000Y-118000000D03*
X164500000Y-137000000D03*
X192500000Y-154500000D03*
X230500000Y-154500000D03*
X173500000Y-154500000D03*
X221500000Y-137000000D03*
X221000000Y-99000000D03*
X221500000Y-156000000D03*
X240500000Y-156000000D03*
X192500000Y-173500000D03*
X173500000Y-116500000D03*
X145500000Y-156000000D03*
X268500000Y-154500000D03*
X164500000Y-156000000D03*
X249500000Y-116500000D03*
X154500000Y-135500000D03*
X154500000Y-154500000D03*
%TO.N,GND*%
X240500000Y-97500000D03*
X221000000Y-116500000D03*
X221000000Y-173500000D03*
X221500000Y-97000000D03*
X202000000Y-173500000D03*
X164000000Y-116500000D03*
X259500000Y-135500000D03*
X248500000Y-173500000D03*
X145000000Y-135500000D03*
X183000000Y-154500000D03*
X183500000Y-97000000D03*
X202500000Y-154500000D03*
X145000000Y-154500000D03*
X221000000Y-154500000D03*
X145500000Y-116500000D03*
X164000000Y-154500000D03*
X240000000Y-135500000D03*
X202000000Y-135500000D03*
X183000000Y-116500000D03*
X221000000Y-135500000D03*
X240000000Y-154500000D03*
X145500000Y-97000000D03*
X202000000Y-116500000D03*
X240000000Y-116500000D03*
X260500000Y-89500000D03*
X164000000Y-135500000D03*
X259000000Y-154500000D03*
X183000000Y-173500000D03*
X202000000Y-97500000D03*
X183000000Y-135500000D03*
X164000000Y-97500000D03*
%TO.N,VCC*%
X172000000Y-119500000D03*
X153000000Y-100500000D03*
X153000000Y-157500000D03*
X191000000Y-157500000D03*
X153000000Y-138500000D03*
X257000000Y-176500000D03*
X248000000Y-138500000D03*
X229000000Y-176500000D03*
X229000000Y-157500000D03*
X248000000Y-100500000D03*
X153000000Y-119500000D03*
X210000000Y-176500000D03*
X210000000Y-138500000D03*
X191000000Y-138500000D03*
X248000000Y-157500000D03*
X248000000Y-119500000D03*
X191000000Y-176500000D03*
X210000000Y-119500000D03*
X267000000Y-138500000D03*
X191000000Y-100500000D03*
X172000000Y-157500000D03*
X229000000Y-119500000D03*
X191000000Y-119500000D03*
X172000000Y-138500000D03*
X172000000Y-100500000D03*
X210000000Y-100500000D03*
X267000000Y-157500000D03*
X229000000Y-138500000D03*
X210000000Y-157500000D03*
X229000000Y-100500000D03*
%TO.N,RST*%
X260500000Y-92000000D03*
%TO.N,P21*%
X143000000Y-87500000D03*
%TO.N,P20*%
X162000000Y-87500000D03*
%TO.N,P19*%
X181000000Y-87500000D03*
%TO.N,P18*%
X200000000Y-87500000D03*
%TO.N,P15*%
X219000000Y-87500000D03*
%TO.N,P14*%
X238000000Y-87500000D03*
%TO.N,P16*%
X257000000Y-125500000D03*
%TO.N,P10*%
X240000000Y-99000000D03*
%TO.N,P2*%
X163500000Y-96000000D03*
X182500000Y-96000000D03*
X236500000Y-96000000D03*
X201500000Y-96000000D03*
X220500000Y-95500000D03*
X239500000Y-96000000D03*
X218000000Y-95500000D03*
X160500000Y-96000000D03*
X198500000Y-96000000D03*
X179500000Y-96000000D03*
X251000000Y-98500000D03*
%TO.N,P3*%
X220500000Y-114500000D03*
X237000000Y-115000000D03*
X160500000Y-115000000D03*
X179500000Y-115000000D03*
X217500000Y-114500000D03*
X198500000Y-115000000D03*
X163500000Y-115000000D03*
X182500000Y-115000000D03*
X201500000Y-115000000D03*
X252500000Y-120000000D03*
X239500000Y-115000000D03*
%TO.N,P4*%
X220500000Y-134000000D03*
X217500000Y-134000000D03*
X273500000Y-136500000D03*
X239500000Y-134000000D03*
X182500000Y-134000000D03*
X160500000Y-134000000D03*
X179500000Y-134000000D03*
X201500000Y-134000000D03*
X258500000Y-134000000D03*
X198500000Y-134000000D03*
X163500000Y-134000000D03*
X255500000Y-134000000D03*
X236500000Y-134000000D03*
%TO.N,P5*%
X179500000Y-153000000D03*
X217500000Y-153000000D03*
X182500000Y-153000000D03*
X201500000Y-153000000D03*
X258500000Y-153000000D03*
X220500000Y-153000000D03*
X271500000Y-157500000D03*
X198500000Y-153000000D03*
X255500000Y-153000000D03*
%TO.N,P6*%
X261500000Y-176500000D03*
%TD*%
D18*
%TO.N,*%
X184500000Y-133000000D02*
X172000000Y-133000000D01*
X186500000Y-172500000D02*
X183000000Y-176000000D01*
X194000000Y-118000000D02*
X202500000Y-118000000D01*
X192500000Y-116500000D02*
X194000000Y-118000000D01*
X203500000Y-96000000D02*
X202775000Y-95275000D01*
X156000000Y-118000000D02*
X164500000Y-118000000D01*
X232000000Y-118000000D02*
X240500000Y-118000000D01*
X210000000Y-133000000D02*
X206000000Y-137000000D01*
X210500000Y-172500000D02*
X186500000Y-172500000D01*
X154500000Y-135500000D02*
X154500000Y-139000000D01*
X167000000Y-97500000D02*
X164775000Y-95275000D01*
X211500000Y-173500000D02*
X210500000Y-172500000D01*
X168000000Y-137000000D02*
X164500000Y-137000000D01*
X230500000Y-116500000D02*
X232000000Y-118000000D01*
X213000000Y-156000000D02*
X221500000Y-156000000D01*
X189500000Y-96000000D02*
X189000000Y-96000000D01*
X175000000Y-156000000D02*
X183500000Y-156000000D01*
X154500000Y-139000000D02*
X152000000Y-141500000D01*
X172000000Y-133000000D02*
X168000000Y-137000000D01*
X186000000Y-99000000D02*
X183000000Y-99000000D01*
X248725000Y-96725000D02*
X223275000Y-96725000D01*
X222500000Y-134000000D02*
X221500000Y-133000000D01*
X164775000Y-95275000D02*
X153225000Y-95275000D01*
X249500000Y-97500000D02*
X248725000Y-96725000D01*
X146500000Y-141500000D02*
X142000000Y-146000000D01*
X247500000Y-139500000D02*
X245000000Y-137000000D01*
X251000000Y-156000000D02*
X259500000Y-156000000D01*
X142000000Y-146000000D02*
X142000000Y-154500000D01*
X152000000Y-141500000D02*
X146500000Y-141500000D01*
X173500000Y-97500000D02*
X167000000Y-97500000D01*
X258500000Y-173500000D02*
X257000000Y-172000000D01*
X190225000Y-95275000D02*
X189500000Y-96000000D01*
X268500000Y-138500000D02*
X267500000Y-139500000D01*
X191000000Y-134000000D02*
X185500000Y-134000000D01*
X173500000Y-154500000D02*
X175000000Y-156000000D01*
X142000000Y-154500000D02*
X143500000Y-156000000D01*
X210000000Y-96000000D02*
X203500000Y-96000000D01*
X221500000Y-133000000D02*
X210000000Y-133000000D01*
X143500000Y-156000000D02*
X145500000Y-156000000D01*
X153225000Y-95275000D02*
X149500000Y-99000000D01*
X154500000Y-116500000D02*
X156000000Y-118000000D01*
X211500000Y-154500000D02*
X213000000Y-156000000D01*
X206000000Y-137000000D02*
X202000000Y-137000000D01*
X229000000Y-134000000D02*
X222500000Y-134000000D01*
X222000000Y-175000000D02*
X221500000Y-175000000D01*
X245000000Y-137000000D02*
X240500000Y-137000000D01*
X225000000Y-172000000D02*
X222000000Y-175000000D01*
X192500000Y-135500000D02*
X191000000Y-134000000D01*
X268500000Y-135500000D02*
X268500000Y-138500000D01*
X230500000Y-135500000D02*
X229000000Y-134000000D01*
X223275000Y-96725000D02*
X221000000Y-99000000D01*
X267500000Y-139500000D02*
X247500000Y-139500000D01*
X185500000Y-134000000D02*
X184500000Y-133000000D01*
X202775000Y-95275000D02*
X190225000Y-95275000D01*
X257000000Y-172000000D02*
X225000000Y-172000000D01*
X189000000Y-96000000D02*
X186000000Y-99000000D01*
X249500000Y-154500000D02*
X251000000Y-156000000D01*
X149500000Y-99000000D02*
X145500000Y-99000000D01*
X211500000Y-97500000D02*
X210000000Y-96000000D01*
%TO.N,P21*%
X257380000Y-97190000D02*
X256190000Y-96000000D01*
X256000000Y-83500000D02*
X255118198Y-82618198D01*
X256000000Y-96000000D02*
X256000000Y-83500000D01*
X147881802Y-82618198D02*
X143000000Y-87500000D01*
X255118198Y-82618198D02*
X147881802Y-82618198D01*
X256190000Y-96000000D02*
X256000000Y-96000000D01*
%TO.N,P20*%
X255500000Y-83636396D02*
X254931802Y-83068198D01*
X255500000Y-97850000D02*
X255500000Y-83636396D01*
X257380000Y-99730000D02*
X255500000Y-97850000D01*
X166431802Y-83068198D02*
X162000000Y-87500000D01*
X254931802Y-83068198D02*
X166431802Y-83068198D01*
%TO.N,P19*%
X184981802Y-83518198D02*
X181000000Y-87500000D01*
X254518198Y-83518198D02*
X184981802Y-83518198D01*
X255000000Y-84000000D02*
X254518198Y-83518198D01*
X257380000Y-102270000D02*
X255000000Y-99890000D01*
X255000000Y-99890000D02*
X255000000Y-84000000D01*
%TO.N,P18*%
X254500000Y-84500000D02*
X254000000Y-84000000D01*
X254500000Y-101930000D02*
X254500000Y-84500000D01*
X203500000Y-84000000D02*
X200000000Y-87500000D01*
X254000000Y-84000000D02*
X203500000Y-84000000D01*
X257380000Y-104810000D02*
X254500000Y-101930000D01*
%TO.N,P15*%
X257380000Y-107350000D02*
X254000000Y-103970000D01*
X253500000Y-84500000D02*
X222000000Y-84500000D01*
X254000000Y-103970000D02*
X254000000Y-85000000D01*
X254000000Y-85000000D02*
X253500000Y-84500000D01*
X222000000Y-84500000D02*
X219000000Y-87500000D01*
%TO.N,P14*%
X240500000Y-85000000D02*
X238000000Y-87500000D01*
X253500000Y-85500000D02*
X253000000Y-85000000D01*
X257380000Y-109890000D02*
X253500000Y-106010000D01*
X253500000Y-106010000D02*
X253500000Y-85500000D01*
X253000000Y-85000000D02*
X240500000Y-85000000D01*
%TO.N,P16*%
X255570000Y-112430000D02*
X255000000Y-113000000D01*
X257380000Y-112430000D02*
X255570000Y-112430000D01*
X255000000Y-113000000D02*
X255000000Y-123500000D01*
X255000000Y-123500000D02*
X257000000Y-125500000D01*
%TD*%
M02*
