solid csg.js
facet normal 0 0 -1
outer loop
vertex 274.50029779999994 -81.50000219999998 0
vertex 274.67394597766696 -81.51519444698779 0
vertex 274.84231794332567 -81.56030957921408 0
endloop
endfacet
facet normal 0 0 -1
outer loop
vertex 274.50029779999994 -81.50000219999998 0
vertex 274.84231794332567 -81.56030957921408 0
vertex 275.00029780000017 -81.63397679621563 0
endloop
endfacet
facet normal 0 0 -1
outer loop
vertex 274.50029779999994 -81.50000219999998 0
vertex 275.00029780000017 -81.63397679621563 0
vertex 275.1430854096865 -81.73395775688095 0
endloop
endfacet
facet normal 0 0 -1
outer loop
vertex 274.50029779999994 -81.50000219999998 0
vertex 275.1430854096865 -81.73395775688095 0
vertex 275.266342243119 -81.85721459031352 0
endloop
endfacet
facet normal 0 0 -1
outer loop
vertex 274.50029779999994 -81.50000219999998 0
vertex 275.266342243119 -81.85721459031352 0
vertex 275.3663232037843 -82.00000219999981 0
endloop
endfacet
facet normal 0 0 -1
outer loop
vertex 274.50029779999994 -81.50000219999998 0
vertex 275.3663232037843 -82.00000219999981 0
vertex 275.43999042078593 -82.15798205667443 0
endloop
endfacet
facet normal 0 0 -1
outer loop
vertex 274.50029779999994 -81.50000219999998 0
vertex 275.43999042078593 -82.15798205667443 0
vertex 275.48510555301226 -82.32635402233336 0
endloop
endfacet
facet normal 0 0 -1
outer loop
vertex 274.50029779999994 -81.50000219999998 0
vertex 275.48510555301226 -82.32635402233336 0
vertex 275.5002956000001 -82.50000440000021 0
endloop
endfacet
facet normal 0 0 -1
outer loop
vertex 274.50029779999994 -81.50000219999998 0
vertex 275.5002956000001 -82.50000440000021 0
vertex 275.5 -150.0000043999088 0
endloop
endfacet
facet normal 0 0 -1
outer loop
vertex 274.50029779999994 -81.50000219999998 0
vertex 275.5 -150.0000043999088 0
vertex 138.5 -150.0000043999088 0
endloop
endfacet
facet normal 0 0 -1
outer loop
vertex 274.50029779999994 -81.50000219999998 0
vertex 138.5 -150.0000043999088 0
vertex 138.5 -82.50000000000004 0
endloop
endfacet
facet normal 0 0 -1
outer loop
vertex 274.50029779999994 -81.50000219999998 0
vertex 138.5 -82.50000000000004 0
vertex 138.5151922469878 -82.32635182233292 0
endloop
endfacet
facet normal 0 0 -1
outer loop
vertex 274.50029779999994 -81.50000219999998 0
vertex 138.5151922469878 -82.32635182233292 0
vertex 138.56030737921404 -82.15797985667447 0
endloop
endfacet
facet normal 0 0 -1
outer loop
vertex 274.50029779999994 -81.50000219999998 0
vertex 138.56030737921404 -82.15797985667447 0
vertex 138.6339745962156 -81.99999999999993 0
endloop
endfacet
facet normal 0 0 -1
outer loop
vertex 274.50029779999994 -81.50000219999998 0
vertex 138.6339745962156 -81.99999999999993 0
vertex 138.7339555568811 -81.85721239031336 0
endloop
endfacet
facet normal 0 0 -1
outer loop
vertex 274.50029779999994 -81.50000219999998 0
vertex 138.7339555568811 -81.85721239031336 0
vertex 138.85721239031344 -81.73395555688104 0
endloop
endfacet
facet normal 0 0 -1
outer loop
vertex 274.50029779999994 -81.50000219999998 0
vertex 138.85721239031344 -81.73395555688104 0
vertex 138.99999999999991 -81.63397459621562 0
endloop
endfacet
facet normal 0 0 -1
outer loop
vertex 274.50029779999994 -81.50000219999998 0
vertex 138.99999999999991 -81.63397459621562 0
vertex 139.15797985667444 -81.56030737921407 0
endloop
endfacet
facet normal 0 0 -1
outer loop
vertex 274.50029779999994 -81.50000219999998 0
vertex 139.15797985667444 -81.56030737921407 0
vertex 139.3263518223331 -81.51519224698778 0
endloop
endfacet
facet normal 0 0 -1
outer loop
vertex 274.50029779999994 -81.50000219999998 0
vertex 139.3263518223331 -81.51519224698778 0
vertex 139.49999999999994 -81.49999999999999 0
endloop
endfacet
facet normal 0 0 -1
outer loop
vertex 275.5 -150.0000043999088 0
vertex 275.5018860097889 -161.5 0
vertex 175.4999999999999 -161.5 0
endloop
endfacet
facet normal 0 0 -1
outer loop
vertex 275.5 -150.0000043999088 0
vertex 175.4999999999999 -161.5 0
vertex 139.50000000000017 -161.5 0
endloop
endfacet
facet normal 0 0 -1
outer loop
vertex 275.5 -150.0000043999088 0
vertex 139.50000000000017 -161.5 0
vertex 139.32635182233292 -161.48480775301218 0
endloop
endfacet
facet normal 0 0 -1
outer loop
vertex 275.5 -150.0000043999088 0
vertex 139.32635182233292 -161.48480775301218 0
vertex 139.15797985667442 -161.43969262078593 0
endloop
endfacet
facet normal 0 0 -1
outer loop
vertex 275.5 -150.0000043999088 0
vertex 139.15797985667442 -161.43969262078593 0
vertex 138.9999999999999 -161.3660254037844 0
endloop
endfacet
facet normal 0 0 -1
outer loop
vertex 275.5 -150.0000043999088 0
vertex 138.9999999999999 -161.3660254037844 0
vertex 138.85721239031355 -161.26604444311906 0
endloop
endfacet
facet normal 0 0 -1
outer loop
vertex 275.5 -150.0000043999088 0
vertex 138.85721239031355 -161.26604444311906 0
vertex 138.733955556881 -161.1427876096865 0
endloop
endfacet
facet normal 0 0 -1
outer loop
vertex 275.5 -150.0000043999088 0
vertex 138.733955556881 -161.1427876096865 0
vertex 138.6339745962155 -160.99999999999991 0
endloop
endfacet
facet normal 0 0 -1
outer loop
vertex 275.5 -150.0000043999088 0
vertex 138.6339745962155 -160.99999999999991 0
vertex 138.56030737921404 -160.84202014332558 0
endloop
endfacet
facet normal 0 0 -1
outer loop
vertex 275.5 -150.0000043999088 0
vertex 138.56030737921404 -160.84202014332558 0
vertex 138.51519224698777 -160.67364817766693 0
endloop
endfacet
facet normal 0 0 -1
outer loop
vertex 275.5 -150.0000043999088 0
vertex 138.51519224698777 -160.67364817766693 0
vertex 138.5 -160.50000000000017 0
endloop
endfacet
facet normal 0 0 -1
outer loop
vertex 275.5 -150.0000043999088 0
vertex 138.5 -160.50000000000017 0
vertex 138.5 -150.0000043999088 0
endloop
endfacet
facet normal 0 0 -1
outer loop
vertex 275.5018860097889 -161.5 0
vertex 275.50188850133134 -161.5151922469878 0
vertex 175.67364817766682 -161.5151922469878 0
endloop
endfacet
facet normal 0 0 -1
outer loop
vertex 275.5018860097889 -161.5 0
vertex 175.67364817766682 -161.5151922469878 0
vertex 175.4999999999999 -161.5 0
endloop
endfacet
facet normal 0 0 -1
outer loop
vertex 275.50188850133134 -161.5151922469878 0
vertex 275.5018959002543 -161.56030737921407 0
vertex 175.84202014332558 -161.56030737921407 0
endloop
endfacet
facet normal 0 0 -1
outer loop
vertex 275.50188850133134 -161.5151922469878 0
vertex 175.84202014332558 -161.56030737921407 0
vertex 175.67364817766682 -161.5151922469878 0
endloop
endfacet
facet normal 0 0 -1
outer loop
vertex 275.5018959002543 -161.56030737921407 0
vertex 275.5019079817452 -161.6339745962156 0
vertex 176.00000000000009 -161.6339745962156 0
endloop
endfacet
facet normal 0 0 -1
outer loop
vertex 275.5018959002543 -161.56030737921407 0
vertex 176.00000000000009 -161.6339745962156 0
vertex 175.84202014332558 -161.56030737921407 0
endloop
endfacet
facet normal 0 0 -1
outer loop
vertex 275.5019079817452 -161.6339745962156 0
vertex 275.50192437871414 -161.733955556881 0
vertex 176.1427876096865 -161.733955556881 0
endloop
endfacet
facet normal 0 0 -1
outer loop
vertex 275.5019079817452 -161.6339745962156 0
vertex 176.1427876096865 -161.733955556881 0
vertex 176.00000000000009 -161.6339745962156 0
endloop
endfacet
facet normal 0 0 -1
outer loop
vertex 275.50192437871414 -161.733955556881 0
vertex 275.50194459294744 -161.85721239031352 0
vertex 176.266044443119 -161.85721239031352 0
endloop
endfacet
facet normal 0 0 -1
outer loop
vertex 275.50192437871414 -161.733955556881 0
vertex 176.266044443119 -161.85721239031352 0
vertex 176.1427876096865 -161.733955556881 0
endloop
endfacet
facet normal 0 0 -1
outer loop
vertex 275.50194459294744 -161.85721239031352 0
vertex 275.50196801024595 -162.00000000000009 0
vertex 176.3660254037845 -162.00000000000009 0
endloop
endfacet
facet normal 0 0 -1
outer loop
vertex 275.50194459294744 -161.85721239031352 0
vertex 176.3660254037845 -162.00000000000009 0
vertex 176.266044443119 -161.85721239031352 0
endloop
endfacet
facet normal 0 0 -1
outer loop
vertex 275.50196801024595 -162.00000000000009 0
vertex 275.50199391908683 -162.15797985667436 0
vertex 176.43969262078593 -162.15797985667436 0
endloop
endfacet
facet normal 0 0 -1
outer loop
vertex 275.50196801024595 -162.00000000000009 0
vertex 176.43969262078593 -162.15797985667436 0
vertex 176.3660254037845 -162.00000000000009 0
endloop
endfacet
facet normal 0 0 -1
outer loop
vertex 275.50199391908683 -162.15797985667436 0
vertex 275.5020215322431 -162.32635182233292 0
vertex 176.48480775301218 -162.32635182233292 0
endloop
endfacet
facet normal 0 0 -1
outer loop
vertex 275.50199391908683 -162.15797985667436 0
vertex 176.48480775301218 -162.32635182233292 0
vertex 176.43969262078593 -162.15797985667436 0
endloop
endfacet
facet normal 0 0 -1
outer loop
vertex 275.5020215322431 -162.32635182233292 0
vertex 275.50205001070293 -162.50000000000017 0
vertex 176.5 -162.50000000000017 0
endloop
endfacet
facet normal 0 0 -1
outer loop
vertex 275.5020215322431 -162.32635182233292 0
vertex 176.5 -162.50000000000017 0
vertex 176.48480775301218 -162.32635182233292 0
endloop
endfacet
facet normal 0 0 -1
outer loop
vertex 275.50205001070293 -162.50000000000017 0
vertex 275.504838 -179.49984000000003 0
vertex 275.49254886951775 -179.65629223756162 0
endloop
endfacet
facet normal 0 0 -1
outer loop
vertex 275.50205001070293 -162.50000000000017 0
vertex 275.49254886951775 -179.65629223756162 0
vertex 275.45593407468886 -179.80889525904362 0
endloop
endfacet
facet normal 0 0 -1
outer loop
vertex 275.50205001070293 -162.50000000000017 0
vertex 275.45593407468886 -179.80889525904362 0
vertex 275.39589537659305 -179.95389070758296 0
endloop
endfacet
facet normal 0 0 -1
outer loop
vertex 275.50205001070293 -162.50000000000017 0
vertex 275.39589537659305 -179.95389070758296 0
vertex 275.3139114278221 -180.08770758809501 0
endloop
endfacet
facet normal 0 0 -1
outer loop
vertex 275.50205001070293 -162.50000000000017 0
vertex 275.3139114278221 -180.08770758809501 0
vertex 275.2120013557417 -180.20705021490673 0
endloop
endfacet
facet normal 0 0 -1
outer loop
vertex 275.50205001070293 -162.50000000000017 0
vertex 275.2120013557417 -180.20705021490673 0
vertex 275.0926750347638 -180.30897937897618 0
endloop
endfacet
facet normal 0 0 -1
outer loop
vertex 275.50205001070293 -162.50000000000017 0
vertex 275.0926750347638 -180.30897937897618 0
vertex 274.9588712723466 -180.39098473568598 0
endloop
endfacet
facet normal 0 0 -1
outer loop
vertex 275.50205001070293 -162.50000000000017 0
vertex 274.9588712723466 -180.39098473568598 0
vertex 274.8138854310864 -180.45104663042906 0
endloop
endfacet
facet normal 0 0 -1
outer loop
vertex 275.50205001070293 -162.50000000000017 0
vertex 274.8138854310864 -180.45104663042906 0
vertex 274.66128826945567 -180.48768583931957 0
endloop
endfacet
facet normal 0 0 -1
outer loop
vertex 275.50205001070293 -162.50000000000017 0
vertex 274.66128826945567 -180.48768583931957 0
vertex 274.504836 -180.5 0
endloop
endfacet
facet normal 0 0 -1
outer loop
vertex 275.50205001070293 -162.50000000000017 0
vertex 274.504836 -180.5 0
vertex 177.49999999999972 -180.5 0
endloop
endfacet
facet normal 0 0 -1
outer loop
vertex 275.50205001070293 -162.50000000000017 0
vertex 177.49999999999972 -180.5 0
vertex 177.3263518223331 -180.48480775301223 0
endloop
endfacet
facet normal 0 0 -1
outer loop
vertex 275.50205001070293 -162.50000000000017 0
vertex 177.3263518223331 -180.48480775301223 0
vertex 177.15797985667442 -180.43969262078596 0
endloop
endfacet
facet normal 0 0 -1
outer loop
vertex 275.50205001070293 -162.50000000000017 0
vertex 177.15797985667442 -180.43969262078596 0
vertex 177.0000000000001 -180.3660254037845 0
endloop
endfacet
facet normal 0 0 -1
outer loop
vertex 275.50205001070293 -162.50000000000017 0
vertex 177.0000000000001 -180.3660254037845 0
vertex 176.85721239031344 -180.26604444311894 0
endloop
endfacet
facet normal 0 0 -1
outer loop
vertex 275.50205001070293 -162.50000000000017 0
vertex 176.85721239031344 -180.26604444311894 0
vertex 176.7339555568811 -180.14278760968662 0
endloop
endfacet
facet normal 0 0 -1
outer loop
vertex 275.50205001070293 -162.50000000000017 0
vertex 176.7339555568811 -180.14278760968662 0
vertex 176.6339745962155 -179.9999999999999 0
endloop
endfacet
facet normal 0 0 -1
outer loop
vertex 275.50205001070293 -162.50000000000017 0
vertex 176.6339745962155 -179.9999999999999 0
vertex 176.560307379214 -179.84202014332547 0
endloop
endfacet
facet normal 0 0 -1
outer loop
vertex 275.50205001070293 -162.50000000000017 0
vertex 176.560307379214 -179.84202014332547 0
vertex 176.51519224698782 -179.67364817766713 0
endloop
endfacet
facet normal 0 0 -1
outer loop
vertex 275.50205001070293 -162.50000000000017 0
vertex 176.51519224698782 -179.67364817766713 0
vertex 176.5 -179.4999999999998 0
endloop
endfacet
facet normal 0 0 -1
outer loop
vertex 275.50205001070293 -162.50000000000017 0
vertex 176.5 -179.4999999999998 0
vertex 176.5 -162.50000000000017 0
endloop
endfacet
facet normal 0 0 1
outer loop
vertex 274.504836 -180.5 1
vertex 274.6612882694556 -180.48768583931957 1
vertex 274.8138854310867 -180.451046630429 1
endloop
endfacet
facet normal 0 0 1
outer loop
vertex 274.504836 -180.5 1
vertex 274.8138854310867 -180.451046630429 1
vertex 274.9588712723464 -180.39098473568612 1
endloop
endfacet
facet normal 0 0 1
outer loop
vertex 274.504836 -180.5 1
vertex 274.9588712723464 -180.39098473568612 1
vertex 275.0926750347638 -180.30897937897623 1
endloop
endfacet
facet normal 0 0 1
outer loop
vertex 274.504836 -180.5 1
vertex 275.0926750347638 -180.30897937897623 1
vertex 275.21200135574134 -180.20705021490707 1
endloop
endfacet
facet normal 0 0 1
outer loop
vertex 274.504836 -180.5 1
vertex 275.21200135574134 -180.20705021490707 1
vertex 275.3139114278222 -180.08770758809487 1
endloop
endfacet
facet normal 0 0 1
outer loop
vertex 274.504836 -180.5 1
vertex 275.3139114278222 -180.08770758809487 1
vertex 275.39589537659316 -179.9538907075827 1
endloop
endfacet
facet normal 0 0 1
outer loop
vertex 274.504836 -180.5 1
vertex 275.39589537659316 -179.9538907075827 1
vertex 275.4559340746888 -179.80889525904374 1
endloop
endfacet
facet normal 0 0 1
outer loop
vertex 274.504836 -180.5 1
vertex 275.4559340746888 -179.80889525904374 1
vertex 275.49254886951775 -179.65629223756167 1
endloop
endfacet
facet normal 0 0 1
outer loop
vertex 274.504836 -180.5 1
vertex 275.49254886951775 -179.65629223756167 1
vertex 275.504838 -179.49984000000023 1
endloop
endfacet
facet normal 0 0 1
outer loop
vertex 274.504836 -180.5 1
vertex 275.504838 -179.49984000000023 1
vertex 275.5020500107029 -162.50000000000017 1
endloop
endfacet
facet normal 0 0 1
outer loop
vertex 274.504836 -180.5 1
vertex 275.5020500107029 -162.50000000000017 1
vertex 176.5 -162.50000000000017 1
endloop
endfacet
facet normal 0 0 1
outer loop
vertex 274.504836 -180.5 1
vertex 176.5 -162.50000000000017 1
vertex 176.5 -179.49999999999974 1
endloop
endfacet
facet normal 0 0 1
outer loop
vertex 274.504836 -180.5 1
vertex 176.5 -179.49999999999974 1
vertex 176.51519224698782 -179.67364817766708 1
endloop
endfacet
facet normal 0 0 1
outer loop
vertex 274.504836 -180.5 1
vertex 176.51519224698782 -179.67364817766708 1
vertex 176.56030737921407 -179.84202014332564 1
endloop
endfacet
facet normal 0 0 1
outer loop
vertex 274.504836 -180.5 1
vertex 176.56030737921407 -179.84202014332564 1
vertex 176.63397459621547 -179.99999999999986 1
endloop
endfacet
facet normal 0 0 1
outer loop
vertex 274.504836 -180.5 1
vertex 176.63397459621547 -179.99999999999986 1
vertex 176.73395555688109 -180.1427876096866 1
endloop
endfacet
facet normal 0 0 1
outer loop
vertex 274.504836 -180.5 1
vertex 176.73395555688109 -180.1427876096866 1
vertex 176.85721239031335 -180.26604444311886 1
endloop
endfacet
facet normal 0 0 1
outer loop
vertex 274.504836 -180.5 1
vertex 176.85721239031335 -180.26604444311886 1
vertex 177.00000000000014 -180.3660254037845 1
endloop
endfacet
facet normal 0 0 1
outer loop
vertex 274.504836 -180.5 1
vertex 177.00000000000014 -180.3660254037845 1
vertex 177.15797985667433 -180.4396926207859 1
endloop
endfacet
facet normal 0 0 1
outer loop
vertex 274.504836 -180.5 1
vertex 177.15797985667433 -180.4396926207859 1
vertex 177.32635182233312 -180.4848077530122 1
endloop
endfacet
facet normal 0 0 1
outer loop
vertex 274.504836 -180.5 1
vertex 177.32635182233312 -180.4848077530122 1
vertex 177.50000000000006 -180.5 1
endloop
endfacet
facet normal 0 0 1
outer loop
vertex 275.5020500107029 -162.50000000000017 1
vertex 275.502021532243 -162.32635182233292 1
vertex 176.48480775301218 -162.32635182233292 1
endloop
endfacet
facet normal 0 0 1
outer loop
vertex 275.5020500107029 -162.50000000000017 1
vertex 176.48480775301218 -162.32635182233292 1
vertex 176.5 -162.50000000000017 1
endloop
endfacet
facet normal 0 0 1
outer loop
vertex 275.502021532243 -162.32635182233292 1
vertex 275.5019939190868 -162.15797985667456 1
vertex 176.439692620786 -162.15797985667456 1
endloop
endfacet
facet normal 0 0 1
outer loop
vertex 275.502021532243 -162.32635182233292 1
vertex 176.439692620786 -162.15797985667456 1
vertex 176.48480775301218 -162.32635182233292 1
endloop
endfacet
facet normal 0 0 1
outer loop
vertex 275.5019939190868 -162.15797985667456 1
vertex 275.5019680102459 -161.99999999999994 1
vertex 176.3660254037844 -161.99999999999994 1
endloop
endfacet
facet normal 0 0 1
outer loop
vertex 275.5019939190868 -162.15797985667456 1
vertex 176.3660254037844 -161.99999999999994 1
vertex 176.439692620786 -162.15797985667456 1
endloop
endfacet
facet normal 0 0 1
outer loop
vertex 275.5019680102459 -161.99999999999994 1
vertex 275.5019445929474 -161.85721239031346 1
vertex 176.26604444311897 -161.85721239031346 1
endloop
endfacet
facet normal 0 0 1
outer loop
vertex 275.5019680102459 -161.99999999999994 1
vertex 176.26604444311897 -161.85721239031346 1
vertex 176.3660254037844 -161.99999999999994 1
endloop
endfacet
facet normal 0 0 1
outer loop
vertex 275.5019445929474 -161.85721239031346 1
vertex 275.5019243787141 -161.73395555688097 1
vertex 176.14278760968648 -161.73395555688097 1
endloop
endfacet
facet normal 0 0 1
outer loop
vertex 275.5019445929474 -161.85721239031346 1
vertex 176.14278760968648 -161.73395555688097 1
vertex 176.26604444311897 -161.85721239031346 1
endloop
endfacet
facet normal 0 0 1
outer loop
vertex 275.5019243787141 -161.73395555688097 1
vertex 275.50190798174515 -161.63397459621564 1
vertex 176.00000000000014 -161.63397459621564 1
endloop
endfacet
facet normal 0 0 1
outer loop
vertex 275.5019243787141 -161.73395555688097 1
vertex 176.00000000000014 -161.63397459621564 1
vertex 176.14278760968648 -161.73395555688097 1
endloop
endfacet
facet normal 0 0 1
outer loop
vertex 275.50190798174515 -161.63397459621564 1
vertex 275.5018959002542 -161.56030737921407 1
vertex 175.84202014332558 -161.56030737921407 1
endloop
endfacet
facet normal 0 0 1
outer loop
vertex 275.50190798174515 -161.63397459621564 1
vertex 175.84202014332558 -161.56030737921407 1
vertex 176.00000000000014 -161.63397459621564 1
endloop
endfacet
facet normal 0 0 1
outer loop
vertex 275.5018959002542 -161.56030737921407 1
vertex 275.5018885013313 -161.5151922469878 1
vertex 175.67364817766693 -161.5151922469878 1
endloop
endfacet
facet normal 0 0 1
outer loop
vertex 275.5018959002542 -161.56030737921407 1
vertex 175.67364817766693 -161.5151922469878 1
vertex 175.84202014332558 -161.56030737921407 1
endloop
endfacet
facet normal 0 0 1
outer loop
vertex 275.5018885013313 -161.5151922469878 1
vertex 275.5018860097889 -161.5 1
vertex 175.5 -161.5 1
endloop
endfacet
facet normal 0 0 1
outer loop
vertex 275.5018885013313 -161.5151922469878 1
vertex 175.5 -161.5 1
vertex 175.67364817766693 -161.5151922469878 1
endloop
endfacet
facet normal 0 0 1
outer loop
vertex 175.5 -161.5 1
vertex 275.5018860097889 -161.5 1
vertex 275.49999999999994 -150.0000043995655 1
endloop
endfacet
facet normal 0 0 1
outer loop
vertex 175.5 -161.5 1
vertex 275.49999999999994 -150.0000043995655 1
vertex 138.5 -150.0000043995655 1
endloop
endfacet
facet normal 0 0 1
outer loop
vertex 175.5 -161.5 1
vertex 138.5 -150.0000043995655 1
vertex 138.5 -160.5000000000001 1
endloop
endfacet
facet normal 0 0 1
outer loop
vertex 175.5 -161.5 1
vertex 138.5 -160.5000000000001 1
vertex 138.5151922469878 -160.67364817766693 1
endloop
endfacet
facet normal 0 0 1
outer loop
vertex 175.5 -161.5 1
vertex 138.5151922469878 -160.67364817766693 1
vertex 138.56030737921412 -160.8420201433258 1
endloop
endfacet
facet normal 0 0 1
outer loop
vertex 175.5 -161.5 1
vertex 138.56030737921412 -160.8420201433258 1
vertex 138.63397459621547 -160.9999999999999 1
endloop
endfacet
facet normal 0 0 1
outer loop
vertex 175.5 -161.5 1
vertex 138.63397459621547 -160.9999999999999 1
vertex 138.73395555688097 -161.14278760968648 1
endloop
endfacet
facet normal 0 0 1
outer loop
vertex 175.5 -161.5 1
vertex 138.73395555688097 -161.14278760968648 1
vertex 138.85721239031344 -161.26604444311894 1
endloop
endfacet
facet normal 0 0 1
outer loop
vertex 175.5 -161.5 1
vertex 138.85721239031344 -161.26604444311894 1
vertex 139 -161.36602540378445 1
endloop
endfacet
facet normal 0 0 1
outer loop
vertex 175.5 -161.5 1
vertex 139 -161.36602540378445 1
vertex 139.1579798566744 -161.43969262078593 1
endloop
endfacet
facet normal 0 0 1
outer loop
vertex 175.5 -161.5 1
vertex 139.1579798566744 -161.43969262078593 1
vertex 139.3263518223328 -161.48480775301215 1
endloop
endfacet
facet normal 0 0 1
outer loop
vertex 175.5 -161.5 1
vertex 139.3263518223328 -161.48480775301215 1
vertex 139.5000000000004 -161.5 1
endloop
endfacet
facet normal 0 0 1
outer loop
vertex 275.49999999999994 -150.0000043995655 1
vertex 275.5002956 -82.5000043999996 1
vertex 275.4851055530122 -82.32635402233328 1
endloop
endfacet
facet normal 0 0 1
outer loop
vertex 275.49999999999994 -150.0000043995655 1
vertex 275.4851055530122 -82.32635402233328 1
vertex 275.4399904207859 -82.15798205667424 1
endloop
endfacet
facet normal 0 0 1
outer loop
vertex 275.49999999999994 -150.0000043995655 1
vertex 275.4399904207859 -82.15798205667424 1
vertex 275.3663232037843 -82.00000219999981 1
endloop
endfacet
facet normal 0 0 1
outer loop
vertex 275.49999999999994 -150.0000043995655 1
vertex 275.3663232037843 -82.00000219999981 1
vertex 275.266342243119 -81.85721459031349 1
endloop
endfacet
facet normal 0 0 1
outer loop
vertex 275.49999999999994 -150.0000043995655 1
vertex 275.266342243119 -81.85721459031349 1
vertex 275.1430854096866 -81.73395775688107 1
endloop
endfacet
facet normal 0 0 1
outer loop
vertex 275.49999999999994 -150.0000043995655 1
vertex 275.1430854096866 -81.73395775688107 1
vertex 275.0002978 -81.63397679621556 1
endloop
endfacet
facet normal 0 0 1
outer loop
vertex 275.49999999999994 -150.0000043995655 1
vertex 275.0002978 -81.63397679621556 1
vertex 274.84231794332567 -81.56030957921409 1
endloop
endfacet
facet normal 0 0 1
outer loop
vertex 275.49999999999994 -150.0000043995655 1
vertex 274.84231794332567 -81.56030957921409 1
vertex 274.67394597766685 -81.51519444698778 1
endloop
endfacet
facet normal 0 0 1
outer loop
vertex 275.49999999999994 -150.0000043995655 1
vertex 274.67394597766685 -81.51519444698778 1
vertex 274.5002978 -81.50000219999998 1
endloop
endfacet
facet normal 0 0 1
outer loop
vertex 275.49999999999994 -150.0000043995655 1
vertex 274.5002978 -81.50000219999998 1
vertex 139.49999999999986 -81.5 1
endloop
endfacet
facet normal 0 0 1
outer loop
vertex 275.49999999999994 -150.0000043995655 1
vertex 139.49999999999986 -81.5 1
vertex 139.3263518223331 -81.51519224698778 1
endloop
endfacet
facet normal 0 0 1
outer loop
vertex 275.49999999999994 -150.0000043995655 1
vertex 139.3263518223331 -81.51519224698778 1
vertex 139.15797985667436 -81.56030737921408 1
endloop
endfacet
facet normal 0 0 1
outer loop
vertex 275.49999999999994 -150.0000043995655 1
vertex 139.15797985667436 -81.56030737921408 1
vertex 139.00000000000003 -81.63397459621555 1
endloop
endfacet
facet normal 0 0 1
outer loop
vertex 275.49999999999994 -150.0000043995655 1
vertex 139.00000000000003 -81.63397459621555 1
vertex 138.85721239031338 -81.73395555688109 1
endloop
endfacet
facet normal 0 0 1
outer loop
vertex 275.49999999999994 -150.0000043995655 1
vertex 138.85721239031338 -81.73395555688109 1
vertex 138.73395555688114 -81.85721239031332 1
endloop
endfacet
facet normal 0 0 1
outer loop
vertex 275.49999999999994 -150.0000043995655 1
vertex 138.73395555688114 -81.85721239031332 1
vertex 138.63397459621555 -82 1
endloop
endfacet
facet normal 0 0 1
outer loop
vertex 275.49999999999994 -150.0000043995655 1
vertex 138.63397459621555 -82 1
vertex 138.560307379214 -82.15797985667449 1
endloop
endfacet
facet normal 0 0 1
outer loop
vertex 275.49999999999994 -150.0000043995655 1
vertex 138.560307379214 -82.15797985667449 1
vertex 138.51519224698782 -82.32635182233287 1
endloop
endfacet
facet normal 0 0 1
outer loop
vertex 275.49999999999994 -150.0000043995655 1
vertex 138.51519224698782 -82.32635182233287 1
vertex 138.5 -82.50000000000007 1
endloop
endfacet
facet normal 0 0 1
outer loop
vertex 275.49999999999994 -150.0000043995655 1
vertex 138.5 -82.50000000000007 1
vertex 138.5 -150.0000043995655 1
endloop
endfacet
facet normal -1 0 0
outer loop
vertex 138.5 -150.0000043995655 1
vertex 138.5 -82.50000000000007 1
vertex 138.5 -82.50000000000004 0
endloop
endfacet
facet normal -1 0 0
outer loop
vertex 138.5 -150.0000043995655 1
vertex 138.5 -82.50000000000004 0
vertex 138.5 -150.0000043999088 0
endloop
endfacet
facet normal -1 0 0
outer loop
vertex 138.5 -150.0000043995655 1
vertex 138.5 -150.0000043999088 0
vertex 138.5 -160.50000000000017 0
endloop
endfacet
facet normal -1 0 0
outer loop
vertex 138.5 -150.0000043995655 1
vertex 138.5 -160.50000000000017 0
vertex 138.5 -160.5000000000001 1
endloop
endfacet
facet normal -0.9961946980917433 -0.08715574274768298 0
outer loop
vertex 138.5151922469878 -160.67364817766693 1
vertex 138.5 -160.5000000000001 1
vertex 138.5 -160.50000000000017 0
endloop
endfacet
facet normal -0.9961946980917433 -0.08715574274768298 0
outer loop
vertex 138.5151922469878 -160.67364817766693 1
vertex 138.5 -160.50000000000017 0
vertex 138.51519224698777 -160.67364817766693 0
endloop
endfacet
facet normal -0.9659258262890704 -0.25881904510251297 0
outer loop
vertex 138.56030737921412 -160.8420201433258 1
vertex 138.5151922469878 -160.67364817766693 1
vertex 138.51519224698777 -160.67364817766693 0
endloop
endfacet
facet normal -0.9659258262890704 -0.25881904510251297 0
outer loop
vertex 138.56030737921412 -160.8420201433258 1
vertex 138.51519224698777 -160.67364817766693 0
vertex 138.56030737921404 -160.84202014332558 0
endloop
endfacet
facet normal -0.9063077870366758 -0.42261826174064426 0
outer loop
vertex 138.63397459621547 -160.9999999999999 1
vertex 138.56030737921412 -160.8420201433258 1
vertex 138.56030737921404 -160.84202014332558 0
endloop
endfacet
facet normal -0.9063077870366758 -0.42261826174064426 0
outer loop
vertex 138.63397459621547 -160.9999999999999 1
vertex 138.56030737921404 -160.84202014332558 0
vertex 138.6339745962155 -160.99999999999991 0
endloop
endfacet
facet normal -0.8191520442889363 -0.5735764363511253 0
outer loop
vertex 138.73395555688097 -161.14278760968648 1
vertex 138.63397459621547 -160.9999999999999 1
vertex 138.6339745962155 -160.99999999999991 0
endloop
endfacet
facet normal -0.8191520442889363 -0.5735764363511253 0
outer loop
vertex 138.73395555688097 -161.14278760968648 1
vertex 138.6339745962155 -160.99999999999991 0
vertex 138.733955556881 -161.1427876096865 0
endloop
endfacet
facet normal -0.7071067811865476 -0.7071067811865476 0
outer loop
vertex 138.85721239031344 -161.26604444311894 1
vertex 138.73395555688097 -161.14278760968648 1
vertex 138.733955556881 -161.1427876096865 0
endloop
endfacet
facet normal -0.7071067811865476 -0.7071067811865476 0
outer loop
vertex 138.85721239031344 -161.26604444311894 1
vertex 138.733955556881 -161.1427876096865 0
vertex 138.85721239031355 -161.26604444311906 0
endloop
endfacet
facet normal -0.573576436351131 -0.8191520442889324 0
outer loop
vertex 139 -161.36602540378445 1
vertex 138.85721239031344 -161.26604444311894 1
vertex 138.85721239031355 -161.26604444311906 0
endloop
endfacet
facet normal -0.573576436351131 -0.8191520442889324 0
outer loop
vertex 139 -161.36602540378445 1
vertex 138.85721239031355 -161.26604444311906 0
vertex 138.9999999999999 -161.3660254037844 0
endloop
endfacet
facet normal -0.42261826174063977 -0.9063077870366778 0
outer loop
vertex 139.1579798566744 -161.43969262078593 1
vertex 139 -161.36602540378445 1
vertex 138.9999999999999 -161.3660254037844 0
endloop
endfacet
facet normal -0.42261826174063977 -0.9063077870366778 0
outer loop
vertex 139.1579798566744 -161.43969262078593 1
vertex 138.9999999999999 -161.3660254037844 0
vertex 139.15797985667442 -161.43969262078593 0
endloop
endfacet
facet normal -0.25881904510251297 -0.9659258262890704 0
outer loop
vertex 139.3263518223328 -161.48480775301215 1
vertex 139.1579798566744 -161.43969262078593 1
vertex 139.15797985667442 -161.43969262078593 0
endloop
endfacet
facet normal -0.25881904510251297 -0.9659258262890704 0
outer loop
vertex 139.3263518223328 -161.48480775301215 1
vertex 139.15797985667442 -161.43969262078593 0
vertex 139.32635182233292 -161.48480775301218 0
endloop
endfacet
facet normal -0.087155742747683 -0.9961946980917434 0
outer loop
vertex 139.5000000000004 -161.5 1
vertex 139.3263518223328 -161.48480775301215 1
vertex 139.32635182233292 -161.48480775301218 0
endloop
endfacet
facet normal -0.087155742747683 -0.9961946980917434 0
outer loop
vertex 139.5000000000004 -161.5 1
vertex 139.32635182233292 -161.48480775301218 0
vertex 139.50000000000017 -161.5 0
endloop
endfacet
facet normal 0 -1 0
outer loop
vertex 175.4999999999999 -161.5 0
vertex 175.5 -161.5 1
vertex 139.5000000000004 -161.5 1
endloop
endfacet
facet normal 0 -1 0
outer loop
vertex 175.4999999999999 -161.5 0
vertex 139.5000000000004 -161.5 1
vertex 139.50000000000017 -161.5 0
endloop
endfacet
facet normal -0.087155742747683 -0.9961946980917433 0
outer loop
vertex 175.67364817766693 -161.5151922469878 1
vertex 175.5 -161.5 1
vertex 175.4999999999999 -161.5 0
endloop
endfacet
facet normal -0.087155742747683 -0.9961946980917433 0
outer loop
vertex 175.67364817766693 -161.5151922469878 1
vertex 175.4999999999999 -161.5 0
vertex 175.67364817766682 -161.5151922469878 0
endloop
endfacet
facet normal -0.25881904510251297 -0.9659258262890704 0
outer loop
vertex 175.84202014332558 -161.56030737921407 1
vertex 175.67364817766693 -161.5151922469878 1
vertex 175.67364817766682 -161.5151922469878 0
endloop
endfacet
facet normal -0.25881904510251297 -0.9659258262890704 0
outer loop
vertex 175.84202014332558 -161.56030737921407 1
vertex 175.67364817766682 -161.5151922469878 0
vertex 175.84202014332558 -161.56030737921407 0
endloop
endfacet
facet normal -0.4226182617406384 -0.9063077870366785 0
outer loop
vertex 176.00000000000014 -161.63397459621564 1
vertex 175.84202014332558 -161.56030737921407 1
vertex 175.84202014332558 -161.56030737921407 0
endloop
endfacet
facet normal -0.4226182617406384 -0.9063077870366785 0
outer loop
vertex 176.00000000000014 -161.63397459621564 1
vertex 175.84202014332558 -161.56030737921407 0
vertex 176.00000000000009 -161.6339745962156 0
endloop
endfacet
facet normal -0.5735764363511117 -0.8191520442889458 0
outer loop
vertex 176.14278760968648 -161.73395555688097 1
vertex 176.00000000000014 -161.63397459621564 1
vertex 176.00000000000009 -161.6339745962156 0
endloop
endfacet
facet normal -0.5735764363511117 -0.8191520442889458 0
outer loop
vertex 176.14278760968648 -161.73395555688097 1
vertex 176.00000000000009 -161.6339745962156 0
vertex 176.1427876096865 -161.733955556881 0
endloop
endfacet
facet normal -0.7071067811865476 -0.7071067811865476 0
outer loop
vertex 176.26604444311897 -161.85721239031346 1
vertex 176.14278760968648 -161.73395555688097 1
vertex 176.1427876096865 -161.733955556881 0
endloop
endfacet
facet normal -0.7071067811865476 -0.7071067811865476 0
outer loop
vertex 176.26604444311897 -161.85721239031346 1
vertex 176.1427876096865 -161.733955556881 0
vertex 176.266044443119 -161.85721239031352 0
endloop
endfacet
facet normal -0.8191520442889222 -0.5735764363511455 0
outer loop
vertex 176.3660254037844 -161.99999999999994 1
vertex 176.26604444311897 -161.85721239031346 1
vertex 176.266044443119 -161.85721239031352 0
endloop
endfacet
facet normal -0.8191520442889222 -0.5735764363511455 0
outer loop
vertex 176.3660254037844 -161.99999999999994 1
vertex 176.266044443119 -161.85721239031352 0
vertex 176.3660254037845 -162.00000000000009 0
endloop
endfacet
facet normal -0.9063077870366791 -0.42261826174063705 0
outer loop
vertex 176.439692620786 -162.15797985667456 1
vertex 176.3660254037844 -161.99999999999994 1
vertex 176.3660254037845 -162.00000000000009 0
endloop
endfacet
facet normal -0.9063077870366791 -0.42261826174063705 0
outer loop
vertex 176.439692620786 -162.15797985667456 1
vertex 176.3660254037845 -162.00000000000009 0
vertex 176.43969262078593 -162.15797985667436 0
endloop
endfacet
facet normal -0.9659258262890708 -0.25881904510251214 0
outer loop
vertex 176.48480775301218 -162.32635182233292 1
vertex 176.439692620786 -162.15797985667456 1
vertex 176.43969262078593 -162.15797985667436 0
endloop
endfacet
facet normal -0.9659258262890708 -0.25881904510251214 0
outer loop
vertex 176.48480775301218 -162.32635182233292 1
vertex 176.43969262078593 -162.15797985667436 0
vertex 176.48480775301218 -162.32635182233292 0
endloop
endfacet
facet normal -0.9961946980917433 -0.08715574274768298 0
outer loop
vertex 176.5 -162.50000000000017 1
vertex 176.48480775301218 -162.32635182233292 1
vertex 176.48480775301218 -162.32635182233292 0
endloop
endfacet
facet normal -0.9961946980917433 -0.08715574274768298 0
outer loop
vertex 176.5 -162.50000000000017 1
vertex 176.48480775301218 -162.32635182233292 0
vertex 176.5 -162.50000000000017 0
endloop
endfacet
facet normal -1 0 0
outer loop
vertex 176.5 -162.50000000000017 1
vertex 176.5 -162.50000000000017 0
vertex 176.5 -179.4999999999998 0
endloop
endfacet
facet normal -1 0 0
outer loop
vertex 176.5 -162.50000000000017 1
vertex 176.5 -179.4999999999998 0
vertex 176.5 -179.49999999999974 1
endloop
endfacet
facet normal -0.9961946980917434 -0.087155742747683 0
outer loop
vertex 176.51519224698782 -179.67364817766708 1
vertex 176.5 -179.49999999999974 1
vertex 176.5 -179.4999999999998 0
endloop
endfacet
facet normal -0.9961946980917434 -0.087155742747683 0
outer loop
vertex 176.51519224698782 -179.67364817766708 1
vertex 176.5 -179.4999999999998 0
vertex 176.51519224698782 -179.67364817766713 0
endloop
endfacet
facet normal -0.9659258262890708 -0.25881904510251214 0
outer loop
vertex 176.56030737921407 -179.84202014332564 1
vertex 176.51519224698782 -179.67364817766708 1
vertex 176.51519224698782 -179.67364817766713 0
endloop
endfacet
facet normal -0.9659258262890708 -0.25881904510251214 0
outer loop
vertex 176.56030737921407 -179.84202014332564 1
vertex 176.51519224698782 -179.67364817766713 0
vertex 176.560307379214 -179.84202014332547 0
endloop
endfacet
facet normal -0.9063077870366778 -0.42261826174063977 0
outer loop
vertex 176.63397459621547 -179.99999999999986 1
vertex 176.56030737921407 -179.84202014332564 1
vertex 176.560307379214 -179.84202014332547 0
endloop
endfacet
facet normal -0.9063077870366778 -0.42261826174063977 0
outer loop
vertex 176.63397459621547 -179.99999999999986 1
vertex 176.560307379214 -179.84202014332547 0
vertex 176.6339745962155 -179.9999999999999 0
endloop
endfacet
facet normal -0.8191520442889368 -0.5735764363511244 0
outer loop
vertex 176.73395555688109 -180.1427876096866 1
vertex 176.63397459621547 -179.99999999999986 1
vertex 176.6339745962155 -179.9999999999999 0
endloop
endfacet
facet normal -0.8191520442889368 -0.5735764363511244 0
outer loop
vertex 176.73395555688109 -180.1427876096866 1
vertex 176.6339745962155 -179.9999999999999 0
vertex 176.7339555568811 -180.14278760968662 0
endloop
endfacet
facet normal -0.7071067811865334 -0.7071067811865617 0
outer loop
vertex 176.85721239031335 -180.26604444311886 1
vertex 176.73395555688109 -180.1427876096866 1
vertex 176.7339555568811 -180.14278760968662 0
endloop
endfacet
facet normal -0.7071067811865334 -0.7071067811865617 0
outer loop
vertex 176.85721239031335 -180.26604444311886 1
vertex 176.7339555568811 -180.14278760968662 0
vertex 176.85721239031344 -180.26604444311894 0
endloop
endfacet
facet normal -0.5735764363511117 -0.8191520442889458 0
outer loop
vertex 177.00000000000014 -180.3660254037845 1
vertex 176.85721239031335 -180.26604444311886 1
vertex 176.85721239031344 -180.26604444311894 0
endloop
endfacet
facet normal -0.5735764363511117 -0.8191520442889458 0
outer loop
vertex 177.00000000000014 -180.3660254037845 1
vertex 176.85721239031344 -180.26604444311894 0
vertex 177.0000000000001 -180.3660254037845 0
endloop
endfacet
facet normal -0.42261826174063977 -0.9063077870366778 0
outer loop
vertex 177.15797985667433 -180.4396926207859 1
vertex 177.00000000000014 -180.3660254037845 1
vertex 177.0000000000001 -180.3660254037845 0
endloop
endfacet
facet normal -0.42261826174063977 -0.9063077870366778 0
outer loop
vertex 177.15797985667433 -180.4396926207859 1
vertex 177.0000000000001 -180.3660254037845 0
vertex 177.15797985667442 -180.43969262078596 0
endloop
endfacet
facet normal -0.25881904510251214 -0.9659258262890708 0
outer loop
vertex 177.32635182233312 -180.4848077530122 1
vertex 177.15797985667433 -180.4396926207859 1
vertex 177.15797985667442 -180.43969262078596 0
endloop
endfacet
facet normal -0.25881904510251214 -0.9659258262890708 0
outer loop
vertex 177.32635182233312 -180.4848077530122 1
vertex 177.15797985667442 -180.43969262078596 0
vertex 177.3263518223331 -180.48480775301223 0
endloop
endfacet
facet normal -0.087155742747683 -0.9961946980917434 0
outer loop
vertex 177.50000000000006 -180.5 1
vertex 177.32635182233312 -180.4848077530122 1
vertex 177.3263518223331 -180.48480775301223 0
endloop
endfacet
facet normal -0.087155742747683 -0.9961946980917434 0
outer loop
vertex 177.50000000000006 -180.5 1
vertex 177.3263518223331 -180.48480775301223 0
vertex 177.49999999999972 -180.5 0
endloop
endfacet
facet normal 0 -1 0
outer loop
vertex 274.504836 -180.5 0
vertex 274.504836 -180.5 1
vertex 177.50000000000006 -180.5 1
endloop
endfacet
facet normal 0 -1 0
outer loop
vertex 274.504836 -180.5 0
vertex 177.50000000000006 -180.5 1
vertex 177.49999999999972 -180.5 0
endloop
endfacet
facet normal 0.0784660620376201 -0.9969167854481679 0
outer loop
vertex 274.6612882694556 -180.48768583931957 1
vertex 274.504836 -180.5 1
vertex 274.504836 -180.5 0
endloop
endfacet
facet normal 0.0784660620376201 -0.9969167854481679 0
outer loop
vertex 274.6612882694556 -180.48768583931957 1
vertex 274.504836 -180.5 0
vertex 274.66128826945567 -180.48768583931957 0
endloop
endfacet
facet normal 0.2334686900875342 -0.9723643199690181 0
outer loop
vertex 274.8138854310867 -180.451046630429 1
vertex 274.6612882694556 -180.48768583931957 1
vertex 274.66128826945567 -180.48768583931957 0
endloop
endfacet
facet normal 0.2334686900875342 -0.9723643199690181 0
outer loop
vertex 274.8138854310867 -180.451046630429 1
vertex 274.66128826945567 -180.48768583931957 0
vertex 274.8138854310864 -180.45104663042906 0
endloop
endfacet
facet normal 0.3827203783712909 -0.9238642281089445 0
outer loop
vertex 274.9588712723464 -180.39098473568612 1
vertex 274.8138854310867 -180.451046630429 1
vertex 274.8138854310864 -180.45104663042906 0
endloop
endfacet
facet normal 0.3827203783712909 -0.9238642281089445 0
outer loop
vertex 274.9588712723464 -180.39098473568612 1
vertex 274.8138854310864 -180.45104663042906 0
vertex 274.9588712723466 -180.39098473568598 0
endloop
endfacet
facet normal 0.5225463046523987 -0.8526109074449625 0
outer loop
vertex 275.0926750347638 -180.30897937897623 1
vertex 274.9588712723464 -180.39098473568612 1
vertex 274.9588712723466 -180.39098473568598 0
endloop
endfacet
facet normal 0.5225463046523987 -0.8526109074449625 0
outer loop
vertex 275.0926750347638 -180.30897937897623 1
vertex 274.9588712723466 -180.39098473568598 0
vertex 275.0926750347638 -180.30897937897618 0
endloop
endfacet
facet normal 0.649502790523399 -0.7603592079420869 0
outer loop
vertex 275.21200135574134 -180.20705021490707 1
vertex 275.0926750347638 -180.30897937897623 1
vertex 275.0926750347638 -180.30897937897618 0
endloop
endfacet
facet normal 0.649502790523399 -0.7603592079420869 0
outer loop
vertex 275.21200135574134 -180.20705021490707 1
vertex 275.0926750347638 -180.30897937897618 0
vertex 275.2120013557417 -180.20705021490673 0
endloop
endfacet
facet normal 0.7604631103439209 -0.6493811344703891 0
outer loop
vertex 275.3139114278222 -180.08770758809487 1
vertex 275.21200135574134 -180.20705021490707 1
vertex 275.2120013557417 -180.20705021490673 0
endloop
endfacet
facet normal 0.7604631103439209 -0.6493811344703891 0
outer loop
vertex 275.3139114278222 -180.08770758809487 1
vertex 275.2120013557417 -180.20705021490673 0
vertex 275.3139114278221 -180.08770758809501 0
endloop
endfacet
facet normal 0.8526944972534689 -0.5224098911330585 0
outer loop
vertex 275.39589537659316 -179.9538907075827 1
vertex 275.3139114278222 -180.08770758809487 1
vertex 275.3139114278221 -180.08770758809501 0
endloop
endfacet
facet normal 0.8526944972534689 -0.5224098911330585 0
outer loop
vertex 275.39589537659316 -179.9538907075827 1
vertex 275.3139114278221 -180.08770758809501 0
vertex 275.39589537659305 -179.95389070758296 0
endloop
endfacet
facet normal 0.9239254466470154 -0.38257256702240605 0
outer loop
vertex 275.4559340746888 -179.80889525904374 1
vertex 275.39589537659316 -179.9538907075827 1
vertex 275.39589537659305 -179.95389070758296 0
endloop
endfacet
facet normal 0.9239254466470154 -0.38257256702240605 0
outer loop
vertex 275.4559340746888 -179.80889525904374 1
vertex 275.39589537659305 -179.95389070758296 0
vertex 275.45593407468886 -179.80889525904362 0
endloop
endfacet
facet normal 0.9724016595267434 -0.23331312125475392 0
outer loop
vertex 275.49254886951775 -179.65629223756167 1
vertex 275.4559340746888 -179.80889525904374 1
vertex 275.45593407468886 -179.80889525904362 0
endloop
endfacet
facet normal 0.9724016595267434 -0.23331312125475392 0
outer loop
vertex 275.49254886951775 -179.65629223756167 1
vertex 275.45593407468886 -179.80889525904362 0
vertex 275.49254886951775 -179.65629223756162 0
endloop
endfacet
facet normal 0.9969292479491914 -0.07830756402455576 0
outer loop
vertex 275.504838 -179.49984000000023 1
vertex 275.49254886951775 -179.65629223756167 1
vertex 275.49254886951775 -179.65629223756162 0
endloop
endfacet
facet normal 0.9969292479491914 -0.07830756402455576 0
outer loop
vertex 275.504838 -179.49984000000023 1
vertex 275.49254886951775 -179.65629223756162 0
vertex 275.504838 -179.49984000000003 0
endloop
endfacet
facet normal 0 0 -1
outer loop
vertex 275.49999999999994 -150.0000043995655 1
vertex 275.5018860097889 -161.5 1
vertex 275.5018885013313 -161.5151922469878 1
endloop
endfacet
facet normal 0 0 -1
outer loop
vertex 275.49999999999994 -150.0000043995655 1
vertex 275.5018885013313 -161.5151922469878 1
vertex 275.5018959002542 -161.56030737921407 1
endloop
endfacet
facet normal 0 0 -1
outer loop
vertex 275.49999999999994 -150.0000043995655 1
vertex 275.5018959002542 -161.56030737921407 1
vertex 275.50190798174515 -161.63397459621564 1
endloop
endfacet
facet normal 0 0 -1
outer loop
vertex 275.49999999999994 -150.0000043995655 1
vertex 275.50190798174515 -161.63397459621564 1
vertex 275.5019243787141 -161.73395555688097 1
endloop
endfacet
facet normal 0 0 -1
outer loop
vertex 275.49999999999994 -150.0000043995655 1
vertex 275.5019243787141 -161.73395555688097 1
vertex 275.5019445929474 -161.85721239031346 1
endloop
endfacet
facet normal 0 0 -1
outer loop
vertex 275.49999999999994 -150.0000043995655 1
vertex 275.5019445929474 -161.85721239031346 1
vertex 275.5019680102459 -161.99999999999994 1
endloop
endfacet
facet normal 0 0 -1
outer loop
vertex 275.49999999999994 -150.0000043995655 1
vertex 275.5019680102459 -161.99999999999994 1
vertex 275.5019939190868 -162.15797985667456 1
endloop
endfacet
facet normal 0 0 -1
outer loop
vertex 275.49999999999994 -150.0000043995655 1
vertex 275.5019939190868 -162.15797985667456 1
vertex 275.502021532243 -162.32635182233292 1
endloop
endfacet
facet normal 0 0 -1
outer loop
vertex 275.49999999999994 -150.0000043995655 1
vertex 275.502021532243 -162.32635182233292 1
vertex 275.5020500107029 -162.50000000000017 1
endloop
endfacet
facet normal 0 0 -1
outer loop
vertex 275.49999999999994 -150.0000043995655 1
vertex 275.5020500107029 -162.50000000000017 1
vertex 275.504838 -179.49984000000023 1
endloop
endfacet
facet normal 0 0 -1
outer loop
vertex 275.49999999999994 -150.0000043995655 1
vertex 275.504838 -179.49984000000023 1
vertex 275.504838 -179.49984000000003 0
endloop
endfacet
facet normal 0 0 -1
outer loop
vertex 275.49999999999994 -150.0000043995655 1
vertex 275.504838 -179.49984000000003 0
vertex 275.50205001070293 -162.50000000000017 0
endloop
endfacet
facet normal 0 0 -1
outer loop
vertex 275.49999999999994 -150.0000043995655 1
vertex 275.50205001070293 -162.50000000000017 0
vertex 275.5020215322431 -162.32635182233292 0
endloop
endfacet
facet normal 0 0 -1
outer loop
vertex 275.49999999999994 -150.0000043995655 1
vertex 275.5020215322431 -162.32635182233292 0
vertex 275.50199391908683 -162.15797985667436 0
endloop
endfacet
facet normal 0 0 -1
outer loop
vertex 275.49999999999994 -150.0000043995655 1
vertex 275.50199391908683 -162.15797985667436 0
vertex 275.50196801024595 -162.00000000000009 0
endloop
endfacet
facet normal 0 0 -1
outer loop
vertex 275.49999999999994 -150.0000043995655 1
vertex 275.50196801024595 -162.00000000000009 0
vertex 275.50194459294744 -161.85721239031352 0
endloop
endfacet
facet normal 0 0 -1
outer loop
vertex 275.49999999999994 -150.0000043995655 1
vertex 275.50194459294744 -161.85721239031352 0
vertex 275.50192437871414 -161.733955556881 0
endloop
endfacet
facet normal 0 0 -1
outer loop
vertex 275.49999999999994 -150.0000043995655 1
vertex 275.50192437871414 -161.733955556881 0
vertex 275.5019079817452 -161.6339745962156 0
endloop
endfacet
facet normal 0 0 -1
outer loop
vertex 275.49999999999994 -150.0000043995655 1
vertex 275.5019079817452 -161.6339745962156 0
vertex 275.5018959002543 -161.56030737921407 0
endloop
endfacet
facet normal 0 0 -1
outer loop
vertex 275.49999999999994 -150.0000043995655 1
vertex 275.5018959002543 -161.56030737921407 0
vertex 275.50188850133134 -161.5151922469878 0
endloop
endfacet
facet normal 0 0 -1
outer loop
vertex 275.49999999999994 -150.0000043995655 1
vertex 275.50188850133134 -161.5151922469878 0
vertex 275.5018860097889 -161.5 0
endloop
endfacet
facet normal 0 0 -1
outer loop
vertex 275.49999999999994 -150.0000043995655 1
vertex 275.5018860097889 -161.5 0
vertex 275.5 -150.0000043999088 0
endloop
endfacet
facet normal 0.9999999999904111 -0.000004379259280540282 0
outer loop
vertex 275.5002956 -82.5000043999996 1
vertex 275.49999999999994 -150.0000043995655 1
vertex 275.5 -150.0000043999088 0
endloop
endfacet
facet normal 0.9999999999904111 -0.000004379259280540282 0
outer loop
vertex 275.5002956 -82.5000043999996 1
vertex 275.5 -150.0000043999088 0
vertex 275.5002956000001 -82.50000440000021 0
endloop
endfacet
facet normal 0.996195889670427 0.0871421218685099 0
outer loop
vertex 275.4851055530122 -82.32635402233328 1
vertex 275.5002956 -82.5000043999996 1
vertex 275.5002956000001 -82.50000440000021 0
endloop
endfacet
facet normal 0.996195889670427 0.0871421218685099 0
outer loop
vertex 275.4851055530122 -82.32635402233328 1
vertex 275.5002956000001 -82.50000440000021 0
vertex 275.48510555301226 -82.32635402233336 0
endloop
endfacet
facet normal 0.9659258262891237 0.258819045102314 0
outer loop
vertex 275.4399904207859 -82.15798205667424 1
vertex 275.4851055530122 -82.32635402233328 1
vertex 275.48510555301226 -82.32635402233336 0
endloop
endfacet
facet normal 0.9659258262891237 0.258819045102314 0
outer loop
vertex 275.4399904207859 -82.15798205667424 1
vertex 275.48510555301226 -82.32635402233336 0
vertex 275.43999042078593 -82.15798205667443 0
endloop
endfacet
facet normal 0.9063077870365474 0.4226182617409195 0
outer loop
vertex 275.3663232037843 -82.00000219999981 1
vertex 275.4399904207859 -82.15798205667424 1
vertex 275.43999042078593 -82.15798205667443 0
endloop
endfacet
facet normal 0.9063077870365474 0.4226182617409195 0
outer loop
vertex 275.3663232037843 -82.00000219999981 1
vertex 275.43999042078593 -82.15798205667443 0
vertex 275.3663232037843 -82.00000219999981 0
endloop
endfacet
facet normal 0.8191520442890229 0.5735764363510018 0
outer loop
vertex 275.266342243119 -81.85721459031349 1
vertex 275.3663232037843 -82.00000219999981 1
vertex 275.3663232037843 -82.00000219999981 0
endloop
endfacet
facet normal 0.8191520442890229 0.5735764363510018 0
outer loop
vertex 275.266342243119 -81.85721459031349 1
vertex 275.3663232037843 -82.00000219999981 0
vertex 275.266342243119 -81.85721459031352 0
endloop
endfacet
facet normal 0.7071067811865405 0.7071067811865547 0
outer loop
vertex 275.1430854096866 -81.73395775688107 1
vertex 275.266342243119 -81.85721459031349 1
vertex 275.266342243119 -81.85721459031352 0
endloop
endfacet
facet normal 0.7071067811865405 0.7071067811865547 0
outer loop
vertex 275.1430854096866 -81.73395775688107 1
vertex 275.266342243119 -81.85721459031352 0
vertex 275.1430854096865 -81.73395775688095 0
endloop
endfacet
facet normal 0.5735764363510599 0.819152044288982 0
outer loop
vertex 275.0002978 -81.63397679621556 1
vertex 275.1430854096866 -81.73395775688107 1
vertex 275.1430854096865 -81.73395775688095 0
endloop
endfacet
facet normal 0.5735764363510599 0.819152044288982 0
outer loop
vertex 275.0002978 -81.63397679621556 1
vertex 275.1430854096865 -81.73395775688095 0
vertex 275.00029780000017 -81.63397679621563 0
endloop
endfacet
facet normal 0.4226182617407234 0.9063077870366388 0
outer loop
vertex 274.84231794332567 -81.56030957921409 1
vertex 275.0002978 -81.63397679621556 1
vertex 275.00029780000017 -81.63397679621563 0
endloop
endfacet
facet normal 0.4226182617407234 0.9063077870366388 0
outer loop
vertex 274.84231794332567 -81.56030957921409 1
vertex 275.00029780000017 -81.63397679621563 0
vertex 274.84231794332567 -81.56030957921408 0
endloop
endfacet
facet normal 0.25881904510247994 0.9659258262890793 0
outer loop
vertex 274.67394597766685 -81.51519444698778 1
vertex 274.84231794332567 -81.56030957921409 1
vertex 274.84231794332567 -81.56030957921408 0
endloop
endfacet
facet normal 0.25881904510247994 0.9659258262890793 0
outer loop
vertex 274.67394597766685 -81.51519444698778 1
vertex 274.84231794332567 -81.56030957921408 0
vertex 274.67394597766696 -81.51519444698779 0
endloop
endfacet
facet normal 0.08715574274768303 0.9961946980917434 0
outer loop
vertex 274.5002978 -81.50000219999998 1
vertex 274.67394597766685 -81.51519444698778 1
vertex 274.67394597766696 -81.51519444698779 0
endloop
endfacet
facet normal 0.08715574274768303 0.9961946980917434 0
outer loop
vertex 274.5002978 -81.50000219999998 1
vertex 274.67394597766696 -81.51519444698779 0
vertex 274.50029779999994 -81.50000219999998 0
endloop
endfacet
facet normal 1.6296269222948467e-8 1 0
outer loop
vertex 139.49999999999986 -81.5 1
vertex 274.5002978 -81.50000219999998 1
vertex 274.50029779999994 -81.50000219999998 0
endloop
endfacet
facet normal 1.6296269222948467e-8 1 0
outer loop
vertex 139.49999999999986 -81.5 1
vertex 274.50029779999994 -81.50000219999998 0
vertex 139.49999999999994 -81.49999999999999 0
endloop
endfacet
facet normal -0.08715574274766874 0.9961946980917448 0
outer loop
vertex 139.3263518223331 -81.51519224698778 1
vertex 139.49999999999986 -81.5 1
vertex 139.49999999999994 -81.49999999999999 0
endloop
endfacet
facet normal -0.08715574274766874 0.9961946980917448 0
outer loop
vertex 139.3263518223331 -81.51519224698778 1
vertex 139.49999999999994 -81.49999999999999 0
vertex 139.3263518223331 -81.51519224698778 0
endloop
endfacet
facet normal -0.2588190451025413 0.9659258262890629 0
outer loop
vertex 139.15797985667436 -81.56030737921408 1
vertex 139.3263518223331 -81.51519224698778 1
vertex 139.3263518223331 -81.51519224698778 0
endloop
endfacet
facet normal -0.2588190451025413 0.9659258262890629 0
outer loop
vertex 139.15797985667436 -81.56030737921408 1
vertex 139.3263518223331 -81.51519224698778 0
vertex 139.15797985667444 -81.56030737921407 0
endloop
endfacet
facet normal -0.42261826174069467 0.9063077870366524 0
outer loop
vertex 139.00000000000003 -81.63397459621555 1
vertex 139.15797985667436 -81.56030737921408 1
vertex 139.15797985667444 -81.56030737921407 0
endloop
endfacet
facet normal -0.42261826174069467 0.9063077870366524 0
outer loop
vertex 139.00000000000003 -81.63397459621555 1
vertex 139.15797985667444 -81.56030737921407 0
vertex 138.99999999999991 -81.63397459621562 0
endloop
endfacet
facet normal -0.5735764363510599 0.819152044288982 0
outer loop
vertex 138.85721239031338 -81.73395555688109 1
vertex 139.00000000000003 -81.63397459621555 1
vertex 138.99999999999991 -81.63397459621562 0
endloop
endfacet
facet normal -0.5735764363510599 0.819152044288982 0
outer loop
vertex 138.85721239031338 -81.73395555688109 1
vertex 138.99999999999991 -81.63397459621562 0
vertex 138.85721239031344 -81.73395555688104 0
endloop
endfacet
facet normal -0.7071067811865547 0.7071067811865405 0
outer loop
vertex 138.73395555688114 -81.85721239031332 1
vertex 138.85721239031338 -81.73395555688109 1
vertex 138.85721239031344 -81.73395555688104 0
endloop
endfacet
facet normal -0.7071067811865547 0.7071067811865405 0
outer loop
vertex 138.73395555688114 -81.85721239031332 1
vertex 138.85721239031344 -81.73395555688104 0
vertex 138.7339555568811 -81.85721239031336 0
endloop
endfacet
facet normal -0.8191520442889414 0.5735764363511181 0
outer loop
vertex 138.63397459621555 -82 1
vertex 138.73395555688114 -81.85721239031332 1
vertex 138.7339555568811 -81.85721239031336 0
endloop
endfacet
facet normal -0.8191520442889414 0.5735764363511181 0
outer loop
vertex 138.63397459621555 -82 1
vertex 138.7339555568811 -81.85721239031336 0
vertex 138.6339745962156 -81.99999999999993 0
endloop
endfacet
facet normal -0.9063077870366791 0.42261826174063705 0
outer loop
vertex 138.560307379214 -82.15797985667449 1
vertex 138.63397459621555 -82 1
vertex 138.6339745962156 -81.99999999999993 0
endloop
endfacet
facet normal -0.9063077870366791 0.42261826174063705 0
outer loop
vertex 138.560307379214 -82.15797985667449 1
vertex 138.6339745962156 -81.99999999999993 0
vertex 138.56030737921404 -82.15797985667447 0
endloop
endfacet
facet normal -0.9659258262890631 0.2588190451025404 0
outer loop
vertex 138.51519224698782 -82.32635182233287 1
vertex 138.560307379214 -82.15797985667449 1
vertex 138.56030737921404 -82.15797985667447 0
endloop
endfacet
facet normal -0.9659258262890631 0.2588190451025404 0
outer loop
vertex 138.51519224698782 -82.32635182233287 1
vertex 138.56030737921404 -82.15797985667447 0
vertex 138.5151922469878 -82.32635182233292 0
endloop
endfacet
facet normal -0.9961946980917459 0.08715574274765463 0
outer loop
vertex 138.5 -82.50000000000007 1
vertex 138.51519224698782 -82.32635182233287 1
vertex 138.5151922469878 -82.32635182233292 0
endloop
endfacet
facet normal -0.9961946980917459 0.08715574274765463 0
outer loop
vertex 138.5 -82.50000000000007 1
vertex 138.5151922469878 -82.32635182233292 0
vertex 138.5 -82.50000000000004 0
endloop
endfacet
endsolid csg.js
