0
SECTION
2
HEADER
9
$INSUNITS
70
4
0
ENDSEC
0
SECTION
2
TABLES
0
TABLE
2
LTYPE
0
LTYPE
72
65
70
64
2
CONTINUOUS
3
______
73
0
40
0
0
ENDTAB
0
TABLE
2
LAYER
0
ENDTAB
0
ENDSEC
0
SECTION
2
ENTITIES
0
LINE
8
0
10
140.75
20
-159.25
11
159.25
21
-159.25
0
LINE
8
0
10
159.25
20
-159.25
11
159.25
21
-140.75
0
LINE
8
0
10
159.25
20
-140.75
11
140.75
21
-140.75
0
LINE
8
0
10
140.75
20
-140.75
11
140.75
21
-159.25
0
LINE
8
0
10
140.75
20
-140.25
11
159.25
21
-140.25
0
LINE
8
0
10
159.25
20
-140.25
11
159.25
21
-121.75
0
LINE
8
0
10
159.25
20
-121.75
11
140.75
21
-121.75
0
LINE
8
0
10
140.75
20
-121.75
11
140.75
21
-140.25
0
LINE
8
0
10
140.75
20
-121.25
11
159.25
21
-121.25
0
LINE
8
0
10
159.25
20
-121.25
11
159.25
21
-102.75
0
LINE
8
0
10
159.25
20
-102.75
11
140.75
21
-102.75
0
LINE
8
0
10
140.75
20
-102.75
11
140.75
21
-121.25
0
LINE
8
0
10
140.75
20
-102.25
11
159.25
21
-102.25
0
LINE
8
0
10
159.25
20
-102.25
11
159.25
21
-83.75
0
LINE
8
0
10
159.25
20
-83.75
11
140.75
21
-83.75
0
LINE
8
0
10
140.75
20
-83.75
11
140.75
21
-102.25
0
LINE
8
0
10
159.75
20
-159.25
11
178.25
21
-159.25
0
LINE
8
0
10
178.25
20
-159.25
11
178.25
21
-140.75
0
LINE
8
0
10
178.25
20
-140.75
11
159.75
21
-140.75
0
LINE
8
0
10
159.75
20
-140.75
11
159.75
21
-159.25
0
LINE
8
0
10
159.75
20
-140.25
11
178.25
21
-140.25
0
LINE
8
0
10
178.25
20
-140.25
11
178.25
21
-121.75
0
LINE
8
0
10
178.25
20
-121.75
11
159.75
21
-121.75
0
LINE
8
0
10
159.75
20
-121.75
11
159.75
21
-140.25
0
LINE
8
0
10
159.75
20
-121.25
11
178.25
21
-121.25
0
LINE
8
0
10
178.25
20
-121.25
11
178.25
21
-102.75
0
LINE
8
0
10
178.25
20
-102.75
11
159.75
21
-102.75
0
LINE
8
0
10
159.75
20
-102.75
11
159.75
21
-121.25
0
LINE
8
0
10
159.75
20
-102.25
11
178.25
21
-102.25
0
LINE
8
0
10
178.25
20
-102.25
11
178.25
21
-83.75
0
LINE
8
0
10
178.25
20
-83.75
11
159.75
21
-83.75
0
LINE
8
0
10
159.75
20
-83.75
11
159.75
21
-102.25
0
LINE
8
0
10
178.75
20
-159.25
11
197.25
21
-159.25
0
LINE
8
0
10
197.25
20
-159.25
11
197.25
21
-140.75
0
LINE
8
0
10
197.25
20
-140.75
11
178.75
21
-140.75
0
LINE
8
0
10
178.75
20
-140.75
11
178.75
21
-159.25
0
LINE
8
0
10
178.75
20
-140.25
11
197.25
21
-140.25
0
LINE
8
0
10
197.25
20
-140.25
11
197.25
21
-121.75
0
LINE
8
0
10
197.25
20
-121.75
11
178.75
21
-121.75
0
LINE
8
0
10
178.75
20
-121.75
11
178.75
21
-140.25
0
LINE
8
0
10
178.75
20
-121.25
11
197.25
21
-121.25
0
LINE
8
0
10
197.25
20
-121.25
11
197.25
21
-102.75
0
LINE
8
0
10
197.25
20
-102.75
11
178.75
21
-102.75
0
LINE
8
0
10
178.75
20
-102.75
11
178.75
21
-121.25
0
LINE
8
0
10
178.75
20
-102.25
11
197.25
21
-102.25
0
LINE
8
0
10
197.25
20
-102.25
11
197.25
21
-83.75
0
LINE
8
0
10
197.25
20
-83.75
11
178.75
21
-83.75
0
LINE
8
0
10
178.75
20
-83.75
11
178.75
21
-102.25
0
LINE
8
0
10
197.75
20
-159.25
11
216.25
21
-159.25
0
LINE
8
0
10
216.25
20
-159.25
11
216.25
21
-140.75
0
LINE
8
0
10
216.25
20
-140.75
11
197.75
21
-140.75
0
LINE
8
0
10
197.75
20
-140.75
11
197.75
21
-159.25
0
LINE
8
0
10
197.75
20
-140.25
11
216.25
21
-140.25
0
LINE
8
0
10
216.25
20
-140.25
11
216.25
21
-121.75
0
LINE
8
0
10
216.25
20
-121.75
11
197.75
21
-121.75
0
LINE
8
0
10
197.75
20
-121.75
11
197.75
21
-140.25
0
LINE
8
0
10
197.75
20
-121.25
11
216.25
21
-121.25
0
LINE
8
0
10
216.25
20
-121.25
11
216.25
21
-102.75
0
LINE
8
0
10
216.25
20
-102.75
11
197.75
21
-102.75
0
LINE
8
0
10
197.75
20
-102.75
11
197.75
21
-121.25
0
LINE
8
0
10
197.75
20
-102.25
11
216.25
21
-102.25
0
LINE
8
0
10
216.25
20
-102.25
11
216.25
21
-83.75
0
LINE
8
0
10
216.25
20
-83.75
11
197.75
21
-83.75
0
LINE
8
0
10
197.75
20
-83.75
11
197.75
21
-102.25
0
LINE
8
0
10
216.75
20
-159.25
11
235.25
21
-159.25
0
LINE
8
0
10
235.25
20
-159.25
11
235.25
21
-140.75
0
LINE
8
0
10
235.25
20
-140.75
11
216.75
21
-140.75
0
LINE
8
0
10
216.75
20
-140.75
11
216.75
21
-159.25
0
LINE
8
0
10
216.75
20
-140.25
11
235.25
21
-140.25
0
LINE
8
0
10
235.25
20
-140.25
11
235.25
21
-121.75
0
LINE
8
0
10
235.25
20
-121.75
11
216.75
21
-121.75
0
LINE
8
0
10
216.75
20
-121.75
11
216.75
21
-140.25
0
LINE
8
0
10
216.75
20
-121.25
11
235.25
21
-121.25
0
LINE
8
0
10
235.25
20
-121.25
11
235.25
21
-102.75
0
LINE
8
0
10
235.25
20
-102.75
11
216.75
21
-102.75
0
LINE
8
0
10
216.75
20
-102.75
11
216.75
21
-121.25
0
LINE
8
0
10
216.75
20
-102.25
11
235.25
21
-102.25
0
LINE
8
0
10
235.25
20
-102.25
11
235.25
21
-83.75
0
LINE
8
0
10
235.25
20
-83.75
11
216.75
21
-83.75
0
LINE
8
0
10
216.75
20
-83.75
11
216.75
21
-102.25
0
LINE
8
0
10
235.75
20
-159.25
11
254.25
21
-159.25
0
LINE
8
0
10
254.25
20
-159.25
11
254.25
21
-140.75
0
LINE
8
0
10
254.25
20
-140.75
11
235.75
21
-140.75
0
LINE
8
0
10
235.75
20
-140.75
11
235.75
21
-159.25
0
LINE
8
0
10
235.75
20
-140.25
11
254.25
21
-140.25
0
LINE
8
0
10
254.25
20
-140.25
11
254.25
21
-121.75
0
LINE
8
0
10
254.25
20
-121.75
11
235.75
21
-121.75
0
LINE
8
0
10
235.75
20
-121.75
11
235.75
21
-140.25
0
LINE
8
0
10
235.75
20
-121.25
11
254.25
21
-121.25
0
LINE
8
0
10
254.25
20
-121.25
11
254.25
21
-102.75
0
LINE
8
0
10
254.25
20
-102.75
11
235.75
21
-102.75
0
LINE
8
0
10
235.75
20
-102.75
11
235.75
21
-121.25
0
LINE
8
0
10
235.75
20
-102.25
11
254.25
21
-102.25
0
LINE
8
0
10
254.25
20
-102.25
11
254.25
21
-83.75
0
LINE
8
0
10
254.25
20
-83.75
11
235.75
21
-83.75
0
LINE
8
0
10
235.75
20
-83.75
11
235.75
21
-102.25
0
LINE
8
0
10
254.75
20
-159.25
11
273.25
21
-159.25
0
LINE
8
0
10
273.25
20
-159.25
11
273.25
21
-140.75
0
LINE
8
0
10
273.25
20
-140.75
11
254.75
21
-140.75
0
LINE
8
0
10
254.75
20
-140.75
11
254.75
21
-159.25
0
LINE
8
0
10
254.75
20
-140.25
11
273.25
21
-140.25
0
LINE
8
0
10
273.25
20
-140.25
11
273.25
21
-121.75
0
LINE
8
0
10
273.25
20
-121.75
11
254.75
21
-121.75
0
LINE
8
0
10
254.75
20
-121.75
11
254.75
21
-140.25
0
LINE
8
0
10
178.75
20
-178.25
11
197.25
21
-178.25
0
LINE
8
0
10
197.25
20
-178.25
11
197.25
21
-159.75
0
LINE
8
0
10
197.25
20
-159.75
11
178.75
21
-159.75
0
LINE
8
0
10
178.75
20
-159.75
11
178.75
21
-178.25
0
LINE
8
0
10
197.75
20
-178.25
11
216.25
21
-178.25
0
LINE
8
0
10
216.25
20
-178.25
11
216.25
21
-159.75
0
LINE
8
0
10
216.25
20
-159.75
11
197.75
21
-159.75
0
LINE
8
0
10
197.75
20
-159.75
11
197.75
21
-178.25
0
LINE
8
0
10
216.75
20
-178.25
11
235.25
21
-178.25
0
LINE
8
0
10
235.25
20
-178.25
11
235.25
21
-159.75
0
LINE
8
0
10
235.25
20
-159.75
11
216.75
21
-159.75
0
LINE
8
0
10
216.75
20
-159.75
11
216.75
21
-178.25
0
LINE
8
0
10
244.75
20
-178.25
11
263.25
21
-178.25
0
LINE
8
0
10
263.25
20
-178.25
11
263.25
21
-159.75
0
LINE
8
0
10
263.25
20
-159.75
11
244.75
21
-159.75
0
LINE
8
0
10
244.75
20
-159.75
11
244.75
21
-178.25
0
ENDSEC
0
EOF