0
SECTION
2
HEADER
9
$INSUNITS
70
4
0
ENDSEC
0
SECTION
2
TABLES
0
TABLE
2
LTYPE
0
LTYPE
72
65
70
64
2
CONTINUOUS
3
______
73
0
40
0
0
ENDTAB
0
TABLE
2
LAYER
0
ENDTAB
0
ENDSEC
0
SECTION
2
ENTITIES
0
LINE
8
0
10
143
20
-157
11
157
21
-157
0
LINE
8
0
10
157
20
-157
11
157
21
-143
0
LINE
8
0
10
157
20
-143
11
143
21
-143
0
LINE
8
0
10
143
20
-143
11
143
21
-157
0
LINE
8
0
10
143
20
-138
11
157
21
-138
0
LINE
8
0
10
157
20
-138
11
157
21
-124
0
LINE
8
0
10
157
20
-124
11
143
21
-124
0
LINE
8
0
10
143
20
-124
11
143
21
-138
0
LINE
8
0
10
143
20
-119
11
157
21
-119
0
LINE
8
0
10
157
20
-119
11
157
21
-105
0
LINE
8
0
10
157
20
-105
11
143
21
-105
0
LINE
8
0
10
143
20
-105
11
143
21
-119
0
LINE
8
0
10
143
20
-100
11
157
21
-100
0
LINE
8
0
10
157
20
-100
11
157
21
-86
0
LINE
8
0
10
157
20
-86
11
143
21
-86
0
LINE
8
0
10
143
20
-86
11
143
21
-100
0
LINE
8
0
10
162
20
-157
11
176
21
-157
0
LINE
8
0
10
176
20
-157
11
176
21
-143
0
LINE
8
0
10
176
20
-143
11
162
21
-143
0
LINE
8
0
10
162
20
-143
11
162
21
-157
0
LINE
8
0
10
162
20
-138
11
176
21
-138
0
LINE
8
0
10
176
20
-138
11
176
21
-124
0
LINE
8
0
10
176
20
-124
11
162
21
-124
0
LINE
8
0
10
162
20
-124
11
162
21
-138
0
LINE
8
0
10
162
20
-119
11
176
21
-119
0
LINE
8
0
10
176
20
-119
11
176
21
-105
0
LINE
8
0
10
176
20
-105
11
162
21
-105
0
LINE
8
0
10
162
20
-105
11
162
21
-119
0
LINE
8
0
10
162
20
-100
11
176
21
-100
0
LINE
8
0
10
176
20
-100
11
176
21
-86
0
LINE
8
0
10
176
20
-86
11
162
21
-86
0
LINE
8
0
10
162
20
-86
11
162
21
-100
0
LINE
8
0
10
181
20
-157
11
195
21
-157
0
LINE
8
0
10
195
20
-157
11
195
21
-143
0
LINE
8
0
10
195
20
-143
11
181
21
-143
0
LINE
8
0
10
181
20
-143
11
181
21
-157
0
LINE
8
0
10
181
20
-138
11
195
21
-138
0
LINE
8
0
10
195
20
-138
11
195
21
-124
0
LINE
8
0
10
195
20
-124
11
181
21
-124
0
LINE
8
0
10
181
20
-124
11
181
21
-138
0
LINE
8
0
10
181
20
-119
11
195
21
-119
0
LINE
8
0
10
195
20
-119
11
195
21
-105
0
LINE
8
0
10
195
20
-105
11
181
21
-105
0
LINE
8
0
10
181
20
-105
11
181
21
-119
0
LINE
8
0
10
181
20
-100
11
195
21
-100
0
LINE
8
0
10
195
20
-100
11
195
21
-86
0
LINE
8
0
10
195
20
-86
11
181
21
-86
0
LINE
8
0
10
181
20
-86
11
181
21
-100
0
LINE
8
0
10
200
20
-157
11
214
21
-157
0
LINE
8
0
10
214
20
-157
11
214
21
-143
0
LINE
8
0
10
214
20
-143
11
200
21
-143
0
LINE
8
0
10
200
20
-143
11
200
21
-157
0
LINE
8
0
10
200
20
-138
11
214
21
-138
0
LINE
8
0
10
214
20
-138
11
214
21
-124
0
LINE
8
0
10
214
20
-124
11
200
21
-124
0
LINE
8
0
10
200
20
-124
11
200
21
-138
0
LINE
8
0
10
200
20
-119
11
214
21
-119
0
LINE
8
0
10
214
20
-119
11
214
21
-105
0
LINE
8
0
10
214
20
-105
11
200
21
-105
0
LINE
8
0
10
200
20
-105
11
200
21
-119
0
LINE
8
0
10
200
20
-100
11
214
21
-100
0
LINE
8
0
10
214
20
-100
11
214
21
-86
0
LINE
8
0
10
214
20
-86
11
200
21
-86
0
LINE
8
0
10
200
20
-86
11
200
21
-100
0
LINE
8
0
10
219
20
-157
11
233
21
-157
0
LINE
8
0
10
233
20
-157
11
233
21
-143
0
LINE
8
0
10
233
20
-143
11
219
21
-143
0
LINE
8
0
10
219
20
-143
11
219
21
-157
0
LINE
8
0
10
219
20
-138
11
233
21
-138
0
LINE
8
0
10
233
20
-138
11
233
21
-124
0
LINE
8
0
10
233
20
-124
11
219
21
-124
0
LINE
8
0
10
219
20
-124
11
219
21
-138
0
LINE
8
0
10
219
20
-119
11
233
21
-119
0
LINE
8
0
10
233
20
-119
11
233
21
-105
0
LINE
8
0
10
233
20
-105
11
219
21
-105
0
LINE
8
0
10
219
20
-105
11
219
21
-119
0
LINE
8
0
10
219
20
-100
11
233
21
-100
0
LINE
8
0
10
233
20
-100
11
233
21
-86
0
LINE
8
0
10
233
20
-86
11
219
21
-86
0
LINE
8
0
10
219
20
-86
11
219
21
-100
0
LINE
8
0
10
238
20
-157
11
252
21
-157
0
LINE
8
0
10
252
20
-157
11
252
21
-143
0
LINE
8
0
10
252
20
-143
11
238
21
-143
0
LINE
8
0
10
238
20
-143
11
238
21
-157
0
LINE
8
0
10
238
20
-138
11
252
21
-138
0
LINE
8
0
10
252
20
-138
11
252
21
-124
0
LINE
8
0
10
252
20
-124
11
238
21
-124
0
LINE
8
0
10
238
20
-124
11
238
21
-138
0
LINE
8
0
10
238
20
-119
11
252
21
-119
0
LINE
8
0
10
252
20
-119
11
252
21
-105
0
LINE
8
0
10
252
20
-105
11
238
21
-105
0
LINE
8
0
10
238
20
-105
11
238
21
-119
0
LINE
8
0
10
238
20
-100
11
252
21
-100
0
LINE
8
0
10
252
20
-100
11
252
21
-86
0
LINE
8
0
10
252
20
-86
11
238
21
-86
0
LINE
8
0
10
238
20
-86
11
238
21
-100
0
LINE
8
0
10
257
20
-157
11
271
21
-157
0
LINE
8
0
10
271
20
-157
11
271
21
-143
0
LINE
8
0
10
271
20
-143
11
257
21
-143
0
LINE
8
0
10
257
20
-143
11
257
21
-157
0
LINE
8
0
10
257
20
-138
11
271
21
-138
0
LINE
8
0
10
271
20
-138
11
271
21
-124
0
LINE
8
0
10
271
20
-124
11
257
21
-124
0
LINE
8
0
10
257
20
-124
11
257
21
-138
0
LINE
8
0
10
181
20
-176
11
195
21
-176
0
LINE
8
0
10
195
20
-176
11
195
21
-162
0
LINE
8
0
10
195
20
-162
11
181
21
-162
0
LINE
8
0
10
181
20
-162
11
181
21
-176
0
LINE
8
0
10
200
20
-176
11
214
21
-176
0
LINE
8
0
10
214
20
-176
11
214
21
-162
0
LINE
8
0
10
214
20
-162
11
200
21
-162
0
LINE
8
0
10
200
20
-162
11
200
21
-176
0
LINE
8
0
10
219
20
-176
11
233
21
-176
0
LINE
8
0
10
233
20
-176
11
233
21
-162
0
LINE
8
0
10
233
20
-162
11
219
21
-162
0
LINE
8
0
10
219
20
-162
11
219
21
-176
0
LINE
8
0
10
247
20
-176
11
261
21
-176
0
LINE
8
0
10
261
20
-176
11
261
21
-162
0
LINE
8
0
10
261
20
-162
11
247
21
-162
0
LINE
8
0
10
247
20
-162
11
247
21
-176
0
ENDSEC
0
EOF